<svg id="technology" xmlns="http://www.w3.org/2000/svg" width="47.955" height="47.955" viewBox="0 0 47.955 47.955">
  <g id="Grupo_1073473" data-name="Grupo 1073473" transform="translate(0.773 0.773)">
    <g id="Grupo_1073462" data-name="Grupo 1073462" transform="translate(31.712)">
      <path id="Trazado_820168" data-name="Trazado 820168" d="M49.735,1V7.188H42V1Z" transform="translate(-42 -1)" fill="#f0d0b4"/>
    </g>
    <g id="Grupo_1073463" data-name="Grupo 1073463" transform="translate(6.961)">
      <path id="Trazado_820169" data-name="Trazado 820169" d="M17.735,1V7.188H10V1Z" transform="translate(-10 -1)" fill="#f0d0b4"/>
    </g>
    <g id="Grupo_1073464" data-name="Grupo 1073464" transform="translate(19.337)">
      <path id="Trazado_820170" data-name="Trazado 820170" d="M33.735,1V7.188H26V1Z" transform="translate(-26 -1)" fill="#f0d0b4"/>
    </g>
    <g id="Grupo_1073465" data-name="Grupo 1073465" transform="translate(3.094 10.829)">
      <path id="Trazado_820171" data-name="Trazado 820171" d="M45.22,44.392H5v-26.3A3.094,3.094,0,0,1,8.094,15H42.127a3.094,3.094,0,0,1,3.094,3.094Z" transform="translate(-5 -15)" fill="#ccd1d9"/>
    </g>
    <g id="Grupo_1073466" data-name="Grupo 1073466" transform="translate(6.188 13.922)">
      <path id="Trazado_820172" data-name="Trazado 820172" d="M42.259,42.2H9.773A.774.774,0,0,1,9,41.431V19.773A.774.774,0,0,1,9.773,19H42.259a.774.774,0,0,1,.773.773V41.431A.774.774,0,0,1,42.259,42.2Z" transform="translate(-9 -19)" fill="#69d6f4"/>
    </g>
    <g id="Grupo_1073467" data-name="Grupo 1073467" transform="translate(0 40.22)">
      <path id="Trazado_820173" data-name="Trazado 820173" d="M45.861,53H2.547a1.512,1.512,0,0,0-1.091.456A1.512,1.512,0,0,0,1,54.547a4.644,4.644,0,0,0,4.641,4.641H42.767a4.648,4.648,0,0,0,4.641-4.641A1.551,1.551,0,0,0,45.861,53Z" transform="translate(-1 -53)" fill="#969faa"/>
    </g>
    <g id="Grupo_1073468" data-name="Grupo 1073468" transform="translate(38.673 43.314)">
      <path id="Trazado_820174" data-name="Trazado 820174" d="M51,57h3.094v3.094H51Z" transform="translate(-51 -57)" fill="#ff826e"/>
    </g>
    <g id="Grupo_1073469" data-name="Grupo 1073469" transform="translate(32.486 43.314)">
      <path id="Trazado_820175" data-name="Trazado 820175" d="M43,57h3.094v3.094H43Z" transform="translate(-43 -57)" fill="#ff826e"/>
    </g>
    <g id="Grupo_1073470" data-name="Grupo 1073470" transform="translate(17.79 40.22)">
      <path id="Trazado_820176" data-name="Trazado 820176" d="M34.829,53v1.547a1.551,1.551,0,0,1-1.547,1.547H25.547A1.551,1.551,0,0,1,24,54.547V53Z" transform="translate(-24 -53)" fill="#ff826e"/>
    </g>
    <g id="Grupo_1073471" data-name="Grupo 1073471" transform="translate(10.829 22.431)">
      <path id="Trazado_820177" data-name="Trazado 820177" d="M39.751,40.055V44.7H34.762v-.023a7.735,7.735,0,1,0-15.121-2.3A7.664,7.664,0,0,0,20,44.7H15V40.055l1.965-.627a11.238,11.238,0,0,1,.959-2.336l-.944-1.825,3.287-3.287,1.825.944a11.238,11.238,0,0,1,2.336-.959L25.055,30H29.7l.627,1.965a11.237,11.237,0,0,1,2.336.959l1.825-.944,3.287,3.287-.944,1.825a11.238,11.238,0,0,1,.959,2.336Z" transform="translate(-15 -30)" fill="#ffc729"/>
    </g>
    <g id="Grupo_1073472" data-name="Grupo 1073472" transform="translate(15.469 27.071)">
      <path id="Trazado_820178" data-name="Trazado 820178" d="M36.469,43.735a7.753,7.753,0,0,1-.348,2.3v.023H30.777a3.055,3.055,0,0,0,1.052-2.32,3.094,3.094,0,1,0-6.188,0,3.055,3.055,0,0,0,1.052,2.32H21.356a7.735,7.735,0,1,1,15.114-2.32Z" transform="translate(-21 -36)" fill="#fcd770"/>
    </g>
  </g>
  <g id="Grupo_1073474" data-name="Grupo 1073474">
    <path id="Trazado_820179" data-name="Trazado 820179" d="M45.635,43.392h-.773V17.867A3.872,3.872,0,0,0,40.994,14h-2.32v1.547h2.32a2.323,2.323,0,0,1,2.32,2.32V43.392H4.641V17.867a2.323,2.323,0,0,1,2.32-2.32h2.32V14H6.961a3.872,3.872,0,0,0-3.867,3.867V43.392H2.32A2.323,2.323,0,0,0,0,45.712a5.421,5.421,0,0,0,5.414,5.414H42.541a5.421,5.421,0,0,0,5.414-5.414A2.323,2.323,0,0,0,45.635,43.392Zm-26.3,1.547h9.282v.773a.774.774,0,0,1-.773.773H20.11a.774.774,0,0,1-.773-.773ZM35.58,49.58H34.033V48.033H35.58Zm6.188,0H40.22V48.033h1.547Zm1.547-.078V46.486H38.673V49.58H37.127V46.486H32.486V49.58H5.414a3.872,3.872,0,0,1-3.867-3.867.774.774,0,0,1,.773-.773H17.79v.773a2.323,2.323,0,0,0,2.32,2.32h7.735a2.323,2.323,0,0,0,2.32-2.32v-.773H45.635a.774.774,0,0,1,.773.773A3.875,3.875,0,0,1,43.314,49.5Z" transform="translate(0 -3.171)"/>
    <path id="Trazado_820180" data-name="Trazado 820180" d="M18.829,19.547V18H9.547A1.548,1.548,0,0,0,8,19.547V41.2a1.548,1.548,0,0,0,1.547,1.547H42.033A1.548,1.548,0,0,0,43.58,41.2V19.547A1.548,1.548,0,0,0,42.033,18H32.751v1.547h9.282V41.2H38.939V36.773L36.824,36.1a11.649,11.649,0,0,0-.711-1.724L37.128,32.4,33.049,28.32l-1.972,1.015a11.683,11.683,0,0,0-1.724-.711l-.679-2.116H22.9l-.678,2.115a11.649,11.649,0,0,0-1.724.711l-1.972-1.015L14.452,32.4l1.015,1.972a11.683,11.683,0,0,0-.711,1.724l-2.115.679V41.2H9.547V19.547Zm0,20.11A6.962,6.962,0,1,1,32.558,41.2H29.332a3.867,3.867,0,1,0-7.083,0H19.022A6.966,6.966,0,0,1,18.829,39.657Zm4.641,0A2.32,2.32,0,1,1,27.5,41.2H24.078a2.313,2.313,0,0,1-.609-1.547ZM14.188,37.9l1.822-.583.113-.4a9.97,9.97,0,0,1,.892-2.163l.2-.363-.874-1.7,2.484-2.484,1.7.874.363-.2a9.97,9.97,0,0,1,2.163-.892l.4-.113.582-1.822h3.512l.583,1.822.4.113a9.97,9.97,0,0,1,2.163.892l.363.2,1.7-.874L35.236,32.7l-.874,1.7.2.363a9.97,9.97,0,0,1,.892,2.163l.113.4,1.822.582v3.3h-3.24a8.508,8.508,0,1,0-16.724,0h-3.24Z" transform="translate(-1.812 -4.078)"/>
    <path id="Trazado_820181" data-name="Trazado 820181" d="M13,4h3.094V5.547H13Z" transform="translate(-2.945 -0.906)"/>
    <path id="Trazado_820182" data-name="Trazado 820182" d="M29,4h3.094V5.547H29Z" transform="translate(-6.569 -0.906)"/>
    <path id="Trazado_820183" data-name="Trazado 820183" d="M45,4h3.094V5.547H45Z" transform="translate(-10.194 -0.906)"/>
    <path id="Trazado_820184" data-name="Trazado 820184" d="M28.867,20.884h1.547V7.735h3.867V0H25V7.735h3.867ZM26.547,1.547h6.188V6.188H26.547Z" transform="translate(-5.663)"/>
    <path id="Trazado_820185" data-name="Trazado 820185" d="M43.735,10.829H36V20.884h1.547V12.376h7.735V7.735h3.867V0H39.867V7.735h3.867Zm-2.32-9.282H47.6V6.188H41.414Z" transform="translate(-8.155)"/>
    <path id="Trazado_820186" data-name="Trazado 820186" d="M12.867,12.376H20.6v8.508h1.547V10.829H14.414V7.735h3.867V0H9V7.735h3.867ZM10.547,1.547h6.188V6.188H10.547Z" transform="translate(-2.039)"/>
  </g>
</svg>
