<svg xmlns="http://www.w3.org/2000/svg" width="98" height="98" viewBox="0 0 98 98">
  <g id="Grupo_1072668" data-name="Grupo 1072668" transform="translate(-617 -3688)">
    <rect id="Rectángulo_381928" data-name="Rectángulo 381928" width="98" height="98" rx="9" transform="translate(617 3688)" fill="#fdb6c7"/>
    <g id="Layer_x0020_1" transform="translate(624 3515)">
      <path id="Trazado_806486" data-name="Trazado 806486" d="M854.326,413.158H839a1,1,0,0,1-1-1V366.471a1,1,0,0,1,1.991,0v44.7h14.335A1,1,0,0,1,854.326,413.158Z" transform="translate(-796.29 -167.715)" fill-rule="evenodd"/>
      <path id="Trazado_806487" data-name="Trazado 806487" d="M854.088,366.991h-15.33a1,1,0,1,1,0-1.991h15.33A1,1,0,0,1,854.088,366.991Z" transform="translate(-796.053 -167.24)" fill-rule="evenodd"/>
      <path id="Trazado_806488" data-name="Trazado 806488" d="M742.911,825.991H721.758a1,1,0,1,1,0-1.991h21.154A1,1,0,0,1,742.911,825.991Z" transform="translate(-684.876 -603.394)" fill-rule="evenodd"/>
      <path id="Trazado_806489" data-name="Trazado 806489" d="M1140.047,483.122h-21.154a4.164,4.164,0,0,1-4.131-4.181c0-.647-.2-1.941,1-1.941h27.475c1.145,0,1,1.294,1,1.941A4.206,4.206,0,0,1,1140.047,483.122Zm-23.294-4.131a2.156,2.156,0,0,0,2.14,2.14h21.154a2.2,2.2,0,0,0,2.19-2.14Z" transform="translate(-1059.266 -273.665)" fill-rule="evenodd"/>
      <path id="Trazado_806490" data-name="Trazado 806490" d="M1171.384,205.326H1147a.968.968,0,0,1-1-1V193.181a4.164,4.164,0,0,1,4.131-4.181H1168.2a4.206,4.206,0,0,1,4.181,4.181v11.2A.957.957,0,0,1,1171.384,205.326Zm-23.393-1.991h22.4V193.181a2.21,2.21,0,0,0-2.19-2.19h-18.068a2.167,2.167,0,0,0-2.14,2.19Z" transform="translate(-1088.96)" fill-rule="evenodd"/>
      <path id="Trazado_806491" data-name="Trazado 806491" d="M1139.112,942.122h-21.154c-4.33,0-5.176-6.122-3.136-6.122H1142.3C1144.288,936,1143.492,942.122,1139.112,942.122Zm-23.294-4.131a2.156,2.156,0,0,0,2.14,2.14h21.154a2.2,2.2,0,0,0,2.19-2.14Z" transform="translate(-1058.33 -709.82)" fill-rule="evenodd"/>
      <path id="Trazado_806492" data-name="Trazado 806492" d="M1171.384,664.326H1147a1,1,0,0,1-1-1V652.181a4.164,4.164,0,0,1,4.131-4.181H1168.2a4.206,4.206,0,0,1,4.181,4.181V663.33A1,1,0,0,1,1171.384,664.326Zm-23.393-1.991h22.4V652.181a2.21,2.21,0,0,0-2.19-2.19h-18.068a2.167,2.167,0,0,0-2.14,2.19Z" transform="translate(-1088.96 -436.154)" fill-rule="evenodd"/>
      <path id="Trazado_806493" data-name="Trazado 806493" d="M1139.112,1401.072h-21.154c-4.33,0-5.176-6.072-3.136-6.072H1142.3C1144.288,1395,1143.492,1401.072,1139.112,1401.072Zm-23.294-4.081a2.147,2.147,0,0,0,2.14,2.09h21.154a2.191,2.191,0,0,0,2.19-2.09Z" transform="translate(-1058.33 -1145.974)" fill-rule="evenodd"/>
      <path id="Trazado_806494" data-name="Trazado 806494" d="M1171.384,1123.325H1147a1,1,0,0,1-1-1v-11.2a4.121,4.121,0,0,1,4.131-4.131H1168.2a4.164,4.164,0,0,1,4.181,4.131v11.2A1,1,0,0,1,1171.384,1123.325Zm-23.393-1.991h22.4v-10.2a2.167,2.167,0,0,0-2.19-2.14h-18.068a2.124,2.124,0,0,0-2.14,2.14Z" transform="translate(-1088.96 -872.308)" fill-rule="evenodd"/>
      <path id="Trazado_806495" data-name="Trazado 806495" d="M1298.853,288.629a.981.981,0,0,1-.7-1.692l2.389-2.439a1.022,1.022,0,0,1,1.443,1.443C1301.142,286.787,1299.55,288.629,1298.853,288.629Z" transform="translate(-1233.252 -90.471)" fill-rule="evenodd"/>
      <path id="Trazado_806496" data-name="Trazado 806496" d="M1367.853,319.923a.981.981,0,0,1-.7-1.692l3.733-3.733a1,1,0,0,1,1.394,1.443l-3.733,3.683A.983.983,0,0,1,1367.853,319.923Z" transform="translate(-1298.817 -118.978)" fill-rule="evenodd"/>
      <path id="Trazado_806497" data-name="Trazado 806497" d="M1319.554,744.111a1.041,1.041,0,0,1-.746-1.742l2.439-2.389a.986.986,0,1,1,1.394,1.394C1321.794,742.27,1320.251,744.111,1319.554,744.111Z" transform="translate(-1252.908 -523.257)" fill-rule="evenodd"/>
      <path id="Trazado_806498" data-name="Trazado 806498" d="M1388.853,775.406a1.015,1.015,0,0,1-.7-1.742l3.683-3.683a1,1,0,0,1,1.443,1.394l-3.733,3.733A.983.983,0,0,1,1388.853,775.406Z" transform="translate(-1318.772 -551.763)" fill-rule="evenodd"/>
      <path id="Trazado_806499" data-name="Trazado 806499" d="M1319.554,1202.629a1.006,1.006,0,0,1-.746-1.692l2.439-2.439a1,1,0,0,1,1.394,1.443C1321.794,1200.787,1320.251,1202.629,1319.554,1202.629Z" transform="translate(-1252.908 -958.978)" fill-rule="evenodd"/>
      <path id="Trazado_806500" data-name="Trazado 806500" d="M1388.853,1234.356a.981.981,0,0,1-.7-1.692l3.683-3.683a1,1,0,0,1,1.443,1.394l-3.733,3.733A1.191,1.191,0,0,1,1388.853,1234.356Z" transform="translate(-1318.772 -987.918)" fill-rule="evenodd"/>
      <path id="Trazado_806501" data-name="Trazado 806501" d="M35.687,417.742H2.19A2.167,2.167,0,0,1,0,415.6V407.19A2.209,2.209,0,0,1,2.19,405h33.5a2.209,2.209,0,0,1,2.19,2.19V415.6A2.167,2.167,0,0,1,35.687,417.742ZM2.19,406.991a.214.214,0,0,0-.2.2V415.6a.222.222,0,0,0,.2.149h33.5c.1,0,.2-.05.2-.149V407.19a.214.214,0,0,0-.2-.2Z" transform="translate(0 -205.249)" fill-rule="evenodd"/>
      <path id="Trazado_806502" data-name="Trazado 806502" d="M35.687,728.742H2.19A2.167,2.167,0,0,1,0,726.6V718.14A2.167,2.167,0,0,1,2.19,716h33.5a2.167,2.167,0,0,1,2.19,2.14v8.412A2.209,2.209,0,0,1,35.687,728.742ZM2.19,717.991a.222.222,0,0,0-.2.149v8.412a.214.214,0,0,0,.2.2h33.5a.214.214,0,0,0,.2-.2V718.14a.222.222,0,0,0-.2-.149Z" transform="translate(0 -500.77)" fill-rule="evenodd"/>
      <path id="Trazado_806503" data-name="Trazado 806503" d="M35.687,1039.742H2.19A2.167,2.167,0,0,1,0,1037.6v-8.461A2.167,2.167,0,0,1,2.19,1027h33.5a2.167,2.167,0,0,1,2.19,2.14v8.412A2.21,2.21,0,0,1,35.687,1039.742Zm-33.5-10.751c-.1,0-.2.05-.2.149v8.412a.214.214,0,0,0,.2.2h33.5a.214.214,0,0,0,.2-.2v-8.412c0-.1-.1-.149-.2-.149Z" transform="translate(0 -796.29)" fill-rule="evenodd"/>
      <path id="Trazado_806504" data-name="Trazado 806504" d="M74.99,1108.839c-1.394,0-1-2.091-1-4.081a1,1,0,1,1,1.991,0C75.986,1106.749,76.384,1108.839,74.99,1108.839Z" transform="translate(-70.262 -869.22)" fill-rule="evenodd"/>
      <path id="Trazado_806505" data-name="Trazado 806505" d="M148.99,1108.839c-1.394,0-1-2.091-1-4.081a1,1,0,1,1,1.991,0C149.986,1106.749,150.434,1108.839,148.99,1108.839Z" transform="translate(-140.579 -869.22)" fill-rule="evenodd"/>
      <path id="Trazado_806506" data-name="Trazado 806506" d="M223.99,1108.839c-1.394,0-1-2.091-1-4.081a1,1,0,1,1,1.991,0C224.986,1106.749,225.384,1108.839,223.99,1108.839Z" transform="translate(-211.846 -869.22)" fill-rule="evenodd"/>
      <path id="Trazado_806507" data-name="Trazado 806507" d="M297.99,1108.839c-1.394,0-1-2.091-1-4.081a1,1,0,1,1,1.991,0C298.986,1106.749,299.384,1108.839,297.99,1108.839Z" transform="translate(-282.162 -869.22)" fill-rule="evenodd"/>
      <path id="Trazado_806508" data-name="Trazado 806508" d="M371.99,1108.839c-1.394,0-1-2.091-1-4.081a1,1,0,1,1,1.991,0C372.986,1106.749,373.384,1108.839,371.99,1108.839Z" transform="translate(-352.479 -869.22)" fill-rule="evenodd"/>
      <path id="Trazado_806509" data-name="Trazado 806509" d="M74.99,798.552c-1.394,0-1-2.091-1-4.081a1,1,0,0,1,1.991,0C75.986,796.461,76.384,798.552,74.99,798.552Z" transform="translate(-70.262 -574.412)" fill-rule="evenodd"/>
      <path id="Trazado_806510" data-name="Trazado 806510" d="M148.99,798.552c-1.394,0-1-2.091-1-4.081a1,1,0,0,1,1.991,0C149.986,796.412,150.434,798.552,148.99,798.552Z" transform="translate(-140.579 -574.412)" fill-rule="evenodd"/>
      <path id="Trazado_806511" data-name="Trazado 806511" d="M223.99,798.552c-1.394,0-1-2.091-1-4.081a1,1,0,0,1,1.991,0C224.986,796.461,225.384,798.552,223.99,798.552Z" transform="translate(-211.846 -574.412)" fill-rule="evenodd"/>
      <path id="Trazado_806512" data-name="Trazado 806512" d="M297.99,798.552c-1.394,0-1-2.091-1-4.081a1,1,0,0,1,1.991,0C298.986,796.461,299.384,798.552,297.99,798.552Z" transform="translate(-282.162 -574.412)" fill-rule="evenodd"/>
      <path id="Trazado_806513" data-name="Trazado 806513" d="M371.99,798.552c-1.394,0-1-2.091-1-4.081a1,1,0,0,1,1.991,0C372.986,796.461,373.384,798.552,371.99,798.552Z" transform="translate(-352.479 -574.412)" fill-rule="evenodd"/>
      <path id="Trazado_806514" data-name="Trazado 806514" d="M74.99,487.552c-1.394,0-1-2.091-1-4.081a1,1,0,0,1,1.991,0C75.986,485.461,76.384,487.552,74.99,487.552Z" transform="translate(-70.262 -278.892)" fill-rule="evenodd"/>
      <path id="Trazado_806515" data-name="Trazado 806515" d="M148.99,487.552c-1.394,0-1-2.091-1-4.081a1,1,0,0,1,1.991,0C149.986,485.461,150.434,487.552,148.99,487.552Z" transform="translate(-140.579 -278.892)" fill-rule="evenodd"/>
      <path id="Trazado_806516" data-name="Trazado 806516" d="M223.99,487.552c-1.394,0-1-2.091-1-4.081a1,1,0,0,1,1.991,0C224.986,485.461,225.384,487.552,223.99,487.552Z" transform="translate(-211.846 -278.892)" fill-rule="evenodd"/>
      <path id="Trazado_806517" data-name="Trazado 806517" d="M297.99,487.552c-1.394,0-1-2.091-1-4.081a1,1,0,0,1,1.991,0C298.986,485.461,299.384,487.552,297.99,487.552Z" transform="translate(-282.162 -278.892)" fill-rule="evenodd"/>
      <path id="Trazado_806518" data-name="Trazado 806518" d="M371.99,487.552c-1.394,0-1-2.091-1-4.081a1,1,0,0,1,1.991,0C372.986,485.461,373.384,487.552,371.99,487.552Z" transform="translate(-352.479 -278.892)" fill-rule="evenodd"/>
      <path id="Trazado_806519" data-name="Trazado 806519" d="M463.127,514.991h-9.656a1,1,0,0,1,0-1.991h9.656A1,1,0,0,1,463.127,514.991Z" transform="translate(-429.978 -307.874)" fill-rule="evenodd"/>
      <path id="Trazado_806520" data-name="Trazado 806520" d="M463.127,825.991h-9.656a1,1,0,0,1,0-1.991h9.656A1,1,0,0,1,463.127,825.991Z" transform="translate(-429.978 -603.394)" fill-rule="evenodd"/>
      <path id="Trazado_806521" data-name="Trazado 806521" d="M463.127,1136.991h-9.656a1,1,0,0,1,0-1.991h9.656A1,1,0,0,1,463.127,1136.991Z" transform="translate(-429.978 -898.915)" fill-rule="evenodd"/>
      <path id="Trazado_806522" data-name="Trazado 806522" d="M252.991,627.719H241a1,1,0,0,1-1-1V622a1,1,0,0,1,1-1h12a1,1,0,0,1,1,1v4.728A1,1,0,0,1,252.991,627.719Zm-11-1.991h10v-2.738h-10Z" transform="translate(-228.054 -410.498)" fill-rule="evenodd"/>
      <path id="Trazado_806523" data-name="Trazado 806523" d="M252.991,938.719H241a1,1,0,0,1-1-1V933a1,1,0,0,1,1-1h12a1,1,0,0,1,1,1v4.728A1,1,0,0,1,252.991,938.719Zm-11-1.991h10v-2.738h-10Z" transform="translate(-228.054 -706.019)" fill-rule="evenodd"/>
      <g id="Grupo_1072667" data-name="Grupo 1072667" transform="translate(1.991 201.742)">
        <path id="Trazado_806524" data-name="Trazado 806524" d="M61.5,448.385h9.656a1,1,0,0,1,0,1.991H61.5A1,1,0,0,1,61.5,448.385Zm1.543,5.375H73.7c.1,0,.2-.05.2-.149V445.2a.214.214,0,0,0-.2-.2H40.2a.214.214,0,0,0-.2.2v8.412a.222.222,0,0,0,.2.149H63.045Zm-4.529-5.923c0,1.991.4,4.081-1,4.081s-1-2.09-1-4.081A1,1,0,0,1,58.516,447.837Zm-3.683,0c0,1.991.4,4.081-1,4.081s-1-2.09-1-4.081A1,1,0,0,1,54.832,447.837Zm-3.683,0c0,1.991.4,4.081-1,4.081s-1-2.09-1-4.081A1,1,0,0,1,51.149,447.837Zm-3.733,0c0,1.991.448,4.081-1,4.081-1.394,0-1-2.09-1-4.081A1,1,0,0,1,47.416,447.837Zm-3.683,0c0,1.991.4,4.081-1,4.081s-1-2.09-1-4.081A1,1,0,0,1,43.733,447.837Z" transform="translate(-40 -445)" fill="#335f8c" fill-rule="evenodd"/>
        <path id="Trazado_806525" data-name="Trazado 806525" d="M73.7,756H40.2a.222.222,0,0,0-.2.149v8.412a.214.214,0,0,0,.2.2H73.7a.214.214,0,0,0,.2-.2v-8.412A.222.222,0,0,0,73.7,756ZM61.5,759.385h9.656a1,1,0,0,1,0,1.991H61.5A1,1,0,0,1,61.5,759.385Zm-2.986-.547c0,1.991.4,4.081-1,4.081s-1-2.09-1-4.081A1,1,0,0,1,58.516,758.837Zm-3.683,0c0,1.991.4,4.081-1,4.081s-1-2.09-1-4.081A1,1,0,0,1,54.832,758.837Zm-3.683,0c0,1.991.4,4.081-1,4.081s-1-2.09-1-4.081A1,1,0,0,1,51.149,758.837Zm-3.733,0c0,1.941.448,4.081-1,4.081-1.394,0-1-2.09-1-4.081A1,1,0,0,1,47.416,758.837Zm-3.683,0c0,1.991.4,4.081-1,4.081s-1-2.09-1-4.081A1,1,0,0,1,43.733,758.837Z" transform="translate(-40 -740.521)" fill="#335f8c" fill-rule="evenodd"/>
        <path id="Trazado_806526" data-name="Trazado 806526" d="M73.7,1067H40.2c-.1,0-.2.05-.2.149v8.412a.214.214,0,0,0,.2.2H73.7a.214.214,0,0,0,.2-.2v-8.412C73.9,1067.05,73.8,1067,73.7,1067ZM61.5,1070.385h9.656a1,1,0,0,1,0,1.991H61.5A1,1,0,0,1,61.5,1070.385Zm-2.986-.547c0,1.991.4,4.081-1,4.081s-1-2.09-1-4.081A1,1,0,1,1,58.516,1069.837Zm-3.683,0c0,1.991.4,4.081-1,4.081s-1-2.09-1-4.081A1,1,0,1,1,54.832,1069.837Zm-3.683,0c0,1.991.4,4.081-1,4.081s-1-2.09-1-4.081A1,1,0,1,1,51.149,1069.837Zm-3.733,0c0,1.991.448,4.081-1,4.081-1.394,0-1-2.09-1-4.081A1,1,0,1,1,47.416,1069.837Zm-3.683,0c0,1.991.4,4.081-1,4.081s-1-2.09-1-4.081A1,1,0,1,1,43.733,1069.837Z" transform="translate(-40 -1036.041)" fill="#335f8c" fill-rule="evenodd"/>
      </g>
      <path id="Trazado_806527" data-name="Trazado 806527" d="M1188.14,1147a2.124,2.124,0,0,0-2.14,2.14v10.2h22.4v-10.2a2.167,2.167,0,0,0-2.19-2.14Zm4.728,5.276,2.439-2.439a1,1,0,0,1,1.394,1.443c-.846.846-2.389,2.688-3.086,2.688A1.006,1.006,0,0,1,1192.869,1152.276Zm4.181,4.48a.981.981,0,0,1-.7-1.692l3.683-3.683a1,1,0,0,1,1.443,1.394l-3.733,3.733A1.189,1.189,0,0,1,1197.05,1156.755Z" transform="translate(-1126.969 -910.317)" fill="#92c4fc" fill-rule="evenodd"/>
      <path id="Trazado_806528" data-name="Trazado 806528" d="M1157.14,978.14h21.153a2.2,2.2,0,0,0,2.19-2.14H1155A2.156,2.156,0,0,0,1157.14,978.14Z" transform="translate(-1097.512 -747.829)" fill="#353f47" fill-rule="evenodd"/>
      <path id="Trazado_806529" data-name="Trazado 806529" d="M1186,700.344h22.4V690.19a2.209,2.209,0,0,0-2.19-2.19H1188.14a2.167,2.167,0,0,0-2.14,2.19Zm7.615-5.326a1.041,1.041,0,0,1-.747-1.742l2.439-2.389a.986.986,0,1,1,1.394,1.394C1195.855,693.176,1194.312,695.018,1193.615,695.018Zm3.434,2.787a1.015,1.015,0,0,1-.7-1.742l3.683-3.683a1,1,0,0,1,1.443,1.394l-3.733,3.733A.983.983,0,0,1,1197.05,697.805Z" transform="translate(-1126.969 -474.163)" fill="#92c4fc" fill-rule="evenodd"/>
      <path id="Trazado_806530" data-name="Trazado 806530" d="M1157.14,519.14h21.153a2.2,2.2,0,0,0,2.19-2.14H1155A2.156,2.156,0,0,0,1157.14,519.14Z" transform="translate(-1097.512 -311.674)" fill="#353f47" fill-rule="evenodd"/>
      <path id="Trazado_806531" data-name="Trazado 806531" d="M1186,241.344h22.4V231.19a2.209,2.209,0,0,0-2.19-2.19H1188.14a2.167,2.167,0,0,0-2.14,2.19Zm10-2.389a.981.981,0,0,1-.7-1.692l3.733-3.733a1,1,0,0,1,1.394,1.443l-3.733,3.683A.983.983,0,0,1,1196,238.955Zm-3.434-2.787a.981.981,0,0,1-.7-1.692l2.389-2.439a1.022,1.022,0,0,1,1.443,1.443C1194.86,234.326,1193.267,236.167,1192.57,236.167Z" transform="translate(-1126.969 -38.009)" fill="#92c4fc" fill-rule="evenodd"/>
      <path id="Trazado_806532" data-name="Trazado 806532" d="M1179.936,1435H1155a2.147,2.147,0,0,0,2.14,2.091h21.153a2.191,2.191,0,0,0,2.19-2.091Z" transform="translate(-1097.512 -1183.983)" fill="#353f47" fill-rule="evenodd"/>
    </g>
  </g>
</svg>
