<svg xmlns="http://www.w3.org/2000/svg" width="60" height="60" viewBox="0 0 60 60">
  <g id="Grupo_1074048" data-name="Grupo 1074048" transform="translate(-180 -465)">
    <path id="Trazado_820808" data-name="Trazado 820808" d="M10,0H50A10,10,0,0,1,60,10V50A10,10,0,0,1,50,60H10A10,10,0,0,1,0,50V10A10,10,0,0,1,10,0Z" transform="translate(180 465)" fill="#f9305f"/>
    <path id="Trazado_820809" data-name="Trazado 820809" d="M9.15,16.344h-4.7L3.633,19H-.029L5.186,4.781H8.408L13.662,19H9.98ZM5.273,13.7H8.33L6.8,8.766Zm11.309,2.109a1.874,1.874,0,0,1,1.3.464,1.619,1.619,0,0,1,0,2.373,2.049,2.049,0,0,1-2.6,0,1.618,1.618,0,0,1,0-2.363A1.858,1.858,0,0,1,16.582,15.807Z" transform="translate(200 483)" fill="#fff"/>
  </g>
</svg>
