<svg xmlns="http://www.w3.org/2000/svg" width="60" height="60" viewBox="0 0 60 60">
  <g id="Grupo_1074050" data-name="Grupo 1074050" transform="translate(-1020 -465)">
    <path id="Trazado_820812" data-name="Trazado 820812" d="M10,0H50A10,10,0,0,1,60,10V50A10,10,0,0,1,50,60H10A10,10,0,0,1,0,50V10A10,10,0,0,1,10,0Z" transform="translate(1020 465)" fill="#f9305f"/>
    <path id="Trazado_820813" data-name="Trazado 820813" d="M12.578,14.186a5.193,5.193,0,0,1-.8,2.622A4.833,4.833,0,0,1,9.722,18.57,7,7,0,0,1,6.7,19.2a5.584,5.584,0,0,1-4.414-1.826A7.54,7.54,0,0,1,.674,12.213v-.7A8.607,8.607,0,0,1,1.4,7.853,5.513,5.513,0,0,1,3.5,5.431,5.844,5.844,0,0,1,6.66,4.576a6.129,6.129,0,0,1,4.16,1.362,5.383,5.383,0,0,1,1.787,3.755H9.189a2.547,2.547,0,0,0-.654-1.865A2.691,2.691,0,0,0,6.66,7.262a2.048,2.048,0,0,0-1.875.957,6.151,6.151,0,0,0-.625,3.057v1.006a6.806,6.806,0,0,0,.571,3.252A2.091,2.091,0,0,0,6.7,16.51a2.632,2.632,0,0,0,1.807-.557,2.363,2.363,0,0,0,.664-1.768Zm3.506,1.621a1.874,1.874,0,0,1,1.3.464,1.619,1.619,0,0,1,0,2.373,2.049,2.049,0,0,1-2.6,0,1.618,1.618,0,0,1,0-2.363A1.858,1.858,0,0,1,16.084,15.807Z" transform="translate(1040 483)" fill="#fff"/>
  </g>
</svg>
