<svg xmlns="http://www.w3.org/2000/svg" width="100" height="100" viewBox="0 0 100 100">
  <g id="Grupo_1072671" data-name="Grupo 1072671" transform="translate(-426 -8003)">
    <circle id="Elipse_8595" data-name="Elipse 8595" cx="50" cy="50" r="50" transform="translate(426 8003)" fill="#01c3fd"/>
    <g id="layer1" transform="translate(449 8026)">
      <path id="rect820" d="M6.752,0A3.388,3.388,0,0,0,3.377,3.377V17.43a4.72,4.72,0,0,0-2.561,2.02A5.874,5.874,0,0,0,0,22.491v7.18a17.128,17.128,0,0,0,1.313,5.114c.318.892.632,1.757.86,2.479a7.206,7.206,0,0,1,.354,1.544V42a2.525,2.525,0,0,0-.84,1.875v7.592A2.547,2.547,0,0,0,4.217,54H16.033a2.546,2.546,0,0,0,2.528-2.536V43.872a2.54,2.54,0,0,0-1.445-2.281c.144-.577.438-1.37.766-2.291a15.018,15.018,0,0,0,.916-3.861H34.5l3.948,7.9a2.538,2.538,0,0,0-1.32,2.218v5.9A2.546,2.546,0,0,0,39.654,54H51.464A2.553,2.553,0,0,0,54,51.464v-5.9a2.545,2.545,0,0,0-1.577-2.338,14.464,14.464,0,0,1,.661-1.641A8.681,8.681,0,0,0,54,37.967V3.377A3.389,3.389,0,0,0,50.623,0Zm0,1.687H50.623a1.667,1.667,0,0,1,1.687,1.689V27.989a2.343,2.343,0,0,0-.847-.148,2.21,2.21,0,0,0-.84.153V5.9A2.539,2.539,0,0,0,48.1,3.377H9.28A2.539,2.539,0,0,0,6.752,5.9V20.56c-.052-.022-.1-.047-.155-.068a2.72,2.72,0,0,0-1.533-.181V3.377A1.667,1.667,0,0,1,6.752,1.687ZM8.439,22.094V5.9a.819.819,0,0,1,.84-.84H48.1a.819.819,0,0,1,.84.84V27.151A2.237,2.237,0,0,0,48.1,27a2.438,2.438,0,0,0-1.251.325,2.509,2.509,0,0,0-2.126-1.172,2.682,2.682,0,0,0-.847.147V22.784h2.523a.845.845,0,0,0,0-1.689H43.872a2.532,2.532,0,1,0-5.064,0H31.215a.845.845,0,0,0,0,1.689h7.592V30.6l-1-1.724a2.963,2.963,0,0,0-4.031-1.084,2.926,2.926,0,0,0-1.444,2.584H10.59c-.389-.426-.741-.772-.972-1.053-.263-.319-.338-.491-.338-.633V25.056a5.817,5.817,0,0,0-.84-2.962Zm32.9-15.342A2.546,2.546,0,0,0,38.807,9.28H31.215a.845.845,0,0,0,0,1.689h7.592a2.532,2.532,0,0,0,5.064,0h2.535a.845.845,0,0,0,0-1.689H43.871A2.539,2.539,0,0,0,41.344,6.752Zm0,1.687a.819.819,0,0,1,.84.84v1.689a.845.845,0,1,1-1.689,0V9.28A.825.825,0,0,1,41.344,8.439Zm-21.936.84a9.293,9.293,0,0,0-9.28,9.281v3.375a.844.844,0,0,0,.84.849h16.87a.844.844,0,0,0,.849-.849V18.561a9.293,9.293,0,0,0-9.28-9.281Zm-.847,1.735v.8a.844.844,0,0,0,1.687,0v-.8a7.555,7.555,0,0,1,3.9,1.608l-.569.569a.846.846,0,0,0,1.2,1.2l.569-.569a7.552,7.552,0,0,1,1.607,3.9h-.793a.844.844,0,1,0,0,1.687H27V21.1H22.784a3.36,3.36,0,0,0-.827-2.2l1.419-1.419a.841.841,0,1,0-1.19-1.19l-1.645,1.636a3.339,3.339,0,0,0-1.134-.2A3.388,3.388,0,0,0,16.033,21.1H11.816V19.408h.84a.844.844,0,0,0,0-1.687h-.794a7.555,7.555,0,0,1,1.608-3.9l.569.569a.844.844,0,1,0,1.19-1.2l-.565-.565a7.554,7.554,0,0,1,3.9-1.612ZM34.59,12.656a2.539,2.539,0,0,0-2.528,2.528h-.847a.845.845,0,0,0,0,1.689h.847a2.532,2.532,0,1,0,5.064,0h9.28a.845.845,0,0,0,0-1.689h-9.28A2.546,2.546,0,0,0,34.59,12.656Zm0,1.687a.825.825,0,0,1,.849.84v1.689a.845.845,0,1,1-1.689,0V15.184A.819.819,0,0,1,34.59,14.344Zm-31.214,4.9v9.444a.844.844,0,0,0,1.687,0V22.534c0-.406.092-.463.2-.522a.871.871,0,0,1,.7.043,3.176,3.176,0,0,1,1.631,3.039v3.594A2.7,2.7,0,0,0,8.316,30.4c.368.447.786.837,1.177,1.277a5.141,5.141,0,0,1,1.477,3.762.844.844,0,0,0,1.687,0H17.1a13.666,13.666,0,0,1-.811,3.294,17.246,17.246,0,0,0-.722,2.61H4.217V38.807a6.958,6.958,0,0,0-.43-2.055c-.246-.777-.57-1.644-.885-2.528a18.829,18.829,0,0,1-1.215-4.553v-7.18a4.332,4.332,0,0,1,.567-2.167,2.848,2.848,0,0,1,1.122-1.076Zm16.031.16A1.675,1.675,0,0,1,21.1,21.1H17.72A1.675,1.675,0,0,1,19.408,19.408ZM42.184,21.1V32.062a.844.844,0,0,0,1.687,0V28.687a.844.844,0,1,1,1.687,0v3.375a.844.844,0,0,0,1.687,0V29.528a.845.845,0,0,1,1.689,0v2.535a.844.844,0,0,0,1.687,0V30.375a.844.844,0,1,1,1.687,0v7.592a7.068,7.068,0,0,1-.771,2.927,10.954,10.954,0,0,0-.824,2.137H40.177l-5.99-12a1.284,1.284,0,0,1,.435-1.776,1.248,1.248,0,0,1,1.732.461l2.572,4.453a.844.844,0,0,0,1.569-.417c0-4.216,0-8.442,0-12.655a.845.845,0,1,1,1.689,0ZM11.822,32.062h20.99l.842,1.687H12.463a6.789,6.789,0,0,0-.641-1.687ZM4.217,43.031H16.033a.819.819,0,0,1,.84.84v7.592a.824.824,0,0,1-.84.847H4.217a.824.824,0,0,1-.84-.847V43.871a.819.819,0,0,1,.84-.84Zm35.437,1.687H51.464a.824.824,0,0,1,.847.84v5.9a.83.83,0,0,1-.847.847H39.654a.83.83,0,0,1-.847-.847v-5.9A.824.824,0,0,1,39.654,44.718Z" transform="translate(0)"/>
    </g>
  </g>
</svg>
