<svg xmlns="http://www.w3.org/2000/svg" width="100" height="100" viewBox="0 0 100 100">
  <g id="Grupo_1072673" data-name="Grupo 1072673" transform="translate(-426 -8003)">
    <circle id="Elipse_8595" data-name="Elipse 8595" cx="50" cy="50" r="50" transform="translate(426 8003)" fill="#01c3fd"/>
    <g id="smartphone" transform="translate(388.9 8017.277)">
      <path id="Trazado_819196" data-name="Trazado 819196" d="M103.295,50.545a1.046,1.046,0,0,0-1.046,1.046V64.223a5.136,5.136,0,0,1-5.131,5.131h-30.2a5.136,5.136,0,0,1-5.131-5.131v-57a5.136,5.136,0,0,1,5.131-5.131h30.2a5.136,5.136,0,0,1,5.131,5.131v6.809a1.046,1.046,0,1,0,2.091,0V7.222A7.23,7.23,0,0,0,97.118,0h-30.2A7.23,7.23,0,0,0,59.7,7.222v57a7.23,7.23,0,0,0,7.222,7.222h30.2a7.23,7.23,0,0,0,7.222-7.222V51.591a1.046,1.046,0,0,0-1.046-1.046Z"/>
      <path id="Trazado_819197" data-name="Trazado 819197" d="M224.085,40.858a1.046,1.046,0,0,0,1.046-1.046V33.039A3.043,3.043,0,0,0,222.091,30h-3.437a1.482,1.482,0,0,0-1.39.976l-.169.469a1.7,1.7,0,0,1-1.6,1.122h-9.531a1.046,1.046,0,0,0,0,2.091H215.5a3.8,3.8,0,0,0,3.565-2.5l.023-.063h3.006a.949.949,0,0,1,.948.948v6.774A1.046,1.046,0,0,0,224.085,40.858Z" transform="translate(-124.973 -25.817)"/>
      <path id="Trazado_819198" data-name="Trazado 819198" d="M273.431,122.05a13.343,13.343,0,0,0-7.824,2.513,1.046,1.046,0,1,0,1.219,1.7,11.345,11.345,0,0,1,17.949,9.223c0,4.278-5.844,11.273-11.312,16.392a.045.045,0,0,1-.063,0c-5.469-5.12-11.312-12.114-11.312-16.392a11.29,11.29,0,0,1,1.9-6.288,1.046,1.046,0,1,0-1.74-1.161A13.374,13.374,0,0,0,260,135.486c0,2.728,1.7,6.251,5.044,10.47a72.28,72.28,0,0,0,6.93,7.449,2.143,2.143,0,0,0,2.922,0,72.327,72.327,0,0,0,6.93-7.449c3.347-4.22,5.044-7.743,5.044-10.47A13.451,13.451,0,0,0,273.431,122.05Z" transform="translate(-172.368 -105.033)"/>
      <path id="Trazado_819199" data-name="Trazado 819199" d="M317.51,172.054A7.511,7.511,0,1,0,310,179.565,7.519,7.519,0,0,0,317.51,172.054Zm-12.93,0A5.419,5.419,0,1,1,310,177.473,5.426,5.426,0,0,1,304.579,172.054Z" transform="translate(-208.936 -141.601)"/>
      <path id="Trazado_819200" data-name="Trazado 819200" d="M115.05,65.639a1.046,1.046,0,0,0-1.479-.022L106.166,72.8a1.182,1.182,0,0,0,.028,1.723L123.769,90.5a.949.949,0,0,1-.832.494h-3.808L103.578,76.858a1.184,1.184,0,0,0-1.618.026L91.794,86.747V81.89l7.833-7.6a1.046,1.046,0,0,0-1.456-1.5l-6.377,6.187V33.04a.949.949,0,0,1,.948-.948h3.145l.023.063a3.8,3.8,0,0,0,3.565,2.5h2.882a1.046,1.046,0,0,0,0-2.091H99.475a1.7,1.7,0,0,1-1.6-1.122l-.169-.468A1.481,1.481,0,0,0,96.318,30H92.742A3.043,3.043,0,0,0,89.7,33.04v57a3.043,3.043,0,0,0,3.039,3.039h30.2a3.043,3.043,0,0,0,3.039-3.039V77.532a1.046,1.046,0,1,0-2.091,0V87.775L108.317,73.629l6.711-6.511A1.046,1.046,0,0,0,115.05,65.639Zm-23.256,24.4v-.38L102.8,78.98l13.217,12.009H92.742A.949.949,0,0,1,91.794,90.041Z" transform="translate(-25.819 -25.818)"/>
      <path id="Trazado_819201" data-name="Trazado 819201" d="M180.777,247.68l-9.358,9.08a1.046,1.046,0,0,0,1.456,1.5l9.358-9.08a1.046,1.046,0,0,0-1.456-1.5Z" transform="translate(-95.868 -212.892)"/>
      <path id="Trazado_819202" data-name="Trazado 819202" d="M143.509,138.469a1.046,1.046,0,0,0,1.046-1.046v-5.035a4.529,4.529,0,1,0-2.091,0v5.035A1.046,1.046,0,0,0,143.509,138.469Zm-2.437-10.487a2.437,2.437,0,1,1,2.437,2.437A2.44,2.44,0,0,1,141.071,127.983Z" transform="translate(-68.225 -106.241)"/>
    </g>
  </g>
</svg>
