<svg xmlns="http://www.w3.org/2000/svg" xmlns:xlink="http://www.w3.org/1999/xlink" width="100" height="100" viewBox="0 0 100 100">
  <defs>
    <clipPath id="clip-path">
      <path id="path2022" d="M0-682.665H56.295v56.295H0Z" transform="translate(0 682.665)"/>
    </clipPath>
  </defs>
  <g id="Grupo_1072676" data-name="Grupo 1072676" transform="translate(-426 -8003)">
    <circle id="Elipse_8595" data-name="Elipse 8595" cx="50" cy="50" r="50" transform="translate(426 8003)" fill="#01c3fd"/>
    <g id="g2004" transform="translate(447.853 8707.518)">
      <g id="g2006" transform="translate(9.279 -669.749)">
        <path id="path2008" d="M0-92.311l3.247-8.3,3.243,8.3" transform="translate(0 100.608)" fill="none" stroke="#000" stroke-linecap="round" stroke-linejoin="round" stroke-miterlimit="10" stroke-width="2"/>
      </g>
      <g id="g2010" transform="translate(19.626 -669.749)">
        <path id="path2012" d="M0-92.311v-8.3" transform="translate(0 100.608)" fill="none" stroke="#000" stroke-linecap="round" stroke-linejoin="round" stroke-miterlimit="10" stroke-width="2"/>
      </g>
      <g id="g2014" transform="translate(10.106 -663.558)">
        <path id="path2016" d="M0,0H4.84" fill="none" stroke="#000" stroke-linecap="round" stroke-linejoin="round" stroke-miterlimit="10" stroke-width="2"/>
      </g>
      <g id="g2018" transform="translate(0 -682.665)">
        <g id="g2020" clip-path="url(#clip-path)">
          <g id="g2026" transform="translate(49.581 3.892)">
            <path id="path2028" d="M-29.546,0a2.658,2.658,0,0,1,2.659,2.657,2.658,2.658,0,0,1-2.659,2.657A2.656,2.656,0,0,1-32.2,2.657,2.656,2.656,0,0,1-29.546,0Z" transform="translate(32.201)" fill="none" stroke="#000" stroke-linecap="round" stroke-linejoin="round" stroke-miterlimit="10" stroke-width="2"/>
          </g>
          <g id="g2030" transform="translate(45.378 6.549)">
            <path id="path2032" d="M-46.765,0h-4.2" transform="translate(50.968)" fill="none" stroke="#000" stroke-linecap="round" stroke-linejoin="round" stroke-miterlimit="10" stroke-width="2"/>
          </g>
          <g id="g2034" transform="translate(44.27 6.549)">
            <path id="path2036" d="M-12.327,0l-1.108,4.794" transform="translate(13.435)" fill="none" stroke="#000" stroke-linecap="round" stroke-linejoin="round" stroke-miterlimit="10" stroke-width="2"/>
          </g>
          <g id="g2038" transform="translate(49.885 15.443)">
            <path id="path2040" d="M-29.545,0a2.658,2.658,0,0,1,2.655,2.66,2.656,2.656,0,0,1-2.655,2.657A2.656,2.656,0,0,1-32.2,2.66,2.658,2.658,0,0,1-29.545,0Z" transform="translate(32.2)" fill="none" stroke="#000" stroke-linecap="round" stroke-linejoin="round" stroke-miterlimit="10" stroke-width="2"/>
          </g>
          <g id="g2042" transform="translate(35.323 24.861)">
            <path id="path2044" d="M-99.554,0H-108.5" transform="translate(108.501)" fill="none" stroke="#000" stroke-linecap="round" stroke-linejoin="round" stroke-miterlimit="10" stroke-width="2"/>
          </g>
          <g id="g2046" transform="translate(33.909 18.1)">
            <path id="path2048" d="M-177.758-.034l-15.976,0" transform="translate(193.734 0.037)" fill="none" stroke="#000" stroke-linecap="round" stroke-linejoin="round" stroke-miterlimit="10" stroke-width="2"/>
          </g>
          <g id="g2050" transform="translate(35.323 11.343)">
            <path id="path2052" d="M-99.554,0H-108.5" transform="translate(108.501)" fill="none" stroke="#000" stroke-linecap="round" stroke-linejoin="round" stroke-miterlimit="10" stroke-width="2"/>
          </g>
          <g id="g2054" transform="translate(49.581 26.995)">
            <path id="path2056" d="M-29.546-59.163a2.658,2.658,0,0,0,2.659-2.657,2.661,2.661,0,0,0-2.659-2.66A2.658,2.658,0,0,0-32.2-61.82,2.656,2.656,0,0,0-29.546-59.163Z" transform="translate(32.201 64.48)" fill="none" stroke="#000" stroke-linecap="round" stroke-linejoin="round" stroke-miterlimit="10" stroke-width="2"/>
          </g>
          <g id="g2058" transform="translate(45.378 29.655)">
            <path id="path2060" d="M-46.765,0h-4.2" transform="translate(50.968)" fill="none" stroke="#000" stroke-linecap="round" stroke-linejoin="round" stroke-miterlimit="10" stroke-width="2"/>
          </g>
          <g id="g2062" transform="translate(44.27 24.861)">
            <path id="path2064" d="M-12.327-53.341l-1.108-4.794" transform="translate(13.435 58.135)" fill="none" stroke="#000" stroke-linecap="round" stroke-linejoin="round" stroke-miterlimit="10" stroke-width="2"/>
          </g>
          <g id="g2066" transform="translate(1.1 3.551)">
            <path id="path2068" d="M-127.411-25.361a12.044,12.044,0,0,0-3.81,1.583l-.826-.827a1.116,1.116,0,0,0-1.575,0l-2.207,2.208a1.118,1.118,0,0,0,0,1.576l.826.827a12.068,12.068,0,0,0-1.582,3.812h-1.164a1.118,1.118,0,0,0-1.114,1.115v3.122a1.118,1.118,0,0,0,1.114,1.115h1.164A12.068,12.068,0,0,0-135-7.018l-.826.827a1.118,1.118,0,0,0,0,1.576l2.207,2.208a1.117,1.117,0,0,0,1.575,0l.826-.827a12.044,12.044,0,0,0,3.81,1.583V-.487A1.118,1.118,0,0,0-126.3.628h3.12a1.118,1.118,0,0,0,1.114-1.115V-1.651a12.045,12.045,0,0,0,3.81-1.583l.826.827a1.117,1.117,0,0,0,1.575,0l2.207-2.208a1.118,1.118,0,0,0,0-1.576l-.826-.827a12.065,12.065,0,0,0,1.581-3.812h1.164a1.118,1.118,0,0,0,1.114-1.115v-3.122a1.118,1.118,0,0,0-1.114-1.115h-1.164a12.065,12.065,0,0,0-1.581-3.812l.826-.827a1.118,1.118,0,0,0,0-1.576l-2.207-2.208a1.116,1.116,0,0,0-1.575,0l-.826.827a12.045,12.045,0,0,0-3.81-1.583v-1.164a1.118,1.118,0,0,0-1.114-1.115h-3.12a1.118,1.118,0,0,0-1.114,1.115Z" transform="translate(138.862 27.64)" fill="none" stroke="#000" stroke-linecap="round" stroke-linejoin="round" stroke-miterlimit="10" stroke-width="2"/>
          </g>
          <g id="g2070" transform="translate(15.401 1.484)">
            <path id="path2072" d="M0-337.527a15.736,15.736,0,0,1,2.857,6.887m10.885-36.877a15.527,15.527,0,0,0-3.46-.344,15.939,15.939,0,0,0-8.307,2.236M17.7-330.64c1.207-8.427,8.743-10.331,8.731-20.607a16.593,16.593,0,0,0-4.379-11.6" transform="translate(0 367.863)" fill="none" stroke="#000" stroke-linecap="round" stroke-linejoin="round" stroke-miterlimit="10" stroke-width="2"/>
          </g>
          <g id="g2074" transform="translate(33.63 3.517)">
            <path id="path2076" d="M-.07-.034l-.006,0" transform="translate(0.076 0.037)" fill="none" stroke="#000" stroke-linecap="round" stroke-linejoin="round" stroke-miterlimit="10" stroke-width="2"/>
          </g>
          <g id="g2078" transform="translate(19.39 48.428)">
            <path id="path2080" d="M-140.015,0V3.193a3.2,3.2,0,0,1-3.191,3.19h-6.205a3.2,3.2,0,0,1-3.188-3.19V0" transform="translate(152.598)" fill="none" stroke="#000" stroke-linecap="round" stroke-linejoin="round" stroke-miterlimit="10" stroke-width="2"/>
          </g>
          <g id="g2082" transform="translate(16.71 38.701)">
            <path id="path2084" d="M-27.067,0h13.079a2.437,2.437,0,0,1,2.43,2.431,2.439,2.439,0,0,1-2.43,2.434H-27.067A2.442,2.442,0,0,1-29.5,2.431,2.439,2.439,0,0,1-27.067,0Z" transform="translate(29.5)" fill="none" stroke="#000" stroke-linecap="round" stroke-linejoin="round" stroke-miterlimit="10" stroke-width="2"/>
          </g>
          <g id="g2086" transform="translate(16.71 43.566)">
            <path id="path2088" d="M-172.592,0a2.436,2.436,0,0,1,2.43,2.431,2.436,2.436,0,0,1-2.43,2.431h-13.079A2.439,2.439,0,0,1-188.1,2.431,2.439,2.439,0,0,1-185.671,0" transform="translate(188.104)" fill="none" stroke="#000" stroke-linecap="round" stroke-linejoin="round" stroke-miterlimit="10" stroke-width="2"/>
          </g>
        </g>
      </g>
    </g>
  </g>
</svg>
