<svg xmlns="http://www.w3.org/2000/svg" width="100" height="100" viewBox="0 0 100 100">
  <g id="Grupo_1072675" data-name="Grupo 1072675" transform="translate(-426 -8003)">
    <circle id="Elipse_8595" data-name="Elipse 8595" cx="50" cy="50" r="50" transform="translate(426 8003)" fill="#01c3fd"/>
    <g id="network" transform="translate(441.913 8018.912)">
      <path id="Trazado_819223" data-name="Trazado 819223" d="M52,168.555a1,1,0,1,0-.539-1.3A1,1,0,0,0,52,168.555Z" transform="translate(-44.542 -144.445)"/>
      <path id="Trazado_819224" data-name="Trazado 819224" d="M167.959,53.254a1.017,1.017,0,0,0,.381-.076,1,1,0,1,0-.381.076Z" transform="translate(-144.729 -44.429)"/>
      <path id="Trazado_819225" data-name="Trazado 819225" d="M330.863,53.265a1,1,0,1,0-.539-1.3A1,1,0,0,0,330.863,53.265Z" transform="translate(-286.275 -44.506)"/>
      <path id="Trazado_819226" data-name="Trazado 819226" d="M53.131,330.539a1,1,0,1,0-.542,1.3A1,1,0,0,0,53.131,330.539Z" transform="translate(-44.391 -285.991)"/>
      <path id="Trazado_819227" data-name="Trazado 819227" d="M445.77,168.23a1,1,0,0,0,1.845-.764h0a1,1,0,1,0-1.844.764Z" transform="translate(-386.349 -144.631)"/>
      <path id="Trazado_819228" data-name="Trazado 819228" d="M167.905,445.636a1,1,0,1,0-.768,1.843.981.981,0,0,0,.383.077,1,1,0,0,0,.385-1.92Z" transform="translate(-144.35 -386.23)"/>
      <path id="Trazado_819229" data-name="Trazado 819229" d="M446.894,330.655a1,1,0,1,0,.538,1.306A1,1,0,0,0,446.894,330.655Z" transform="translate(-386.191 -286.559)"/>
      <path id="Trazado_819230" data-name="Trazado 819230" d="M330.43,445.907a1,1,0,1,0,1.3.542A1,1,0,0,0,330.43,445.907Z" transform="translate(-285.897 -386.467)"/>
      <path id="Trazado_819231" data-name="Trazado 819231" d="M62.5,28.414a5.682,5.682,0,0,0-5.585,4.676H50.862A16.74,16.74,0,0,0,46.65,22.937l4.286-4.286a5.682,5.682,0,1,0-1.412-1.412l-4.286,4.286a16.737,16.737,0,0,0-10.152-4.214v-6.05a5.674,5.674,0,1,0-2,0v6.05a16.739,16.739,0,0,0-10.153,4.214l-4.286-4.286a5.668,5.668,0,0,0-1.916-8.211,1,1,0,1,0-.964,1.749,3.676,3.676,0,1,1-3.549,0,1,1,0,0,0-.965-1.748,5.673,5.673,0,1,0,5.982,9.623l4.286,4.286A16.739,16.739,0,0,0,17.309,33.09h-6.05a5.675,5.675,0,1,0,0,2h6.05a16.737,16.737,0,0,0,4.214,10.152l-4.286,4.286a5.682,5.682,0,1,0,1.412,1.412l4.286-4.286a16.74,16.74,0,0,0,10.152,4.213v6.051a5.674,5.674,0,1,0,2,0V50.865a16.781,16.781,0,0,0,10.158-4.207l4.28,4.28a5.683,5.683,0,1,0,1.412-1.412l-4.28-4.28a16.9,16.9,0,0,0,1.368-1.762,1,1,0,0,0-1.656-1.117,14.879,14.879,0,0,1-1.428,1.8,16.771,16.771,0,0,0-3.6-2.337,32.424,32.424,0,0,0,.865-6.741h6.66a14.738,14.738,0,0,1-.614,3.345,1,1,0,0,0,1.909.586,16.733,16.733,0,0,0,.7-3.931h6.053A5.674,5.674,0,1,0,62.5,28.414ZM5.674,37.765a3.677,3.677,0,1,1,3.677-3.677,3.681,3.681,0,0,1-3.677,3.677ZM34.115,48.9h-.053c-1.459-.016-2.955-1.487-4.107-4.041A18.32,18.32,0,0,1,29.242,43a14.9,14.9,0,0,1,9.689,0,18.32,18.32,0,0,1-.712,1.86C37.067,47.408,35.573,48.878,34.115,48.9Zm-5.981-3.22A13.663,13.663,0,0,0,29.582,48.2,14.8,14.8,0,0,1,24.7,45.538,14.77,14.77,0,0,1,27.4,43.779a20.027,20.027,0,0,0,.737,1.9ZM23.239,44.16a14.755,14.755,0,0,1-3.928-9.073h6.662a32.434,32.434,0,0,0,.865,6.741,16.778,16.778,0,0,0-3.6,2.332Zm16.8-21.66a13.657,13.657,0,0,0-1.449-2.52,14.8,14.8,0,0,1,4.88,2.66A14.774,14.774,0,0,1,40.776,24.4a20.016,20.016,0,0,0-.737-1.9ZM38.931,25.18a14.9,14.9,0,0,1-9.689,0,18.332,18.332,0,0,1,.712-1.86c1.159-2.569,2.665-4.042,4.132-4.042s2.973,1.473,4.132,4.042A18.32,18.32,0,0,1,38.931,25.18ZM28.134,22.5a20.027,20.027,0,0,0-.737,1.9A14.777,14.777,0,0,1,24.7,22.638a14.8,14.8,0,0,1,4.88-2.66A13.666,13.666,0,0,0,28.134,22.5Zm-4.9,1.517a16.768,16.768,0,0,0,3.6,2.332,32.417,32.417,0,0,0-.865,6.741H19.311a14.756,14.756,0,0,1,3.928-9.073Zm5.47,3.092a16.889,16.889,0,0,0,10.754,0A30.589,30.589,0,0,1,40.2,33.09H27.97a30.6,30.6,0,0,1,.739-5.981Zm12.626-.76a16.777,16.777,0,0,0,3.6-2.331,14.757,14.757,0,0,1,3.928,9.073H42.2A32.436,32.436,0,0,0,41.335,26.349ZM54.177,10.321A3.677,3.677,0,1,1,50.5,14,3.681,3.681,0,0,1,54.177,10.321ZM30.409,5.676a3.677,3.677,0,1,1,3.677,3.677,3.681,3.681,0,0,1-3.677-3.677ZM14,57.856a3.677,3.677,0,1,1,3.677-3.677A3.681,3.681,0,0,1,14,57.856ZM37.763,62.5a3.677,3.677,0,1,1-3.677-3.677A3.681,3.681,0,0,1,37.763,62.5Zm16.413-12A3.677,3.677,0,1,1,50.5,54.178,3.681,3.681,0,0,1,54.177,50.5Zm-10.7-4.96A14.788,14.788,0,0,1,38.589,48.2a13.666,13.666,0,0,0,1.449-2.521,20.028,20.028,0,0,0,.737-1.9A14.771,14.771,0,0,1,43.474,45.542Zm-4.01-4.474a16.889,16.889,0,0,0-10.754,0,30.587,30.587,0,0,1-.739-5.981H40.2A30.6,30.6,0,0,1,39.463,41.068Zm23.035-3.3a3.677,3.677,0,1,1,3.677-3.677A3.681,3.681,0,0,1,62.5,37.766Z" transform="translate(0)"/>
    </g>
  </g>
</svg>
