<svg xmlns="http://www.w3.org/2000/svg" width="85" height="85" viewBox="0 0 85 85">
  <g id="Grupo_1073374" data-name="Grupo 1073374" transform="translate(-725 -982)">
    <circle id="Elipse_9692" data-name="Elipse 9692" cx="42.5" cy="42.5" r="42.5" transform="translate(725 982)" fill="#fff" opacity="0.6"/>
    <g id="software_1_" data-name="software(1)" transform="translate(742.126 999.126)">
      <path id="Trazado_819524" data-name="Trazado 819524" d="M56.156,123.842H9.076A1.576,1.576,0,0,1,7.5,122.266V93.076A1.576,1.576,0,0,1,9.076,91.5h47.08a1.576,1.576,0,0,1,1.576,1.576v29.19A1.576,1.576,0,0,1,56.156,123.842Z" transform="translate(-6.742 -82.252)" fill="#685c79"/>
      <path id="Trazado_819525" data-name="Trazado 819525" d="M461.941,91.5h-3.032a1.576,1.576,0,0,1,1.576,1.576v29.19a1.576,1.576,0,0,1-1.576,1.576h3.032a1.576,1.576,0,0,0,1.576-1.576V93.076A1.576,1.576,0,0,0,461.941,91.5Z" transform="translate(-412.528 -82.252)" fill="#594f69"/>
      <rect id="Rectángulo_382013" data-name="Rectángulo 382013" width="26.278" height="44.167" transform="translate(47.957 12.28) rotate(90)" fill="#ade7ff"/>
      <path id="Trazado_819526" data-name="Trazado 819526" d="M139.592,477.532H113.516A1.516,1.516,0,0,1,112,476.016h0a1.516,1.516,0,0,1,1.516-1.516h26.076a1.516,1.516,0,0,1,1.516,1.516h0A1.516,1.516,0,0,1,139.592,477.532Z" transform="translate(-100.68 -426.543)" fill="#685c79"/>
      <path id="Trazado_819527" data-name="Trazado 819527" d="M357.919,474.5h-3.045a1.516,1.516,0,1,1,0,3.032h3.045a1.516,1.516,0,0,0,0-3.032Z" transform="translate(-319.007 -426.543)" fill="#594f69"/>
      <path id="Trazado_819528" data-name="Trazado 819528" d="M180.445,417.867H161.3a8,8,0,0,0,3.264-6.367h12.614A8,8,0,0,0,180.445,417.867Z" transform="translate(-145 -369.91)" fill="#ade7ff"/>
      <path id="Trazado_819529" data-name="Trazado 819529" d="M292.933,411.5h-2.864a8,8,0,0,0,3.264,6.367H296.2A8,8,0,0,1,292.933,411.5Z" transform="translate(-260.752 -369.91)" fill="#82d2f5"/>
      <path id="Trazado_819530" data-name="Trazado 819530" d="M178.607,149.684v12.362l-9.8,4.684-9.8-4.684V149.684L168.8,145Z" transform="translate(-142.93 -130.345)" fill="#ff2c5c"/>
      <path id="Trazado_819531" data-name="Trazado 819531" d="M240.777,149.684l-3.032,1.449-9.585-4.788L230.974,145Z" transform="translate(-205.1 -130.345)" fill="#e62753"/>
      <path id="Trazado_819532" data-name="Trazado 819532" d="M168.8,196.027v12.362l-9.8-4.684V191.343Z" transform="translate(-142.93 -172.004)" fill="#4fb1f5"/>
      <path id="Trazado_819533" data-name="Trazado 819533" d="M256,196.027v12.362l9.8-4.684V191.343Z" transform="translate(-230.126 -172.004)" fill="#ffd659"/>
      <path id="Trazado_819534" data-name="Trazado 819534" d="M326.032,191.343,323,192.792l.046,12.34,2.986-1.427Z" transform="translate(-290.355 -172.004)" fill="#ffbd54"/>
      <circle id="Elipse_9696" data-name="Elipse 9696" cx="1.516" cy="1.516" r="1.516" transform="translate(38.04 0.758)" fill="#ff2c5c"/>
      <circle id="Elipse_9697" data-name="Elipse 9697" cx="1.516" cy="1.516" r="1.516" transform="translate(24.358 0.758)" fill="#ff2c5c"/>
      <circle id="Elipse_9698" data-name="Elipse 9698" cx="1.516" cy="1.516" r="1.516" transform="translate(10.675 0.758)" fill="#ff2c5c"/>
      <path id="Trazado_819535" data-name="Trazado 819535" d="M49.413,8.49H38.81a.758.758,0,1,0,0,1.516h10.6a.819.819,0,0,1,.818.818v29.19a.819.819,0,0,1-.818.818H2.334a.819.819,0,0,1-.818-.818V10.824a.819.819,0,0,1,.818-.818H18.988v1.516H3.79a.758.758,0,0,0-.758.758V32.308a.758.758,0,1,0,1.516,0V13.038h14.44V17.1l-3.245,1.55a.763.763,0,0,0-.431.684V31.7a.758.758,0,0,0,.431.684l9.8,4.684a.767.767,0,0,0,.654,0l5.511-2.633a.758.758,0,0,0-.654-1.368l-4.427,2.115V24.5l8.288-3.959V31.223l-1.126.538a.758.758,0,1,0,.654,1.368L36,32.385a.758.758,0,0,0,.431-.684V19.339A.762.762,0,0,0,36,18.655L32.759,17.1V13.038H47.2V37.8H4.548V35.543a.758.758,0,1,0-1.516,0v3.015a.758.758,0,0,0,.758.758H47.957a.758.758,0,0,0,.758-.758V12.28a.758.758,0,0,0-.758-.758h-15.2V10.006h2.817a.758.758,0,0,0,0-1.516H32.759V6.974h6.8a.758.758,0,0,0,.758-.758v-1.8a2.274,2.274,0,1,0-1.516,0v1.04H32a.758.758,0,0,0-.758.758V8.49H26.632V4.418a2.274,2.274,0,1,0-1.516,0V8.49H20.5V6.216a.758.758,0,0,0-.758-.758h-6.8V4.418a2.274,2.274,0,1,0-1.516,0v1.8a.758.758,0,0,0,.758.758h6.8V8.49H2.334A2.337,2.337,0,0,0,0,10.824v29.19a2.337,2.337,0,0,0,2.334,2.334H18.768A7.224,7.224,0,0,1,16.057,47.2H12.836a2.274,2.274,0,0,0,0,4.548H38.912a2.274,2.274,0,0,0,0-4.548H35.693a7.3,7.3,0,0,1-2.713-4.851H49.413a2.337,2.337,0,0,0,2.334-2.334V10.824A2.337,2.337,0,0,0,49.413,8.49ZM39.556,1.516a.758.758,0,1,1-.758.758A.759.759,0,0,1,39.556,1.516Zm-13.682,0a.758.758,0,1,1-.758.758A.759.759,0,0,1,25.874,1.516Zm-13.682,0a.758.758,0,1,1-.758.758A.759.759,0,0,1,12.191,1.516ZM20.5,13.038h4.611v1.139L20.5,16.38Zm13.414,6.3-8.045,3.844-8.045-3.844L25.874,15.5Zm-17.091,1.2L25.116,24.5V35.183l-8.288-3.959ZM31.243,16.38l-4.611-2.2V13.038h4.611Zm0-6.374v1.516H26.632V10.006Zm-6.127,0v1.516H20.5V10.006ZM39.67,49.473a.759.759,0,0,1-.758.758H12.836a.758.758,0,1,1,0-1.516H38.912A.759.759,0,0,1,39.67,49.473ZM33.518,47.2H18.229a8.549,8.549,0,0,0,2.063-4.851H31.455A8.549,8.549,0,0,0,33.518,47.2Z"/>
    </g>
  </g>
</svg>
