<svg xmlns="http://www.w3.org/2000/svg" width="64.003" height="60.002" viewBox="0 0 64.003 60.002">
  <g id="Server_search" data-name="Server search" transform="translate(0 -2)">
    <path id="Trazado_820115" data-name="Trazado 820115" d="M55.929,61a7.023,7.023,0,0,1-5-2.071L42.54,50.54a13.962,13.962,0,0,0,10-10l8.389,8.39a7.071,7.071,0,0,1-5,12.071Z" fill="#d0dbf7"/>
    <path id="Trazado_820116" data-name="Trazado 820116" d="M6,28H42v5H6Z" fill="#376cfb"/>
    <path id="Trazado_820117" data-name="Trazado 820117" d="M6,13H42v5H6Z" fill="#376cfb"/>
    <rect id="Rectángulo_382079" data-name="Rectángulo 382079" width="46" height="10" rx="2" transform="translate(1 33)" fill="#4294ff"/>
    <rect id="Rectángulo_382080" data-name="Rectángulo 382080" width="46" height="10" rx="2" transform="translate(1 18)" fill="#4294ff"/>
    <rect id="Rectángulo_382081" data-name="Rectángulo 382081" width="46" height="10" rx="2" transform="translate(1 3)" fill="#4294ff"/>
    <circle id="Elipse_9742" data-name="Elipse 9742" cx="14" cy="14" r="14" transform="translate(25 23)" fill="#e6ecff"/>
    <circle id="Elipse_9743" data-name="Elipse 9743" cx="10" cy="10" r="10" transform="translate(29 27)" fill="#4294ff"/>
    <path id="Trazado_820118" data-name="Trazado 820118" d="M55.929,61A7.022,7.022,0,0,1,51,59L61,49a7.07,7.07,0,0,1-5.07,12Z" fill="#4294ff"/>
    <g id="Grupo_1073457" data-name="Grupo 1073457">
      <circle id="Elipse_9744" data-name="Elipse 9744" cx="1" cy="1" r="1" transform="translate(7 37)" fill="#232328"/>
      <circle id="Elipse_9745" data-name="Elipse 9745" cx="1" cy="1" r="1" transform="translate(4 37)" fill="#232328"/>
      <circle id="Elipse_9746" data-name="Elipse 9746" cx="1" cy="1" r="1" transform="translate(10 37)" fill="#232328"/>
      <circle id="Elipse_9747" data-name="Elipse 9747" cx="1" cy="1" r="1" transform="translate(7 22)" fill="#232328"/>
      <circle id="Elipse_9748" data-name="Elipse 9748" cx="1" cy="1" r="1" transform="translate(4 22)" fill="#232328"/>
      <circle id="Elipse_9749" data-name="Elipse 9749" cx="1" cy="1" r="1" transform="translate(10 22)" fill="#232328"/>
      <path id="Trazado_820119" data-name="Trazado 820119" d="M17,22a1,1,0,0,0,0,2H27.71a1,1,0,0,0,0-2Z" fill="#232328"/>
      <path id="Trazado_820120" data-name="Trazado 820120" d="M17,37a1,1,0,0,0,0,2h4a1,1,0,0,0,0-2Z" fill="#232328"/>
      <path id="Trazado_820121" data-name="Trazado 820121" d="M23.43,29a1,1,0,0,0,0-2H3a1,1,0,0,1-1-1V20a1,1,0,0,1,1-1H45a1,1,0,0,1,1,1v.89a1,1,0,0,0,2,0V20a3,3,0,0,0-3-3H43V14h2a3,3,0,0,0,3-3V5a3,3,0,0,0-3-3H3A3,3,0,0,0,0,5v6a3,3,0,0,0,3,3H5v3H3a3,3,0,0,0-3,3v6a3,3,0,0,0,3,3H5v3H3a3,3,0,0,0-3,3v6a3,3,0,0,0,3,3H22.03a1,1,0,0,0,0-2H3a1,1,0,0,1-1-1V35a1,1,0,0,1,1-1H21.46a1,1,0,0,0,0-2H7V29ZM2,11V5A1,1,0,0,1,3,4H45a1,1,0,0,1,1,1v6a1,1,0,0,1-1,1H3A1,1,0,0,1,2,11Zm5,3H41v3H7Z" fill="#232328"/>
      <circle id="Elipse_9750" data-name="Elipse 9750" cx="1" cy="1" r="1" transform="translate(7 7)" fill="#232328"/>
      <circle id="Elipse_9751" data-name="Elipse 9751" cx="1" cy="1" r="1" transform="translate(4 7)" fill="#232328"/>
      <circle id="Elipse_9752" data-name="Elipse 9752" cx="1" cy="1" r="1" transform="translate(10 7)" fill="#232328"/>
      <path id="Trazado_820122" data-name="Trazado 820122" d="M17,9H43a1,1,0,0,0,0-2H17a1,1,0,0,0,0,2Z" fill="#232328"/>
      <path id="Trazado_820123" data-name="Trazado 820123" d="M61.636,48.222l-8-8A15.04,15.04,0,1,0,42.227,51.641l8,8A8.071,8.071,0,1,0,61.636,48.222ZM26,37A13,13,0,1,1,39,50,13,13,0,0,1,26,37Zm26.98,5.394L59.586,49,51,57.586,44.394,50.98a15.053,15.053,0,0,0,8.586-8.586Zm7.242,15.828a6.065,6.065,0,0,1-7.735.7l8.44-8.44a6.065,6.065,0,0,1-.7,7.735Z" fill="#232328"/>
      <path id="Trazado_820124" data-name="Trazado 820124" d="M39,26A11,11,0,1,0,50,37,11,11,0,0,0,39,26Zm0,20a9,9,0,1,1,9-9A9,9,0,0,1,39,46Z" fill="#232328"/>
      <path id="Trazado_820125" data-name="Trazado 820125" d="M39,30a7.009,7.009,0,0,0-7,7,1,1,0,0,0,2,0,5.006,5.006,0,0,1,5-5,1,1,0,0,0,0-2Z" fill="#232328"/>
    </g>
  </g>
</svg>
