<svg xmlns="http://www.w3.org/2000/svg" xmlns:xlink="http://www.w3.org/1999/xlink" width="400" height="400" viewBox="0 0 400 400">
  <defs>
    <clipPath id="clip-path">
      <rect id="Rectángulo_382118" data-name="Rectángulo 382118" width="324" height="308.907" fill="none"/>
    </clipPath>
    <clipPath id="clip-path-3">
      <rect id="Rectángulo_382115" data-name="Rectángulo 382115" width="52.304" height="16.558" fill="none"/>
    </clipPath>
    <clipPath id="clip-path-4">
      <rect id="Rectángulo_382116" data-name="Rectángulo 382116" width="26.468" height="14.147" fill="none"/>
    </clipPath>
  </defs>
  <g id="Grupo_1074045" data-name="Grupo 1074045" transform="translate(-1020 -1037)">
    <rect id="Rectángulo_382113" data-name="Rectángulo 382113" width="400" height="400" transform="translate(1020 1037)" fill="#e9e2ff"/>
    <g id="Grupo_1073484" data-name="Grupo 1073484" transform="translate(1058 1082.547)">
      <g id="Grupo_1073483" data-name="Grupo 1073483" clip-path="url(#clip-path)">
        <g id="Grupo_1073482" data-name="Grupo 1073482">
          <g id="Grupo_1073481" data-name="Grupo 1073481" clip-path="url(#clip-path)">
            <path id="Trazado_820187" data-name="Trazado 820187" d="M47.449,330.58c63.265,33.769,165.837,33.77,229.1,0s63.265-88.52,0-122.289-165.839-33.769-229.1,0-63.265,88.52,0,122.289" transform="translate(0 -47)" fill="#f0f0f0"/>
            <path id="Trazado_820188" data-name="Trazado 820188" d="M215.176,303.556l46.232,26.582a2.134,2.134,0,0,0,1.931,0l81.834-47.247a.588.588,0,0,0,0-1.115l-46.232-26.582a2.135,2.135,0,0,0-1.931,0l-81.834,47.247a.588.588,0,0,0,0,1.115" transform="translate(-55.172 -65.496)" fill="#e0e0e0"/>
            <path id="Trazado_820189" data-name="Trazado 820189" d="M380.329,331.621c-.15-1.184-1.569-1.783-2.35-2.235L346.408,311.1a4.523,4.523,0,0,0-4.514-.031l-31.561,18.2c-.93.537-2.452,1.564-2.452,2.766s.832,1.466,2.36,2.35l31.339,18.1a5.159,5.159,0,0,0,5.162,0l32.335-18.524a2.421,2.421,0,0,0,1.252-2.351" transform="translate(-79.089 -79.758)" fill="#e0e0e0"/>
            <path id="Trazado_820190" data-name="Trazado 820190" d="M260.338,211.243l7.447-4.3a3.555,3.555,0,0,1,3.218,0L317.691,233.9" transform="translate(-66.876 -53.061)" fill="none" stroke="#6e40fc" stroke-miterlimit="10" stroke-width="1"/>
            <path id="Trazado_820191" data-name="Trazado 820191" d="M256.276,208.3l10.466-6.042a3.553,3.553,0,0,1,3.218,0l49.706,28.7" transform="translate(-65.833 -51.856)" fill="none" stroke="#6e40fc" stroke-miterlimit="10" stroke-width="1"/>
            <path id="Trazado_820192" data-name="Trazado 820192" d="M321.642,228l-52.726-30.441a3.559,3.559,0,0,0-3.218,0l-13.483,7.78" transform="translate(-64.79 -50.652)" fill="none" stroke="#6e40fc" stroke-miterlimit="10" stroke-width="1"/>
            <path id="Trazado_820193" data-name="Trazado 820193" d="M323.614,225.056,267.87,192.872a3.555,3.555,0,0,0-3.218,0L248.139,202.4" transform="translate(-63.743 -49.446)" fill="none" stroke="#6e40fc" stroke-miterlimit="10" stroke-width="1"/>
            <path id="Trazado_820194" data-name="Trazado 820194" d="M180.046.581l-48.1,27.77a3.555,3.555,0,0,0-1.609,2.787V163.358a3.555,3.555,0,0,0,1.609,2.787l48.1,27.77a3.558,3.558,0,0,0,3.218,0l48.1-27.77a3.555,3.555,0,0,0,1.609-2.787V31.137a3.555,3.555,0,0,0-1.609-2.787L183.264.581a3.558,3.558,0,0,0-3.218,0" transform="translate(-33.482 -0.05)" fill="#37474f"/>
            <path id="Trazado_820195" data-name="Trazado 820195" d="M250.708,41.219V173.442a3.564,3.564,0,0,1-1.605,2.787L201,204a3.228,3.228,0,0,1-1.605.386V68.446A3.329,3.329,0,0,0,201,68.06l48.1-27.77.438-.364.572-.476a3.335,3.335,0,0,1,.595,1.769" transform="translate(-51.221 -10.134)" fill="#263238"/>
            <path id="Trazado_820196" data-name="Trazado 820196" d="M140.072,59.269l36.024,20.8a3.553,3.553,0,0,1,1.609,2.787V96.567c0,1.026-.721,1.442-1.609.929L140.073,76.7a3.557,3.557,0,0,1-1.609-2.787V60.2c0-1.026.72-1.442,1.609-.929" transform="translate(-35.569 -15.169)" fill="#455a64"/>
            <path id="Trazado_820197" data-name="Trazado 820197" d="M142.525,67.114a3.449,3.449,0,0,0,1.609,2.672L174.121,87.1c.888.513,1.609.149,1.609-.814a3.452,3.452,0,0,0-1.609-2.672L144.134,66.3c-.889-.513-1.609-.149-1.609.814" transform="translate(-36.612 -16.972)" fill="#6e40fc"/>
            <path id="Trazado_820198" data-name="Trazado 820198" d="M142.525,76.5a3.449,3.449,0,0,0,1.609,2.672L174.121,96.48c.888.513,1.609.149,1.609-.814a3.452,3.452,0,0,0-1.609-2.672L144.134,75.682c-.889-.513-1.609-.149-1.609.814" transform="translate(-36.612 -19.381)" fill="#263238"/>
            <path id="Trazado_820199" data-name="Trazado 820199" d="M144.134,75.682l16.5,9.528v3.484l-16.5-9.528a3.449,3.449,0,0,1-1.609-2.672c0-.962.72-1.326,1.609-.814" transform="translate(-36.612 -19.382)" fill="#6e40fc"/>
            <path id="Trazado_820200" data-name="Trazado 820200" d="M140.072,92.1,176.1,112.9a3.553,3.553,0,0,1,1.609,2.787V129.4c0,1.025-.721,1.442-1.609.929l-36.023-20.8a3.557,3.557,0,0,1-1.609-2.787V93.031c0-1.026.72-1.442,1.609-.929" transform="translate(-35.569 -23.603)" fill="#455a64"/>
            <path id="Trazado_820201" data-name="Trazado 820201" d="M142.525,99.947a3.449,3.449,0,0,0,1.609,2.672l29.987,17.313c.888.513,1.609.149,1.609-.814a3.452,3.452,0,0,0-1.609-2.672L144.134,99.134c-.889-.513-1.609-.149-1.609.814" transform="translate(-36.612 -25.406)" fill="#6e40fc"/>
            <path id="Trazado_820202" data-name="Trazado 820202" d="M142.525,109.328A3.449,3.449,0,0,0,144.134,112l29.987,17.313c.888.513,1.609.149,1.609-.814a3.452,3.452,0,0,0-1.609-2.672l-29.987-17.312c-.889-.513-1.609-.149-1.609.814" transform="translate(-36.612 -27.816)" fill="#263238"/>
            <path id="Trazado_820203" data-name="Trazado 820203" d="M144.134,108.515l25.559,14.756v3.485L144.134,112a3.449,3.449,0,0,1-1.609-2.672c0-.962.72-1.326,1.609-.814" transform="translate(-36.612 -27.816)" fill="#6e40fc"/>
            <path id="Trazado_820204" data-name="Trazado 820204" d="M140.072,124.935l36.024,20.8a3.553,3.553,0,0,1,1.609,2.787v13.713c0,1.025-.721,1.442-1.609.929l-36.023-20.8a3.557,3.557,0,0,1-1.609-2.787V125.864c0-1.026.72-1.442,1.609-.929" transform="translate(-35.569 -32.037)" fill="#455a64"/>
            <path id="Trazado_820205" data-name="Trazado 820205" d="M142.525,132.78a3.449,3.449,0,0,0,1.609,2.672l29.987,17.313c.888.513,1.609.149,1.609-.814a3.452,3.452,0,0,0-1.609-2.672l-29.987-17.312c-.889-.513-1.609-.149-1.609.814" transform="translate(-36.612 -33.84)" fill="#6e40fc"/>
            <path id="Trazado_820206" data-name="Trazado 820206" d="M142.525,142.161a3.449,3.449,0,0,0,1.609,2.672l29.987,17.313c.888.513,1.609.149,1.609-.814a3.452,3.452,0,0,0-1.609-2.672l-29.987-17.312c-.889-.513-1.609-.149-1.609.814" transform="translate(-36.612 -36.25)" fill="#263238"/>
            <path id="Trazado_820207" data-name="Trazado 820207" d="M144.134,141.348,154.6,147.39v3.485l-10.465-6.042a3.449,3.449,0,0,1-1.609-2.672c0-.962.72-1.326,1.609-.814" transform="translate(-36.612 -36.25)" fill="#6e40fc"/>
            <path id="Trazado_820208" data-name="Trazado 820208" d="M140.072,157.768l36.024,20.8a3.553,3.553,0,0,1,1.609,2.787v13.713c0,1.025-.721,1.442-1.609.929l-36.023-20.8a3.557,3.557,0,0,1-1.609-2.787V158.7c0-1.026.72-1.442,1.609-.929" transform="translate(-35.569 -40.471)" fill="#455a64"/>
            <path id="Trazado_820209" data-name="Trazado 820209" d="M142.525,165.613a3.449,3.449,0,0,0,1.609,2.672L174.121,185.6c.888.513,1.609.149,1.609-.814a3.452,3.452,0,0,0-1.609-2.672L144.134,164.8c-.889-.513-1.609-.149-1.609.814" transform="translate(-36.612 -42.274)" fill="#6e40fc"/>
            <path id="Trazado_820210" data-name="Trazado 820210" d="M142.525,174.994a3.449,3.449,0,0,0,1.609,2.672l29.987,17.313c.888.513,1.609.149,1.609-.814a3.452,3.452,0,0,0-1.609-2.672l-29.987-17.312c-.889-.513-1.609-.149-1.609.814" transform="translate(-36.612 -44.684)" fill="#263238"/>
            <path id="Trazado_820211" data-name="Trazado 820211" d="M144.134,174.181l16.5,9.528v3.484l-16.5-9.527a3.449,3.449,0,0,1-1.609-2.672c0-.962.72-1.326,1.609-.814" transform="translate(-36.612 -44.684)" fill="#6e40fc"/>
            <path id="Trazado_820212" data-name="Trazado 820212" d="M140.072,190.6,176.1,211.4a3.553,3.553,0,0,1,1.609,2.787V227.9c0,1.026-.721,1.442-1.609.929l-36.023-20.8a3.557,3.557,0,0,1-1.609-2.787V191.53c0-1.026.72-1.442,1.609-.929" transform="translate(-35.569 -48.906)" fill="#455a64"/>
            <path id="Trazado_820213" data-name="Trazado 820213" d="M142.525,198.446a3.449,3.449,0,0,0,1.609,2.672l29.987,17.313c.888.513,1.609.149,1.609-.814a3.452,3.452,0,0,0-1.609-2.672l-29.987-17.312c-.889-.513-1.609-.149-1.609.814" transform="translate(-36.612 -50.709)" fill="#6e40fc"/>
            <path id="Trazado_820214" data-name="Trazado 820214" d="M142.525,207.828a3.449,3.449,0,0,0,1.609,2.672l29.987,17.313c.888.513,1.609.149,1.609-.814a3.452,3.452,0,0,0-1.609-2.672l-29.987-17.312c-.889-.513-1.609-.149-1.609.813" transform="translate(-36.612 -53.119)" fill="#263238"/>
            <path id="Trazado_820215" data-name="Trazado 820215" d="M144.134,207.014l22.54,13.013v3.485L144.134,210.5a3.449,3.449,0,0,1-1.609-2.672c0-.962.72-1.326,1.609-.814" transform="translate(-36.612 -53.118)" fill="#6e40fc"/>
            <path id="Trazado_820216" data-name="Trazado 820216" d="M208.506,89.629c1.667-.967,3.019-.086,3.019,1.966V171.31a6.919,6.919,0,0,1-3.019,5.466c-1.668.967-3.019.086-3.019-1.966V95.095a6.92,6.92,0,0,1,3.019-5.466" transform="translate(-52.786 -22.923)" fill="#37474f"/>
            <path id="Trazado_820217" data-name="Trazado 820217" d="M209.028,175.677a3.45,3.45,0,0,0,1.509-2.729V93.011c0-1.026-.675-1.468-1.509-.987a3.45,3.45,0,0,0-1.509,2.729v79.938c0,1.025.675,1.468,1.509.986" transform="translate(-53.308 -23.589)" fill="#263238"/>
            <path id="Trazado_820218" data-name="Trazado 820218" d="M209.028,190.507a3.45,3.45,0,0,0,1.509-2.729V149.559l-3.019,1.743v38.219c0,1.025.675,1.468,1.509.986" transform="translate(-53.308 -38.419)" fill="#6e40fc"/>
            <path id="Trazado_820219" data-name="Trazado 820219" d="M220.692,82.594c1.667-.967,3.019-.086,3.019,1.966v79.715a6.92,6.92,0,0,1-3.019,5.466c-1.668.967-3.019.086-3.019-1.966V88.06a6.92,6.92,0,0,1,3.019-5.466" transform="translate(-55.916 -21.116)" fill="#37474f"/>
            <path id="Trazado_820220" data-name="Trazado 820220" d="M221.214,168.642a3.45,3.45,0,0,0,1.509-2.729V85.975c0-1.026-.676-1.468-1.509-.986a3.45,3.45,0,0,0-1.509,2.729v79.938c0,1.025.675,1.468,1.509.986" transform="translate(-56.438 -21.782)" fill="#6e40fc"/>
            <path id="Trazado_820221" data-name="Trazado 820221" d="M232.879,75.558c1.667-.967,3.019-.086,3.019,1.966v79.714a6.919,6.919,0,0,1-3.019,5.466c-1.668.967-3.019.086-3.019-1.966V81.024a6.922,6.922,0,0,1,3.019-5.466" transform="translate(-59.047 -19.309)" fill="#37474f"/>
            <path id="Trazado_820222" data-name="Trazado 820222" d="M233.4,161.606a3.45,3.45,0,0,0,1.509-2.729V78.94c0-1.026-.675-1.468-1.509-.987a3.45,3.45,0,0,0-1.509,2.729V160.62c0,1.025.675,1.468,1.509.986" transform="translate(-59.568 -19.975)" fill="#263238"/>
            <path id="Trazado_820223" data-name="Trazado 820223" d="M233.4,168.3a3.45,3.45,0,0,0,1.509-2.729V103.827l-3.019,1.743v61.747c0,1.025.675,1.468,1.509.986" transform="translate(-59.568 -26.671)" fill="#6e40fc"/>
            <path id="Trazado_820224" data-name="Trazado 820224" d="M245.065,68.523c1.667-.967,3.019-.086,3.019,1.966V150.2a6.919,6.919,0,0,1-3.019,5.466c-1.668.967-3.019.086-3.019-1.966V73.989a6.92,6.92,0,0,1,3.019-5.466" transform="translate(-62.177 -17.502)" fill="#37474f"/>
            <path id="Trazado_820225" data-name="Trazado 820225" d="M245.587,154.571a3.45,3.45,0,0,0,1.509-2.729V71.9c0-1.025-.676-1.468-1.509-.986a3.449,3.449,0,0,0-1.509,2.729v79.939c0,1.025.676,1.468,1.509.986" transform="translate(-62.699 -18.167)" fill="#263238"/>
            <path id="Trazado_820226" data-name="Trazado 820226" d="M245.587,177.949a3.45,3.45,0,0,0,1.509-2.729V161.728l-3.019,1.743v13.492c0,1.025.676,1.468,1.509.986" transform="translate(-62.699 -41.545)" fill="#6e40fc"/>
            <path id="Trazado_820227" data-name="Trazado 820227" d="M257.251,61.488c1.667-.967,3.019-.086,3.019,1.966v79.715a6.919,6.919,0,0,1-3.019,5.466c-1.668.967-3.019.086-3.019-1.966V66.954a6.92,6.92,0,0,1,3.019-5.466" transform="translate(-65.308 -15.694)" fill="#37474f"/>
            <path id="Trazado_820228" data-name="Trazado 820228" d="M257.773,147.536a3.45,3.45,0,0,0,1.509-2.729V64.869c0-1.026-.676-1.468-1.509-.986a3.449,3.449,0,0,0-1.509,2.729V146.55c0,1.026.676,1.468,1.509.986" transform="translate(-65.829 -16.36)" fill="#263238"/>
            <path id="Trazado_820229" data-name="Trazado 820229" d="M257.773,161.161a3.45,3.45,0,0,0,1.509-2.729V116.726l-3.019,1.743v41.706c0,1.026.676,1.468,1.509.986" transform="translate(-65.829 -29.985)" fill="#6e40fc"/>
            <path id="Trazado_820230" data-name="Trazado 820230" d="M206.775,212.107l39.686-22.913c.71-.411,1.287-.078,1.287.743v14.455a2.845,2.845,0,0,1-1.287,2.229l-39.686,22.913c-.711.411-1.287.078-1.287-.743V214.336a2.844,2.844,0,0,1,1.287-2.229" transform="translate(-52.786 -48.555)" fill="#37474f"/>
            <path id="Trazado_820231" data-name="Trazado 820231" d="M209.415,218.223c0,.962.721,1.326,1.61.814l33.2-19.177a3.451,3.451,0,0,0,1.61-2.672c0-.962-.72-1.326-1.609-.814l-33.206,19.177a3.45,3.45,0,0,0-1.608,2.672" transform="translate(-53.795 -50.386)" fill="#263238"/>
            <path id="Trazado_820232" data-name="Trazado 820232" d="M209.415,220.11c0,.962.721,1.326,1.609.814l24.148-13.949v-3.486l-24.15,13.95a3.448,3.448,0,0,0-1.608,2.672" transform="translate(-53.795 -52.273)" fill="#6e40fc"/>
            <path id="Trazado_820233" data-name="Trazado 820233" d="M209.415,227.6c0,.962.721,1.326,1.61.814l33.2-19.177a3.451,3.451,0,0,0,1.61-2.672c0-.962-.72-1.326-1.609-.814l-33.206,19.177a3.45,3.45,0,0,0-1.608,2.672" transform="translate(-53.795 -52.795)" fill="#263238"/>
            <path id="Trazado_820234" data-name="Trazado 820234" d="M209.415,232.506c0,.962.721,1.326,1.61.814l9.056-5.229v-3.485l-9.057,5.229a3.45,3.45,0,0,0-1.608,2.672" transform="translate(-53.795 -57.697)" fill="#6e40fc"/>
            <path id="Trazado_820235" data-name="Trazado 820235" d="M231.687,28.351,183.589.582a3.558,3.558,0,0,0-3.218,0l-48.1,27.769a.981.981,0,0,0,0,1.858l48.1,27.77a3.558,3.558,0,0,0,3.218,0l48.1-27.77a.981.981,0,0,0,0-1.858" transform="translate(-33.808 -0.051)" fill="#455a64"/>
            <path id="Trazado_820236" data-name="Trazado 820236" d="M184.863,52.508,147.552,30.966a2.135,2.135,0,0,1-.965-1.672V28.039a2.134,2.134,0,0,1,.965-1.672L184.863,4.825a2.13,2.13,0,0,1,1.931,0l37.311,21.541a2.134,2.134,0,0,1,.965,1.672v1.256a2.134,2.134,0,0,1-.965,1.672L186.794,52.508a2.135,2.135,0,0,1-1.931,0" transform="translate(-37.656 -1.18)" fill="#263238"/>
            <path id="Trazado_820237" data-name="Trazado 820237" d="M147.748,27.739,185.059,49.28a2.135,2.135,0,0,0,1.931,0L224.3,27.739a.588.588,0,0,0,0-1.115l-37.311-20.8a2.135,2.135,0,0,0-1.931,0l-37.31,20.8a.588.588,0,0,0,0,1.115" transform="translate(-37.851 -1.437)" fill="#455a64"/>
            <path id="Trazado_820238" data-name="Trazado 820238" d="M185.83,56.822v3.485a1.955,1.955,0,0,1-.966-.23L147.552,38.534a2.123,2.123,0,0,1-.966-1.672V35.606a2.146,2.146,0,0,1,.788-1.546c-.349.3-.29.721.178.988l37.312,21.543a1.955,1.955,0,0,0,.966.23" transform="translate(-37.655 -8.749)" fill="#37474f"/>
            <path id="Trazado_820239" data-name="Trazado 820239" d="M189.037,40.871,163.8,26.3a2.134,2.134,0,0,1-.966-1.672V23.373A2.132,2.132,0,0,1,163.8,21.7l16.18-9.342a6.419,6.419,0,0,0,1.63-1.453L189.339.5a1.28,1.28,0,0,1,1.63-.337L216.2,14.729a2.133,2.133,0,0,1,.965,1.672v8.228A2.132,2.132,0,0,1,216.2,26.3l-25.236,14.57a2.135,2.135,0,0,1-1.931,0" transform="translate(-41.829 0)" fill="#263238"/>
            <path id="Trazado_820240" data-name="Trazado 820240" d="M191.164,37.385l16.181-9.342a5.623,5.623,0,0,0,.844-.627,5.74,5.74,0,0,0,.785-.826l7.728-10.41a.969.969,0,0,0-.3-1.452L191.164.159a1.281,1.281,0,0,0-1.63.337l-7.728,10.41a6.088,6.088,0,0,1-1.5,1.511L164,21.7a.588.588,0,0,0,0,1.115l25.236,14.57a2.135,2.135,0,0,0,1.931,0" transform="translate(-42.025 0)" fill="#455a64"/>
            <path id="Trazado_820241" data-name="Trazado 820241" d="M222.422,14.729,197.186.159a1.282,1.282,0,0,0-1.63.338l-7.728,10.41a5.664,5.664,0,0,1-.79.823S214.2,27.422,214.209,27.414a5.747,5.747,0,0,0,.787-.823l7.728-10.41a.97.97,0,0,0-.3-1.452" transform="translate(-48.047 0)" fill="#37474f"/>
            <path id="Trazado_820242" data-name="Trazado 820242" d="M172.212,29.453a2.5,2.5,0,0,1,2.264,0,.69.69,0,0,1,0,1.307,2.5,2.5,0,0,1-2.264,0,.69.69,0,0,1,0-1.307" transform="translate(-44.118 -7.496)" fill="#6e40fc"/>
            <path id="Trazado_820243" data-name="Trazado 820243" d="M178.3,32.97a2.5,2.5,0,0,1,2.264,0,.69.69,0,0,1,0,1.307,2.5,2.5,0,0,1-2.264,0,.69.69,0,0,1,0-1.307" transform="translate(-45.683 -8.4)" fill="#6e40fc"/>
            <path id="Trazado_820244" data-name="Trazado 820244" d="M184.4,36.488a2.5,2.5,0,0,1,2.264,0,.69.69,0,0,1,0,1.307,2.5,2.5,0,0,1-2.264,0,.69.69,0,0,1,0-1.307" transform="translate(-47.248 -9.304)" fill="#263238"/>
            <path id="Trazado_820245" data-name="Trazado 820245" d="M190.491,40.006a2.5,2.5,0,0,1,2.264,0,.69.69,0,0,1,0,1.307,2.5,2.5,0,0,1-2.264,0,.69.69,0,0,1,0-1.307" transform="translate(-48.813 -10.207)" fill="#263238"/>
            <path id="Trazado_820246" data-name="Trazado 820246" d="M176.782,26.814a2.5,2.5,0,0,1,2.264,0,.69.69,0,0,1,0,1.307,2.5,2.5,0,0,1-2.264,0,.69.69,0,0,1,0-1.307" transform="translate(-45.292 -6.819)" fill="#6e40fc"/>
            <path id="Trazado_820247" data-name="Trazado 820247" d="M182.875,30.332a2.5,2.5,0,0,1,2.264,0,.69.69,0,0,1,0,1.307,2.5,2.5,0,0,1-2.264,0,.69.69,0,0,1,0-1.307" transform="translate(-46.857 -7.722)" fill="#263238"/>
            <path id="Trazado_820248" data-name="Trazado 820248" d="M188.968,33.85a2.5,2.5,0,0,1,2.264,0,.69.69,0,0,1,0,1.307,2.5,2.5,0,0,1-2.264,0,.69.69,0,0,1,0-1.307" transform="translate(-48.422 -8.626)" fill="#6e40fc"/>
            <path id="Trazado_820249" data-name="Trazado 820249" d="M195.06,37.367a2.5,2.5,0,0,1,2.264,0,.69.69,0,0,1,0,1.307,2.5,2.5,0,0,1-2.264,0,.69.69,0,0,1,0-1.307" transform="translate(-49.987 -9.529)" fill="#263238"/>
            <path id="Trazado_820250" data-name="Trazado 820250" d="M181.351,24.176a2.5,2.5,0,0,1,2.264,0,.69.69,0,0,1,0,1.307,2.5,2.5,0,0,1-2.264,0,.69.69,0,0,1,0-1.307" transform="translate(-46.465 -6.141)" fill="#263238"/>
            <path id="Trazado_820251" data-name="Trazado 820251" d="M187.444,27.693a2.5,2.5,0,0,1,2.264,0,.69.69,0,0,1,0,1.307,2.5,2.5,0,0,1-2.264,0,.69.69,0,0,1,0-1.307" transform="translate(-48.031 -7.044)" fill="#6e40fc"/>
            <path id="Trazado_820252" data-name="Trazado 820252" d="M193.537,31.211a2.5,2.5,0,0,1,2.264,0,.69.69,0,0,1,0,1.307,2.5,2.5,0,0,1-2.264,0,.69.69,0,0,1,0-1.307" transform="translate(-49.596 -7.948)" fill="#263238"/>
            <path id="Trazado_820253" data-name="Trazado 820253" d="M196.618,43.453a2.5,2.5,0,0,1,2.264,0,.69.69,0,0,1,0,1.307,2.5,2.5,0,0,1-2.264,0,.69.69,0,0,1,0-1.307" transform="translate(-50.387 -11.093)" fill="#6e40fc"/>
            <path id="Trazado_820254" data-name="Trazado 820254" d="M201.188,40.815a2.5,2.5,0,0,1,2.264,0,.69.69,0,0,1,0,1.307,2.5,2.5,0,0,1-2.264,0,.69.69,0,0,1,0-1.307" transform="translate(-51.561 -10.415)" fill="#263238"/>
            <path id="Trazado_820255" data-name="Trazado 820255" d="M199.63,34.732a2.5,2.5,0,0,1,2.264,0,.69.69,0,0,1,0,1.307,2.5,2.5,0,0,1-2.264,0,.69.69,0,0,1,0-1.307" transform="translate(-51.161 -8.853)" fill="#263238"/>
            <path id="Trazado_820256" data-name="Trazado 820256" d="M185.921,21.54a2.5,2.5,0,0,1,2.264,0,.69.69,0,0,1,0,1.307,2.5,2.5,0,0,1-2.264,0,.69.69,0,0,1,0-1.307" transform="translate(-47.639 -5.464)" fill="#6e40fc"/>
            <path id="Trazado_820257" data-name="Trazado 820257" d="M192.014,25.058a2.5,2.5,0,0,1,2.264,0,.69.69,0,0,1,0,1.307,2.5,2.5,0,0,1-2.264,0,.69.69,0,0,1,0-1.307" transform="translate(-49.205 -6.367)" fill="#263238"/>
            <path id="Trazado_820258" data-name="Trazado 820258" d="M198.106,28.576a2.5,2.5,0,0,1,2.264,0,.69.69,0,0,1,0,1.307,2.5,2.5,0,0,1-2.264,0,.69.69,0,0,1,0-1.307" transform="translate(-50.77 -7.271)" fill="#6e40fc"/>
            <path id="Trazado_820259" data-name="Trazado 820259" d="M204.2,32.093a2.5,2.5,0,0,1,2.264,0,.69.69,0,0,1,0,1.307,2.5,2.5,0,0,1-2.264,0,.69.69,0,0,1,0-1.307" transform="translate(-52.335 -8.175)" fill="#263238"/>
            <path id="Trazado_820260" data-name="Trazado 820260" d="M205.757,38.179a2.5,2.5,0,0,1,2.264,0,.69.69,0,0,1,0,1.307,2.5,2.5,0,0,1-2.264,0,.69.69,0,0,1,0-1.307" transform="translate(-52.735 -9.738)" fill="#6e40fc"/>
            <path id="Trazado_820261" data-name="Trazado 820261" d="M210.327,35.541a2.5,2.5,0,0,1,2.264,0,.69.69,0,0,1,0,1.307,2.5,2.5,0,0,1-2.264,0,.69.69,0,0,1,0-1.307" transform="translate(-53.909 -9.06)" fill="#263238"/>
            <path id="Trazado_820262" data-name="Trazado 820262" d="M190.056,45.161v3.478a2,2,0,0,1-1.018-.223L163.8,33.844a2.123,2.123,0,0,1-.966-1.672V30.916a2.146,2.146,0,0,1,.788-1.546c-.349.3-.29.721.178.988l25.236,14.573a2,2,0,0,0,1.018.23" transform="translate(-41.83 -7.545)" fill="#37474f"/>
            <path id="Trazado_820263" data-name="Trazado 820263" d="M192.546,13.966l.022-.03a.852.852,0,0,1,1.085-.226l21.962,12.68a.646.646,0,0,1,.2.968l-.023.03a.855.855,0,0,1-1.087.224L192.748,14.935a.648.648,0,0,1-.2-.969" transform="translate(-49.426 -3.494)" fill="#263238"/>
            <path id="Trazado_820264" data-name="Trazado 820264" d="M192.546,13.966l.022-.03a.852.852,0,0,1,1.085-.226l16.328,9.426-.911,1.222-16.322-9.423a.648.648,0,0,1-.2-.969" transform="translate(-49.426 -3.494)" fill="#6e40fc"/>
            <path id="Trazado_820265" data-name="Trazado 820265" d="M194.989,10.687l.022-.03a.852.852,0,0,1,1.085-.226l21.962,12.68a.646.646,0,0,1,.2.968l-.023.03a.855.855,0,0,1-1.087.224L195.191,11.656a.649.649,0,0,1-.2-.969" transform="translate(-50.054 -2.652)" fill="#263238"/>
            <path id="Trazado_820266" data-name="Trazado 820266" d="M194.989,10.687l.022-.03a.852.852,0,0,1,1.086-.226l5.458,3.15-.911,1.222-5.453-3.147a.649.649,0,0,1-.2-.969" transform="translate(-50.054 -2.652)" fill="#6e40fc"/>
            <path id="Trazado_820267" data-name="Trazado 820267" d="M197.432,7.408l.022-.03a.852.852,0,0,1,1.085-.226L220.5,19.831a.646.646,0,0,1,.2.968l-.023.03a.855.855,0,0,1-1.087.224L197.634,8.377a.648.648,0,0,1-.2-.969" transform="translate(-50.682 -1.81)" fill="#263238"/>
            <path id="Trazado_820268" data-name="Trazado 820268" d="M197.432,7.407l.022-.03a.853.853,0,0,1,1.086-.227l11.439,6.583-.911,1.222-11.434-6.58a.648.648,0,0,1-.2-.968" transform="translate(-50.682 -1.81)" fill="#6e40fc"/>
            <path id="Trazado_820269" data-name="Trazado 820269" d="M199.875,4.129l.022-.03a.852.852,0,0,1,1.085-.226l21.962,12.68a.645.645,0,0,1,.2.968l-.023.03a.855.855,0,0,1-1.087.224L200.077,5.1a.648.648,0,0,1-.2-.969" transform="translate(-51.309 -0.967)" fill="#263238"/>
            <path id="Trazado_820270" data-name="Trazado 820270" d="M199.875,4.129l.022-.03a.852.852,0,0,1,1.085-.226l19.936,11.509-.911,1.222L200.077,5.1a.649.649,0,0,1-.2-.969" transform="translate(-51.309 -0.967)" fill="#6e40fc"/>
            <path id="Trazado_820271" data-name="Trazado 820271" d="M146.587,272.74l7.447-4.3a3.571,3.571,0,0,1,3.218,0l44.233,25.537a1.636,1.636,0,0,0,2.455-1.417V255.976" transform="translate(-37.656 -65.756)" fill="none" stroke="#6e40fc" stroke-miterlimit="10" stroke-width="1"/>
            <path id="Trazado_820272" data-name="Trazado 820272" d="M142.525,271l10.466-6.042a3.567,3.567,0,0,1,3.218,0l47.251,27.281a1.637,1.637,0,0,0,2.455-1.418V255.976" transform="translate(-36.612 -65.756)" fill="none" stroke="#6e40fc" stroke-miterlimit="10" stroke-width="1"/>
            <path id="Trazado_820273" data-name="Trazado 820273" d="M138.464,269.321l13.483-7.78a3.571,3.571,0,0,1,3.218,0l50.27,29.023a1.637,1.637,0,0,0,2.456-1.417V256.256" transform="translate(-35.569 -65.828)" fill="none" stroke="#6e40fc" stroke-miterlimit="10" stroke-width="1"/>
            <path id="Trazado_820274" data-name="Trazado 820274" d="M134.387,267.584l16.513-9.528a3.571,3.571,0,0,1,3.218,0l53.289,30.767a1.637,1.637,0,0,0,2.455-1.418V256.256" transform="translate(-34.522 -65.828)" fill="none" stroke="#6e40fc" stroke-miterlimit="10" stroke-width="1"/>
            <path id="Trazado_820275" data-name="Trazado 820275" d="M62.247,68.582l-48.1,27.77a3.555,3.555,0,0,0-1.609,2.787V231.359a3.555,3.555,0,0,0,1.609,2.787l48.1,27.77a3.558,3.558,0,0,0,3.218,0l48.1-27.77a3.555,3.555,0,0,0,1.609-2.787V99.138a3.555,3.555,0,0,0-1.609-2.787l-48.1-27.77a3.558,3.558,0,0,0-3.218,0" transform="translate(-3.221 -17.519)" fill="#37474f"/>
            <path id="Trazado_820276" data-name="Trazado 820276" d="M132.908,109.219V241.442a3.564,3.564,0,0,1-1.605,2.787L83.2,272a3.228,3.228,0,0,1-1.605.386V136.446a3.329,3.329,0,0,0,1.605-.386l48.1-27.77.438-.364.572-.476a3.335,3.335,0,0,1,.594,1.769" transform="translate(-20.961 -27.602)" fill="#263238"/>
            <path id="Trazado_820277" data-name="Trazado 820277" d="M22.272,127.269l36.024,20.8a3.553,3.553,0,0,1,1.609,2.787v13.713c0,1.026-.721,1.442-1.609.929L22.273,144.7a3.56,3.56,0,0,1-1.61-2.787V128.2c0-1.026.72-1.442,1.609-.929" transform="translate(-5.308 -32.637)" fill="#455a64"/>
            <path id="Trazado_820278" data-name="Trazado 820278" d="M24.726,135.114a3.449,3.449,0,0,0,1.609,2.672L56.322,155.1c.888.513,1.609.149,1.609-.814a3.452,3.452,0,0,0-1.609-2.672L26.335,134.3c-.889-.513-1.609-.149-1.609.814" transform="translate(-6.352 -34.44)" fill="#6e40fc"/>
            <path id="Trazado_820279" data-name="Trazado 820279" d="M24.726,144.5a3.449,3.449,0,0,0,1.609,2.672L56.322,164.48c.888.513,1.609.149,1.609-.814a3.452,3.452,0,0,0-1.609-2.672L26.335,143.682c-.889-.513-1.609-.149-1.609.814" transform="translate(-6.352 -36.85)" fill="#263238"/>
            <path id="Trazado_820280" data-name="Trazado 820280" d="M26.335,143.682l16.5,9.528v3.484l-16.5-9.528a3.449,3.449,0,0,1-1.609-2.672c0-.962.72-1.326,1.609-.814" transform="translate(-6.352 -36.85)" fill="#6e40fc"/>
            <path id="Trazado_820281" data-name="Trazado 820281" d="M22.272,160.1,58.3,180.9a3.553,3.553,0,0,1,1.609,2.787V197.4c0,1.025-.721,1.442-1.609.929l-36.023-20.8a3.56,3.56,0,0,1-1.61-2.787V161.031c0-1.026.72-1.442,1.609-.929" transform="translate(-5.308 -41.071)" fill="#455a64"/>
            <path id="Trazado_820282" data-name="Trazado 820282" d="M24.726,167.947a3.449,3.449,0,0,0,1.609,2.672l29.987,17.313c.888.513,1.609.149,1.609-.814a3.452,3.452,0,0,0-1.609-2.672L26.335,167.134c-.889-.514-1.609-.149-1.609.814" transform="translate(-6.352 -42.874)" fill="#6e40fc"/>
            <path id="Trazado_820283" data-name="Trazado 820283" d="M24.726,177.329A3.449,3.449,0,0,0,26.335,180l29.987,17.313c.888.513,1.609.149,1.609-.814a3.452,3.452,0,0,0-1.609-2.672L26.335,176.516c-.889-.513-1.609-.149-1.609.814" transform="translate(-6.352 -45.284)" fill="#263238"/>
            <path id="Trazado_820284" data-name="Trazado 820284" d="M26.335,176.515l25.559,14.756v3.485L26.335,180a3.449,3.449,0,0,1-1.609-2.672c0-.962.72-1.326,1.609-.814" transform="translate(-6.352 -45.284)" fill="#6e40fc"/>
            <path id="Trazado_820285" data-name="Trazado 820285" d="M22.272,192.936l36.024,20.8a3.553,3.553,0,0,1,1.609,2.787v13.713c0,1.025-.721,1.442-1.609.929l-36.023-20.8a3.56,3.56,0,0,1-1.61-2.787V193.865c0-1.026.72-1.442,1.609-.929" transform="translate(-5.308 -49.505)" fill="#455a64"/>
            <path id="Trazado_820286" data-name="Trazado 820286" d="M24.726,200.781a3.449,3.449,0,0,0,1.609,2.672l29.987,17.313c.888.513,1.609.149,1.609-.814a3.452,3.452,0,0,0-1.609-2.672L26.335,199.968c-.889-.513-1.609-.149-1.609.814" transform="translate(-6.352 -51.308)" fill="#6e40fc"/>
            <path id="Trazado_820287" data-name="Trazado 820287" d="M24.726,210.162a3.449,3.449,0,0,0,1.609,2.672l29.987,17.313c.888.513,1.609.149,1.609-.814a3.452,3.452,0,0,0-1.609-2.672L26.335,209.349c-.889-.513-1.609-.149-1.609.814" transform="translate(-6.352 -53.718)" fill="#263238"/>
            <path id="Trazado_820288" data-name="Trazado 820288" d="M26.335,209.348,36.8,215.39v3.485l-10.465-6.042a3.449,3.449,0,0,1-1.609-2.671c0-.962.72-1.326,1.609-.814" transform="translate(-6.352 -53.718)" fill="#6e40fc"/>
            <path id="Trazado_820289" data-name="Trazado 820289" d="M22.272,225.769l36.024,20.8a3.553,3.553,0,0,1,1.609,2.787v13.713c0,1.025-.721,1.442-1.609.929L22.273,243.2a3.56,3.56,0,0,1-1.61-2.787V226.7c0-1.026.72-1.442,1.609-.929" transform="translate(-5.308 -57.94)" fill="#455a64"/>
            <path id="Trazado_820290" data-name="Trazado 820290" d="M24.726,233.614a3.449,3.449,0,0,0,1.609,2.672L56.322,253.6c.888.513,1.609.149,1.609-.814a3.452,3.452,0,0,0-1.609-2.672L26.335,232.8c-.889-.513-1.609-.149-1.609.814" transform="translate(-6.352 -59.743)" fill="#6e40fc"/>
            <path id="Trazado_820291" data-name="Trazado 820291" d="M24.726,243a3.449,3.449,0,0,0,1.609,2.672L56.322,262.98c.888.513,1.609.149,1.609-.814a3.452,3.452,0,0,0-1.609-2.672L26.335,242.182c-.889-.513-1.609-.149-1.609.814" transform="translate(-6.352 -62.152)" fill="#263238"/>
            <path id="Trazado_820292" data-name="Trazado 820292" d="M26.335,242.182l16.5,9.528v3.484l-16.5-9.528A3.449,3.449,0,0,1,24.726,243c0-.962.72-1.326,1.609-.814" transform="translate(-6.352 -62.153)" fill="#6e40fc"/>
            <path id="Trazado_820293" data-name="Trazado 820293" d="M22.272,258.6,58.3,279.4a3.553,3.553,0,0,1,1.609,2.787V295.9c0,1.026-.721,1.442-1.609.929l-36.023-20.8a3.56,3.56,0,0,1-1.61-2.787V259.531c0-1.026.72-1.442,1.609-.929" transform="translate(-5.308 -66.374)" fill="#455a64"/>
            <path id="Trazado_820294" data-name="Trazado 820294" d="M24.726,266.447a3.449,3.449,0,0,0,1.609,2.672l29.987,17.313c.888.513,1.609.149,1.609-.814a3.452,3.452,0,0,0-1.609-2.672L26.335,265.634c-.889-.513-1.609-.149-1.609.814" transform="translate(-6.352 -68.177)" fill="#6e40fc"/>
            <path id="Trazado_820295" data-name="Trazado 820295" d="M24.726,275.828a3.449,3.449,0,0,0,1.609,2.672l29.987,17.313c.888.513,1.609.149,1.609-.814a3.452,3.452,0,0,0-1.609-2.672L26.335,275.015c-.889-.514-1.609-.149-1.609.814" transform="translate(-6.352 -70.587)" fill="#263238"/>
            <path id="Trazado_820296" data-name="Trazado 820296" d="M26.335,275.015l22.54,13.013v3.485L26.335,278.5a3.449,3.449,0,0,1-1.609-2.672c0-.962.72-1.326,1.609-.814" transform="translate(-6.352 -70.587)" fill="#6e40fc"/>
            <path id="Trazado_820297" data-name="Trazado 820297" d="M90.706,157.63c1.667-.967,3.019-.086,3.019,1.966v79.715a6.92,6.92,0,0,1-3.019,5.466c-1.668.967-3.019.086-3.019-1.966V163.1a6.919,6.919,0,0,1,3.019-5.466" transform="translate(-22.525 -40.392)" fill="#37474f"/>
            <path id="Trazado_820298" data-name="Trazado 820298" d="M91.228,243.677a3.45,3.45,0,0,0,1.509-2.729V161.01c0-1.026-.676-1.468-1.51-.986a3.451,3.451,0,0,0-1.509,2.729v79.938c0,1.025.675,1.468,1.509.986" transform="translate(-23.047 -41.057)" fill="#263238"/>
            <path id="Trazado_820299" data-name="Trazado 820299" d="M91.228,258.507a3.45,3.45,0,0,0,1.509-2.729V217.559L89.718,219.3v38.219c0,1.026.675,1.468,1.509.986" transform="translate(-23.047 -55.887)" fill="#6e40fc"/>
            <path id="Trazado_820300" data-name="Trazado 820300" d="M102.893,150.594c1.667-.967,3.019-.086,3.019,1.966v79.715a6.92,6.92,0,0,1-3.019,5.466c-1.668.967-3.019.086-3.019-1.966V156.06a6.92,6.92,0,0,1,3.019-5.466" transform="translate(-25.656 -38.584)" fill="#37474f"/>
            <path id="Trazado_820301" data-name="Trazado 820301" d="M103.414,236.642a3.45,3.45,0,0,0,1.509-2.729V153.976c0-1.026-.675-1.468-1.509-.987a3.45,3.45,0,0,0-1.509,2.729v79.938c0,1.025.675,1.468,1.509.986" transform="translate(-26.177 -39.25)" fill="#6e40fc"/>
            <path id="Trazado_820302" data-name="Trazado 820302" d="M115.079,143.559c1.667-.967,3.019-.086,3.019,1.966V225.24a6.919,6.919,0,0,1-3.019,5.466c-1.668.967-3.019.086-3.019-1.966V149.025a6.92,6.92,0,0,1,3.019-5.466" transform="translate(-28.786 -36.777)" fill="#37474f"/>
            <path id="Trazado_820303" data-name="Trazado 820303" d="M115.6,229.607a3.45,3.45,0,0,0,1.509-2.729V146.94c0-1.025-.676-1.468-1.51-.986a3.451,3.451,0,0,0-1.509,2.729v79.939c0,1.025.675,1.468,1.509.986" transform="translate(-29.308 -37.443)" fill="#263238"/>
            <path id="Trazado_820304" data-name="Trazado 820304" d="M115.6,236.3a3.45,3.45,0,0,0,1.509-2.729V171.827l-3.019,1.743v61.748c0,1.025.675,1.468,1.509.986" transform="translate(-29.308 -44.139)" fill="#6e40fc"/>
            <path id="Trazado_820305" data-name="Trazado 820305" d="M127.265,136.524c1.667-.967,3.019-.086,3.019,1.966V218.2a6.919,6.919,0,0,1-3.019,5.466c-1.668.967-3.019.086-3.019-1.966V141.99a6.92,6.92,0,0,1,3.019-5.466" transform="translate(-31.917 -34.97)" fill="#37474f"/>
            <path id="Trazado_820306" data-name="Trazado 820306" d="M127.787,222.571a3.45,3.45,0,0,0,1.509-2.729V139.9c0-1.025-.676-1.468-1.51-.986a3.452,3.452,0,0,0-1.509,2.729v79.939c0,1.025.675,1.468,1.509.986" transform="translate(-32.438 -35.635)" fill="#263238"/>
            <path id="Trazado_820307" data-name="Trazado 820307" d="M127.787,245.949a3.45,3.45,0,0,0,1.509-2.729V229.728l-3.019,1.743v13.492c0,1.025.675,1.468,1.509.986" transform="translate(-32.438 -59.013)" fill="#6e40fc"/>
            <path id="Trazado_820308" data-name="Trazado 820308" d="M139.451,129.488c1.667-.967,3.019-.086,3.019,1.966v79.715a6.919,6.919,0,0,1-3.019,5.466c-1.668.967-3.018.086-3.018-1.966V134.954a6.919,6.919,0,0,1,3.019-5.466" transform="translate(-35.047 -33.162)" fill="#37474f"/>
            <path id="Trazado_820309" data-name="Trazado 820309" d="M139.973,215.536a3.45,3.45,0,0,0,1.509-2.729V132.869c0-1.025-.676-1.468-1.51-.986a3.451,3.451,0,0,0-1.509,2.729V214.55c0,1.026.675,1.468,1.509.986" transform="translate(-35.569 -33.828)" fill="#263238"/>
            <path id="Trazado_820310" data-name="Trazado 820310" d="M139.973,229.161a3.45,3.45,0,0,0,1.509-2.729V184.726l-3.019,1.743v41.706c0,1.026.675,1.468,1.509.986" transform="translate(-35.569 -47.453)" fill="#6e40fc"/>
            <path id="Trazado_820311" data-name="Trazado 820311" d="M88.975,280.108,128.661,257.2c.71-.411,1.287-.078,1.287.743v14.455a2.845,2.845,0,0,1-1.287,2.229L88.975,297.535c-.71.411-1.287.078-1.287-.743V282.337a2.845,2.845,0,0,1,1.287-2.229" transform="translate(-22.526 -66.024)" fill="#37474f"/>
            <path id="Trazado_820312" data-name="Trazado 820312" d="M91.615,286.223c0,.962.721,1.326,1.61.814l33.2-19.177a3.452,3.452,0,0,0,1.61-2.672c0-.962-.72-1.326-1.609-.814L93.223,283.552a3.45,3.45,0,0,0-1.608,2.672" transform="translate(-23.534 -67.854)" fill="#263238"/>
            <path id="Trazado_820313" data-name="Trazado 820313" d="M91.615,288.111c0,.962.721,1.326,1.609.814l24.148-13.949V271.49l-24.15,13.949a3.45,3.45,0,0,0-1.608,2.672" transform="translate(-23.534 -69.741)" fill="#6e40fc"/>
            <path id="Trazado_820314" data-name="Trazado 820314" d="M91.615,295.605c0,.962.721,1.326,1.61.814l33.2-19.177a3.452,3.452,0,0,0,1.61-2.672c0-.962-.72-1.326-1.609-.814L93.223,292.934a3.45,3.45,0,0,0-1.608,2.672" transform="translate(-23.534 -70.264)" fill="#263238"/>
            <path id="Trazado_820315" data-name="Trazado 820315" d="M91.615,300.507c0,.962.721,1.326,1.61.814l9.056-5.229v-3.485l-9.058,5.229a3.45,3.45,0,0,0-1.608,2.672" transform="translate(-23.534 -75.166)" fill="#6e40fc"/>
            <path id="Trazado_820316" data-name="Trazado 820316" d="M113.888,96.352l-48.1-27.77a3.558,3.558,0,0,0-3.218,0l-48.1,27.77a.981.981,0,0,0,0,1.858l48.1,27.77a3.558,3.558,0,0,0,3.218,0l48.1-27.77a.981.981,0,0,0,0-1.858" transform="translate(-3.547 -17.519)" fill="#455a64"/>
            <path id="Trazado_820317" data-name="Trazado 820317" d="M67.063,120.509,29.752,98.967a2.135,2.135,0,0,1-.965-1.672V96.04a2.134,2.134,0,0,1,.965-1.672L67.063,72.826a2.13,2.13,0,0,1,1.931,0l37.311,21.541a2.133,2.133,0,0,1,.965,1.672V97.3a2.133,2.133,0,0,1-.965,1.672L68.994,120.509a2.135,2.135,0,0,1-1.931,0" transform="translate(-7.395 -18.648)" fill="#263238"/>
            <path id="Trazado_820318" data-name="Trazado 820318" d="M29.949,95.739l37.31,21.541a2.135,2.135,0,0,0,1.931,0L106.5,95.739a.588.588,0,0,0,0-1.115l-37.31-20.8a2.136,2.136,0,0,0-1.931,0l-37.31,20.8a.588.588,0,0,0,0,1.115" transform="translate(-7.59 -18.905)" fill="#455a64"/>
            <path id="Trazado_820319" data-name="Trazado 820319" d="M68.03,124.822v3.485a1.955,1.955,0,0,1-.966-.23L29.752,106.534a2.123,2.123,0,0,1-.966-1.672v-1.256a2.146,2.146,0,0,1,.788-1.546c-.349.3-.29.721.178.988l37.312,21.543a1.955,1.955,0,0,0,.966.23" transform="translate(-7.395 -26.217)" fill="#37474f"/>
            <path id="Trazado_820320" data-name="Trazado 820320" d="M71.237,108.871,46,94.3a2.134,2.134,0,0,1-.966-1.672V91.372A2.135,2.135,0,0,1,46,89.7l16.18-9.341a6.4,6.4,0,0,0,1.63-1.453L71.539,68.5a1.281,1.281,0,0,1,1.63-.338L98.4,82.729A2.133,2.133,0,0,1,99.37,84.4v8.228A2.133,2.133,0,0,1,98.4,94.3l-25.236,14.57a2.134,2.134,0,0,1-1.931,0" transform="translate(-11.569 -17.468)" fill="#263238"/>
            <path id="Trazado_820321" data-name="Trazado 820321" d="M73.363,105.386l16.181-9.342a5.661,5.661,0,0,0,.844-.627,5.739,5.739,0,0,0,.785-.826L98.9,84.182a.969.969,0,0,0-.3-1.452L73.364,68.16a1.282,1.282,0,0,0-1.63.337l-7.728,10.41a6.072,6.072,0,0,1-1.5,1.511L46.2,89.7a.588.588,0,0,0,0,1.115l25.237,14.57a2.135,2.135,0,0,0,1.931,0" transform="translate(-11.764 -17.468)" fill="#455a64"/>
            <path id="Trazado_820322" data-name="Trazado 820322" d="M104.622,82.729,79.386,68.159a1.282,1.282,0,0,0-1.63.338l-7.728,10.41a5.664,5.664,0,0,1-.79.823S96.4,95.422,96.409,95.414a5.747,5.747,0,0,0,.787-.823l7.728-10.41a.97.97,0,0,0-.3-1.452" transform="translate(-17.786 -17.468)" fill="#37474f"/>
            <path id="Trazado_820323" data-name="Trazado 820323" d="M54.413,97.453a2.5,2.5,0,0,1,2.264,0,.69.69,0,0,1,0,1.307,2.5,2.5,0,0,1-2.264,0,.69.69,0,0,1,0-1.307" transform="translate(-13.857 -24.964)" fill="#6e40fc"/>
            <path id="Trazado_820324" data-name="Trazado 820324" d="M60.5,100.971a2.5,2.5,0,0,1,2.264,0,.69.69,0,0,1,0,1.307,2.5,2.5,0,0,1-2.264,0,.69.69,0,0,1,0-1.307" transform="translate(-15.422 -25.868)" fill="#6e40fc"/>
            <path id="Trazado_820325" data-name="Trazado 820325" d="M66.6,104.488a2.5,2.5,0,0,1,2.264,0,.69.69,0,0,1,0,1.307,2.5,2.5,0,0,1-2.264,0,.69.69,0,0,1,0-1.307" transform="translate(-16.987 -26.772)" fill="#263238"/>
            <path id="Trazado_820326" data-name="Trazado 820326" d="M72.691,108.006a2.5,2.5,0,0,1,2.264,0,.69.69,0,0,1,0,1.307,2.5,2.5,0,0,1-2.264,0,.69.69,0,0,1,0-1.307" transform="translate(-18.553 -27.675)" fill="#263238"/>
            <path id="Trazado_820327" data-name="Trazado 820327" d="M58.982,94.815a2.5,2.5,0,0,1,2.264,0,.69.69,0,0,1,0,1.307,2.5,2.5,0,0,1-2.264,0,.69.69,0,0,1,0-1.307" transform="translate(-15.031 -24.287)" fill="#6e40fc"/>
            <path id="Trazado_820328" data-name="Trazado 820328" d="M65.075,98.332a2.5,2.5,0,0,1,2.264,0,.69.69,0,0,1,0,1.307,2.5,2.5,0,0,1-2.264,0,.69.69,0,0,1,0-1.307" transform="translate(-16.596 -25.19)" fill="#263238"/>
            <path id="Trazado_820329" data-name="Trazado 820329" d="M71.168,101.85a2.5,2.5,0,0,1,2.264,0,.69.69,0,0,1,0,1.307,2.5,2.5,0,0,1-2.264,0,.69.69,0,0,1,0-1.307" transform="translate(-18.161 -26.094)" fill="#6e40fc"/>
            <path id="Trazado_820330" data-name="Trazado 820330" d="M77.261,105.368a2.5,2.5,0,0,1,2.264,0,.69.69,0,0,1,0,1.307,2.5,2.5,0,0,1-2.264,0,.69.69,0,0,1,0-1.307" transform="translate(-19.727 -26.998)" fill="#263238"/>
            <path id="Trazado_820331" data-name="Trazado 820331" d="M63.552,92.176a2.5,2.5,0,0,1,2.264,0,.69.69,0,0,1,0,1.307,2.5,2.5,0,0,1-2.264,0,.69.69,0,0,1,0-1.307" transform="translate(-16.205 -23.609)" fill="#263238"/>
            <path id="Trazado_820332" data-name="Trazado 820332" d="M69.644,95.694a2.5,2.5,0,0,1,2.264,0,.69.69,0,0,1,0,1.307,2.5,2.5,0,0,1-2.264,0,.69.69,0,0,1,0-1.307" transform="translate(-17.77 -24.513)" fill="#6e40fc"/>
            <path id="Trazado_820333" data-name="Trazado 820333" d="M75.737,99.212a2.5,2.5,0,0,1,2.264,0,.69.69,0,0,1,0,1.307,2.5,2.5,0,0,1-2.264,0,.69.69,0,0,1,0-1.307" transform="translate(-19.335 -25.416)" fill="#263238"/>
            <path id="Trazado_820334" data-name="Trazado 820334" d="M78.818,111.454a2.5,2.5,0,0,1,2.264,0,.69.69,0,0,1,0,1.307,2.5,2.5,0,0,1-2.264,0,.69.69,0,0,1,0-1.307" transform="translate(-20.127 -28.561)" fill="#6e40fc"/>
            <path id="Trazado_820335" data-name="Trazado 820335" d="M83.388,108.815a2.5,2.5,0,0,1,2.264,0,.69.69,0,0,1,0,1.307,2.5,2.5,0,0,1-2.264,0,.69.69,0,0,1,0-1.307" transform="translate(-21.3 -27.883)" fill="#263238"/>
            <path id="Trazado_820336" data-name="Trazado 820336" d="M81.83,102.732a2.5,2.5,0,0,1,2.264,0,.69.69,0,0,1,0,1.307,2.5,2.5,0,0,1-2.264,0,.69.69,0,0,1,0-1.307" transform="translate(-20.9 -26.321)" fill="#263238"/>
            <path id="Trazado_820337" data-name="Trazado 820337" d="M68.121,89.54a2.5,2.5,0,0,1,2.264,0,.69.69,0,0,1,0,1.307,2.5,2.5,0,0,1-2.264,0,.69.69,0,0,1,0-1.307" transform="translate(-17.379 -22.932)" fill="#6e40fc"/>
            <path id="Trazado_820338" data-name="Trazado 820338" d="M74.214,93.058a2.5,2.5,0,0,1,2.264,0,.69.69,0,0,1,0,1.307,2.5,2.5,0,0,1-2.264,0,.69.69,0,0,1,0-1.307" transform="translate(-18.944 -23.835)" fill="#263238"/>
            <path id="Trazado_820339" data-name="Trazado 820339" d="M80.307,96.576a2.5,2.5,0,0,1,2.264,0,.69.69,0,0,1,0,1.307,2.5,2.5,0,0,1-2.264,0,.69.69,0,0,1,0-1.307" transform="translate(-20.509 -24.739)" fill="#6e40fc"/>
            <path id="Trazado_820340" data-name="Trazado 820340" d="M86.4,100.094a2.5,2.5,0,0,1,2.264,0,.69.69,0,0,1,0,1.307,2.5,2.5,0,0,1-2.264,0,.69.69,0,0,1,0-1.307" transform="translate(-22.074 -25.643)" fill="#263238"/>
            <path id="Trazado_820341" data-name="Trazado 820341" d="M87.957,106.179a2.5,2.5,0,0,1,2.264,0,.69.69,0,0,1,0,1.307,2.5,2.5,0,0,1-2.264,0,.69.69,0,0,1,0-1.307" transform="translate(-22.474 -27.206)" fill="#6e40fc"/>
            <path id="Trazado_820342" data-name="Trazado 820342" d="M92.527,103.541a2.5,2.5,0,0,1,2.264,0,.69.69,0,0,1,0,1.307,2.5,2.5,0,0,1-2.264,0,.69.69,0,0,1,0-1.307" transform="translate(-23.648 -26.528)" fill="#263238"/>
            <path id="Trazado_820343" data-name="Trazado 820343" d="M72.256,113.161v3.478a2,2,0,0,1-1.018-.223L46,101.844a2.123,2.123,0,0,1-.966-1.672V98.916a2.146,2.146,0,0,1,.788-1.546c-.349.3-.29.721.178.988l25.236,14.573a2,2,0,0,0,1.018.23" transform="translate(-11.569 -25.013)" fill="#37474f"/>
            <path id="Trazado_820344" data-name="Trazado 820344" d="M74.746,81.967l.022-.03a.852.852,0,0,1,1.085-.226L97.815,94.39a.645.645,0,0,1,.2.968l-.023.03a.855.855,0,0,1-1.087.224L74.948,82.936a.649.649,0,0,1-.2-.969" transform="translate(-19.166 -20.963)" fill="#263238"/>
            <path id="Trazado_820345" data-name="Trazado 820345" d="M74.746,81.967l.022-.03a.852.852,0,0,1,1.085-.226l16.328,9.426-.911,1.222L74.948,82.936a.649.649,0,0,1-.2-.969" transform="translate(-19.166 -20.963)" fill="#6e40fc"/>
            <path id="Trazado_820346" data-name="Trazado 820346" d="M77.189,78.688l.022-.03a.852.852,0,0,1,1.085-.226l21.962,12.68a.646.646,0,0,1,.2.968l-.023.03a.855.855,0,0,1-1.087.224L77.391,79.657a.648.648,0,0,1-.2-.969" transform="translate(-19.793 -20.12)" fill="#263238"/>
            <path id="Trazado_820347" data-name="Trazado 820347" d="M77.189,78.688l.022-.03a.852.852,0,0,1,1.085-.226l5.459,3.15L82.844,82.8l-5.453-3.147a.648.648,0,0,1-.2-.969" transform="translate(-19.793 -20.12)" fill="#6e40fc"/>
            <path id="Trazado_820348" data-name="Trazado 820348" d="M79.632,75.409l.022-.03a.852.852,0,0,1,1.085-.226L102.7,87.832a.645.645,0,0,1,.2.968l-.023.03a.855.855,0,0,1-1.087.224L79.834,76.378a.648.648,0,0,1-.2-.969" transform="translate(-20.421 -19.278)" fill="#263238"/>
            <path id="Trazado_820349" data-name="Trazado 820349" d="M79.632,75.408l.022-.03a.853.853,0,0,1,1.086-.227l11.439,6.583-.911,1.222-11.434-6.58a.648.648,0,0,1-.2-.968" transform="translate(-20.421 -19.278)" fill="#6e40fc"/>
            <path id="Trazado_820350" data-name="Trazado 820350" d="M82.075,72.13l.022-.03a.852.852,0,0,1,1.085-.226l21.962,12.68a.646.646,0,0,1,.2.968l-.023.03a.855.855,0,0,1-1.087.224L82.277,73.1a.648.648,0,0,1-.2-.969" transform="translate(-21.048 -18.436)" fill="#263238"/>
            <path id="Trazado_820351" data-name="Trazado 820351" d="M82.075,72.13l.022-.03a.852.852,0,0,1,1.085-.226l19.936,11.509-.911,1.222L82.277,73.1a.648.648,0,0,1-.2-.969" transform="translate(-21.048 -18.436)" fill="#6e40fc"/>
            <path id="Trazado_820352" data-name="Trazado 820352" d="M219.133,263.577v40.7a1.067,1.067,0,0,0,.483.836l39.011,22.495a1.067,1.067,0,0,0,.965,0l1.3-.749a1.068,1.068,0,0,0,.483-.836v-40.7a.558.558,0,0,0-.557-.557L219.69,263.02a.558.558,0,0,0-.557.557" transform="translate(-56.291 -67.565)" fill="#fafafa"/>
            <path id="Trazado_820353" data-name="Trazado 820353" d="M274.636,292.282h-1.15a.558.558,0,0,0-.557.557v42.005c0,.308.216.432.482.279l1.3-.75a1.067,1.067,0,0,0,.483-.836v-40.7a.558.558,0,0,0-.557-.557" transform="translate(-70.111 -75.082)" fill="#f5f5f5"/>
            <path id="Trazado_820354" data-name="Trazado 820354" d="M323.679,200.821v40.7a1.067,1.067,0,0,0,.483.836l40.55,23.393a1.067,1.067,0,0,0,.965,0l1.3-.75a1.065,1.065,0,0,0,.482-.836v-40.7a.557.557,0,0,0-.557-.557l-42.665-22.644a.558.558,0,0,0-.557.557" transform="translate(-83.147 -51.444)" fill="#e0e0e0"/>
            <path id="Trazado_820355" data-name="Trazado 820355" d="M381.253,230.734H380.1a.558.558,0,0,0-.557.557V273.3c0,.308.216.432.483.279l1.3-.75a1.067,1.067,0,0,0,.483-.836v-40.7a.558.558,0,0,0-.557-.557" transform="translate(-97.499 -59.272)" fill="#ebebeb"/>
            <path id="Trazado_820356" data-name="Trazado 820356" d="M214.015,244.928v-.384a2.135,2.135,0,0,1,.965-1.672l81.834-47.247a2.135,2.135,0,0,1,1.931,0l43.348,25.027a2.132,2.132,0,0,1,.965,1.672v.385a2.134,2.134,0,0,1-.965,1.672l-81.834,47.246a2.125,2.125,0,0,1-1.931,0L214.98,246.6a2.132,2.132,0,0,1-.965-1.672" transform="translate(-54.977 -50.193)" fill="#f5f5f5"/>
            <path id="Trazado_820357" data-name="Trazado 820357" d="M259.294,285.7v2.616a2.039,2.039,0,0,1-.966-.23l-43.346-25.028a2.134,2.134,0,0,1-.966-1.672V261a2.132,2.132,0,0,1,.788-1.546c-.349.3-.29.713.178.988l43.346,25.028a1.956,1.956,0,0,0,.966.23" transform="translate(-54.977 -66.649)" fill="#ebebeb"/>
            <path id="Trazado_820358" data-name="Trazado 820358" d="M215.176,243.986l43.348,25.027a2.13,2.13,0,0,0,1.931,0l81.834-47.247a.588.588,0,0,0,0-1.115l-43.348-25.027a2.135,2.135,0,0,0-1.931,0l-81.834,47.247a.588.588,0,0,0,0,1.115" transform="translate(-55.172 -50.193)" fill="#fafafa"/>
            <path id="Trazado_820359" data-name="Trazado 820359" d="M309.217,232.3l24.507-14.177a1.755,1.755,0,0,1,1.587,0l7.759,4.532a.483.483,0,0,1,0,.916l-24.507,14.177a1.754,1.754,0,0,1-1.586,0l-7.759-4.532a.483.483,0,0,1,0-.916" transform="translate(-79.348 -55.984)" fill="#ebebeb"/>
            <path id="Trazado_820360" data-name="Trazado 820360" d="M308.625,220.239l-.022-.012-2.6-1.5a.393.393,0,0,1,0-.744l20.364-11.76a.392.392,0,0,0,0-.743l-.207-.12a1.423,1.423,0,0,0-1.287,0l-19.79,11.425c-.355.205-.685.223-.7.036a1.379,1.379,0,0,1,.021-.338l1.122-5.81a1.109,1.109,0,0,0-.5-1.1l-.2-.117a.5.5,0,0,0-.785.361l-1.295,6.746a2.252,2.252,0,0,0-.012.748,1.083,1.083,0,0,1-.441,1.086L289.94,225.53a.392.392,0,0,0,0,.743l.211.121a1.418,1.418,0,0,0,1.287,0l11.805-6.817a2.821,2.821,0,0,1,.694-.336.376.376,0,0,0,.051.034L308,221.595a1.427,1.427,0,0,0,1.288,0c1.761-1.013,6.639-3.823,8.4-4.837.355-.205.473-.467.261-.587a1.367,1.367,0,0,0-1.054.107l-7.581,3.649a7.345,7.345,0,0,1-.692.311" transform="translate(-74.412 -52.714)" fill="#ebebeb"/>
            <path id="Trazado_820361" data-name="Trazado 820361" d="M335.285,215.6l7.341,4.238a1.49,1.49,0,0,1,0,2.634L318.919,236.16a1.754,1.754,0,0,1-1.586,0l-7.34-4.238a1.49,1.49,0,0,1,0-2.634L333.7,215.6a1.754,1.754,0,0,1,1.586,0" transform="translate(-79.428 -55.336)" fill="#37474f"/>
            <path id="Trazado_820362" data-name="Trazado 820362" d="M318.126,240.994a1.623,1.623,0,0,1-.793-.189l-7.34-4.238a1.49,1.49,0,0,1,0-2.634l.763-.441h7.37Z" transform="translate(-79.428 -59.98)" fill="#263238"/>
            <path id="Trazado_820363" data-name="Trazado 820363" d="M310.148,229.287,333.854,215.6a1.754,1.754,0,0,1,1.586,0l7.341,4.239a.483.483,0,0,1,0,.916l-23.705,13.687a1.754,1.754,0,0,1-1.586,0l-7.341-4.239a.483.483,0,0,1,0-.916" transform="translate(-79.587 -55.335)" fill="#455a64"/>
            <path id="Trazado_820364" data-name="Trazado 820364" d="M332.214,222.2l.746-.431c.032-.019.03-.049,0-.069l-.863-.5a.129.129,0,0,0-.119,0l-.747.43c-.031.019-.03.049,0,.069l.863.5a.136.136,0,0,0,.12,0m-1.473-1.712-.747.43c-.032.019-.03.049,0,.069l.863.5a.134.134,0,0,0,.119,0l.747-.431c.031-.019.03-.049,0-.069l-.863-.5a.129.129,0,0,0-.119,0m-2.411,1.392-1.263.729c-.032.019-.03.05,0,.069l.864.5a.132.132,0,0,0,.119,0l1.263-.729c.032-.019.03-.05,0-.069l-.863-.5a.132.132,0,0,0-.119,0m1.32-.762-.746.431c-.032.019-.03.049,0,.069l.863.5a.132.132,0,0,0,.119,0l.747-.431c.031-.018.03-.049,0-.068l-.863-.5a.133.133,0,0,0-.12,0m-2.928,1.691-.746.431c-.032.019-.03.049,0,.068l.863.5a.129.129,0,0,0,.119,0l.747-.431c.031-.018.029-.049,0-.068l-.863-.5a.134.134,0,0,0-.119,0m-1.091.63-.746.431c-.032.018-.03.049,0,.068l.864.5a.132.132,0,0,0,.119,0l.746-.431c.032-.019.03-.049,0-.069l-.864-.5a.132.132,0,0,0-.119,0m3.4,2.026.746-.431c.032-.019.03-.049,0-.069l-.863-.5a.132.132,0,0,0-.119,0l-.747.431c-.032.019-.03.049,0,.069l.863.5a.133.133,0,0,0,.12,0m-1.091.629.746-.431c.032-.018.03-.049,0-.068l-.863-.5a.132.132,0,0,0-.119,0l-.747.431c-.031.018-.03.049,0,.068l.863.5a.133.133,0,0,0,.12,0m-1.092.63.747-.431c.032-.019.03-.049,0-.069l-.863-.5a.132.132,0,0,0-.119,0l-.747.431c-.032.019-.03.049,0,.069l.863.5a.132.132,0,0,0,.119,0m-1.091.629.747-.431c.032-.018.03-.049,0-.068l-.863-.5a.132.132,0,0,0-.119,0l-.747.431c-.031.018-.03.049,0,.068l.863.5a.132.132,0,0,0,.119,0m5.371-4.524.746-.431c.032-.018.03-.049,0-.068l-.863-.5a.134.134,0,0,0-.119,0l-.747.431c-.031.019-.03.049,0,.068l.863.5a.131.131,0,0,0,.12,0m-1.006,2,1.665-.962c.032-.018.03-.049,0-.068l-2.1-1.211a.132.132,0,0,0-.119,0l-.861.5c-.032.019-.03.049,0,.069l1.11.641c.033.019.036.051,0,.068l-.689.4c-.032.018-.03.049,0,.068l.863.5a.133.133,0,0,0,.12,0m-5.577-.767-.746.431c-.032.019-.03.049,0,.069l.863.5a.132.132,0,0,0,.119,0l.746-.431c.032-.019.03-.049,0-.069l-.863-.5a.134.134,0,0,0-.119,0m-1.091.63-.746.431c-.032.018-.03.049,0,.068l.863.5a.132.132,0,0,0,.119,0l.746-.431c.032-.019.03-.049,0-.068l-.863-.5a.132.132,0,0,0-.119,0M318,231.758a.133.133,0,0,0,.12,0l.746-.431c.032-.018.03-.049,0-.068l-.863-.5a.132.132,0,0,0-.119,0l-.747.431c-.031.018-.03.049,0,.068Zm-3.276-2.024-.746.431c-.032.019-.03.049,0,.069l.864.5a.129.129,0,0,0,.119,0l.746-.43c.032-.019.03-.05,0-.069l-.864-.5a.132.132,0,0,0-.119,0m1.756,1.478a.132.132,0,0,0,.119,0l.746-.431c.032-.018.03-.049,0-.068l-.863-.5a.132.132,0,0,0-.119,0l-.746.431c-.032.018-.03.049,0,.068Zm3.446.929.747-.431c.031-.019.03-.049,0-.068l-.863-.5a.133.133,0,0,0-.12,0l-.746.431c-.032.018-.03.049,0,.068l.863.5a.132.132,0,0,0,.119,0m-1.21.627a.129.129,0,0,0,.119,0l.747-.431c.031-.018.03-.048,0-.068l-.863-.5a.133.133,0,0,0-.12,0l-.746.431c-.032.019-.03.049,0,.069Zm-2.9-3.664-.746.431c-.032.018-.03.049,0,.068l.863.5a.132.132,0,0,0,.119,0l.746-.431c.032-.019.03-.049,0-.068l-.863-.5a.129.129,0,0,0-.119,0m5.454-3.149-.746.431c-.032.018-.03.049,0,.068l.863.5a.132.132,0,0,0,.119,0l.746-.431c.032-.018.03-.049,0-.068l-.863-.5a.132.132,0,0,0-.119,0m-4.364,2.519-.746.431c-.032.019-.03.049,0,.068l.863.5a.129.129,0,0,0,.119,0l.746-.431c.032-.018.03-.049,0-.068l-.864-.5a.132.132,0,0,0-.119,0m5.454-3.149-.746.431c-.032.019-.03.049,0,.069l.864.5a.132.132,0,0,0,.119,0l.746-.431c.032-.019.03-.049,0-.069l-.864-.5a.132.132,0,0,0-.119,0m-2.182,1.26-.746.431c-.032.019-.03.049,0,.069l.863.5a.132.132,0,0,0,.119,0l.746-.431c.032-.019.03-.049,0-.069l-.864-.5a.132.132,0,0,0-.119,0m-1.091.63-.746.431c-.032.019-.03.049,0,.068l.863.5a.132.132,0,0,0,.119,0l.747-.431c.031-.018.03-.049,0-.068l-.863-.5a.132.132,0,0,0-.119,0m-1.091.63-.746.43c-.032.019-.03.049,0,.069l.864.5a.134.134,0,0,0,.119,0l.746-.431c.032-.019.03-.049,0-.069l-.864-.5a.129.129,0,0,0-.119,0m5.576.766.747-.431c.032-.018.03-.049,0-.068l-.863-.5a.132.132,0,0,0-.119,0l-.747.431c-.032.019-.03.049,0,.068l.863.5a.129.129,0,0,0,.119,0m9.582-9.518-.747.431c-.031.019-.03.049,0,.068l.863.5a.129.129,0,0,0,.119,0l.747-.431c.032-.018.03-.049,0-.068l-.863-.5a.132.132,0,0,0-.119,0m-1.321.762-.746.431c-.032.019-.03.049,0,.068l.863.5a.132.132,0,0,0,.119,0l.747-.431c.031-.018.03-.049,0-.068l-.863-.5a.133.133,0,0,0-.12,0m2.411-1.392-.746.43c-.032.019-.03.049,0,.069l.863.5a.132.132,0,0,0,.119,0l.747-.431c.031-.019.03-.049,0-.069l-.863-.5a.131.131,0,0,0-.12,0m-5.646,5.822.746-.431c.032-.018.03-.049,0-.068l-.863-.5a.132.132,0,0,0-.119,0l-.746.431c-.032.018-.03.049,0,.068l.864.5a.132.132,0,0,0,.119,0m6.857-6.45a.132.132,0,0,0-.119,0l-.747.431c-.031.018-.03.049,0,.068l.863.5a.132.132,0,0,0,.119,0l.747-.431c.032-.018.03-.049,0-.068Zm-10.792,10.146.747-.431c.032-.019.03-.049,0-.069l-.863-.5a.132.132,0,0,0-.119,0l-.747.431c-.032.019-.03.049,0,.069l.863.5a.132.132,0,0,0,.119,0m13.378-7.724.746-.431c.032-.018.03-.049,0-.068l-.864-.5a.132.132,0,0,0-.119,0l-.747.431c-.031.018-.03.049,0,.068l.863.5a.132.132,0,0,0,.119,0m-2.324-.082.746-.431c.032-.019.03-.049,0-.069l-.863-.5a.132.132,0,0,0-.119,0l-.747.431c-.031.019-.03.049,0,.069l.863.5a.132.132,0,0,0,.119,0m.97-1.628a.132.132,0,0,0-.119,0l-.747.431c-.031.018-.03.049,0,.068l.863.5a.133.133,0,0,0,.12,0l.746-.431c.032-.019.03-.049,0-.068Zm.23-.132,2.1,1.21a.132.132,0,0,0,.119,0l.746-.431c.032-.019.03-.049,0-.069l-2.1-1.21a.132.132,0,0,0-.119,0l-.747.431c-.031.019-.03.049,0,.069m-2.53,1.39-.747.431c-.031.018-.03.049,0,.068l.863.5a.133.133,0,0,0,.12,0l.746-.431c.032-.018.03-.049,0-.068l-.863-.5a.132.132,0,0,0-.119,0m-8.211,4.74-.746.431c-.032.018-.03.049,0,.068l.863.5a.132.132,0,0,0,.119,0l.746-.431c.032-.018.03-.049,0-.068l-.863-.5a.132.132,0,0,0-.119,0m10.656-3.661a.132.132,0,0,0,.119,0l.746-.431c.032-.019.03-.049,0-.069l-.863-.5a.132.132,0,0,0-.119,0l-.746.431c-.032.019-.03.049,0,.069Zm-9.565,3.03-.746.431c-.032.019-.03.049,0,.069l.863.5a.132.132,0,0,0,.119,0l.747-.431c.031-.019.03-.049,0-.069l-.864-.5a.132.132,0,0,0-.119,0m-8.177,7.213a.129.129,0,0,0,.119,0l.747-.43c.032-.019.03-.049,0-.069l-.863-.5a.132.132,0,0,0-.119,0l-.747.431c-.032.019-.03.049,0,.069Zm-1.641-1.544-.746.431c-.032.019-.03.049,0,.069l.864.5a.129.129,0,0,0,.119,0l.746-.43c.032-.019.03-.049,0-.069l-.864-.5a.132.132,0,0,0-.119,0m2.851.917.746-.431c.032-.019.03-.049,0-.068l-.863-.5a.132.132,0,0,0-.119,0l-.747.431c-.031.018-.03.049,0,.068l.863.5a.133.133,0,0,0,.12,0m1.09-.63.747-.43c.032-.019.03-.05,0-.069l-.863-.5a.134.134,0,0,0-.119,0l-.747.431c-.032.019-.03.049,0,.069l.863.5a.129.129,0,0,0,.119,0m1.092-.629.746-.431c.032-.019.03-.049,0-.069l-.863-.5a.129.129,0,0,0-.119,0l-.747.43c-.032.019-.03.05,0,.069l.863.5a.133.133,0,0,0,.12,0m-3.942-.287-.746.431c-.032.018-.03.049,0,.068l.863.5a.132.132,0,0,0,.119,0l.746-.431c.032-.018.03-.049,0-.068l-.863-.5a.132.132,0,0,0-.119,0m1.091-.63-.746.431c-.032.019-.03.049,0,.069l.863.5a.132.132,0,0,0,.119,0l.747-.431c.031-.019.03-.049,0-.069l-.864-.5a.132.132,0,0,0-.119,0m4.364-2.519-.746.431c-.032.019-.03.049,0,.069l.863.5a.132.132,0,0,0,.119,0l.746-.431c.032-.018.03-.049,0-.068l-.863-.5a.132.132,0,0,0-.119,0m-1.091.629-.746.431c-.032.019-.03.05,0,.069l.864.5a.132.132,0,0,0,.119,0l.746-.431c.032-.019.03-.049,0-.069l-.864-.5a.132.132,0,0,0-.119,0m2.182-1.26-.746.431c-.032.019-.03.049,0,.069l.864.5a.132.132,0,0,0,.119,0l.746-.431c.032-.019.03-.049,0-.069l-.864-.5a.132.132,0,0,0-.119,0m-4.364,2.52-.746.431c-.032.018-.03.049,0,.068l.864.5a.132.132,0,0,0,.119,0l.746-.431c.032-.019.03-.049,0-.068l-.863-.5a.132.132,0,0,0-.119,0m1.091-.63-.746.431c-.032.019-.03.049,0,.069l.863.5a.129.129,0,0,0,.119,0l.746-.431c.032-.018.03-.049,0-.068l-.863-.5a.134.134,0,0,0-.119,0m-.8,4.446.747-.431c.031-.018.03-.049,0-.068l-.863-.5a.133.133,0,0,0-.12,0l-.746.431c-.032.019-.03.049,0,.069l.863.5a.132.132,0,0,0,.119,0m-6.4-.646-.863-.5a.132.132,0,0,0-.119,0l-.746.431c-.032.018-.03.049,0,.068l.863.5a.132.132,0,0,0,.119,0l.746-.431c.032-.019.03-.049,0-.068m1.635.479-.864-.5a.132.132,0,0,0-.119,0l-1.148.664c-.032.018-.03.049,0,.068l.863.5a.132.132,0,0,0,.119,0l1.148-.663c.032-.019.03-.049,0-.069m-2.959-1.443-.863-.5a.132.132,0,0,0-.119,0l-.918.531c-.032.019-.03.049,0,.069l.863.5a.13.13,0,0,0,.119,0l.918-.53c.032-.019.03-.049,0-.069m.7-.406a.132.132,0,0,0,.119,0l.746-.431c.032-.018.03-.049,0-.068l-.863-.5a.132.132,0,0,0-.119,0l-.747.431c-.031.019-.03.049,0,.068Zm3.774,2.4-.863-.5a.132.132,0,0,0-.119,0l-1.436.829c-.032.018-.03.049,0,.068l.863.5a.134.134,0,0,0,.119,0l1.436-.829c.032-.019.03-.049,0-.069m.716,1.011-.863-.5a.132.132,0,0,0-.119,0l-.919.53c-.031.019-.03.05,0,.069l.863.5a.135.135,0,0,0,.12,0l.918-.531c.031-.019.03-.049,0-.068m3.62-8.09a.132.132,0,0,0,.119,0l.747-.431c.032-.019.03-.049,0-.069l-.863-.5a.133.133,0,0,0-.12,0l-.746.431c-.031.019-.03.049,0,.069Zm-2.182,1.26a.132.132,0,0,0,.119,0l.747-.431c.032-.019.03-.049,0-.069l-.863-.5a.132.132,0,0,0-.119,0l-.747.431c-.032.019-.03.049,0,.069Zm-4.838,2.793a.132.132,0,0,0,.119,0l.746-.431c.032-.019.03-.049,0-.069l-.863-.5a.132.132,0,0,0-.119,0l-.747.431c-.031.019-.03.049,0,.069Zm5.929-3.423a.132.132,0,0,0,.119,0l.747-.431c.032-.018.03-.049,0-.068l-.863-.5a.132.132,0,0,0-.119,0l-.747.431c-.032.018-.03.049,0,.068Zm-2.182,1.26a.133.133,0,0,0,.12,0l.746-.431c.032-.018.03-.049,0-.068l-.863-.5a.132.132,0,0,0-.119,0l-.747.431c-.032.019-.03.049,0,.069Zm.253,6.281a.132.132,0,0,0-.119,0l-1.149.663c-.031.019-.03.049,0,.069l.863.5a.133.133,0,0,0,.12,0l1.148-.663c.032-.019.03-.049,0-.069Zm-1.818-5.377a.132.132,0,0,0,.119,0l.746-.431c.032-.019.03-.049,0-.069l-.863-.5a.132.132,0,0,0-.119,0l-.747.431c-.031.019-.03.049,0,.069Zm-1.092.63a.133.133,0,0,0,.12,0l.746-.431c.032-.018.03-.049,0-.068l-.863-.5a.132.132,0,0,0-.119,0l-.747.431c-.031.019-.03.049,0,.068Zm23.119-6.922a.134.134,0,0,0-.119,0l-1.837,1.061c-.032.018-.03.049,0,.068l.863.5a.132.132,0,0,0,.119,0l1.838-1.061c.031-.018.03-.048,0-.068Zm-2.411,1.393a.132.132,0,0,0-.119,0l-.746.431c-.032.018-.03.049,0,.068l.863.5a.132.132,0,0,0,.119,0l.747-.431c.031-.019.03-.049,0-.068Zm-14.777,8.176.747-.431c.031-.019.03-.049,0-.069l-.863-.5a.131.131,0,0,0-.12,0l-.746.43c-.032.019-.03.049,0,.069l.863.5a.134.134,0,0,0,.119,0m12.6-6.916a.132.132,0,0,0-.119,0l-.746.431c-.032.018-.03.049,0,.068l.863.5a.132.132,0,0,0,.119,0l.747-.431c.031-.018.03-.049,0-.068Zm5.684-3.282a.129.129,0,0,0-.119,0l-.746.431c-.032.018-.03.049,0,.068l.863.5a.132.132,0,0,0,.119,0l.747-.431c.031-.019.03-.049,0-.069Zm1.954-.132-2.1-1.211a.132.132,0,0,0-.119,0l-.746.431c-.032.019-.03.049,0,.069l2.1,1.21a.129.129,0,0,0,.119,0l.747-.431c.031-.018.03-.049,0-.068m-11.714,5.767a.132.132,0,0,0-.119,0l-.919.531c-.031.018-.03.049,0,.068l.863.5a.133.133,0,0,0,.12,0l.919-.531c.032-.018.03-.049,0-.068Zm2.756-1.591a.133.133,0,0,0-.12,0l-1.148.663c-.032.019-.03.049,0,.069l.863.5a.129.129,0,0,0,.119,0l1.149-.663c.031-.018.03-.049,0-.068Zm-5.283,3.05a.132.132,0,0,0-.119,0l-6.143,3.547c-.032.018-.03.049,0,.068l.863.5a.132.132,0,0,0,.119,0l6.143-3.547c.032-.019.03-.049,0-.068Zm-6.488,3.746a.132.132,0,0,0-.119,0l-.919.531c-.032.019-.03.049,0,.069l.863.5a.132.132,0,0,0,.119,0l.919-.531c.031-.019.03-.049,0-.069Zm7.751-4.475a.132.132,0,0,0-.119,0l-.918.531c-.032.019-.03.049,0,.069l.863.5a.129.129,0,0,0,.119,0l.918-.53c.032-.019.03-.049,0-.069Zm-9.014,5.2a.133.133,0,0,0-.12,0l-.918.53c-.031.019-.03.05,0,.069l.863.5a.136.136,0,0,0,.12,0l.918-.531c.031-.019.03-.049,0-.068Zm11.541-6.663a.131.131,0,0,0-.12,0l-.919.53c-.031.019-.03.049,0,.069l.863.5a.132.132,0,0,0,.119,0l.919-.531c.031-.019.03-.049,0-.068Zm3.9-2.254a.132.132,0,0,0-.119,0l-.746.431c-.032.019-.03.049,0,.069l.863.5a.132.132,0,0,0,.119,0l.747-.431c.031-.019.03-.049,0-.069Zm2.391-1.736.746-.431c.032-.019.03-.05,0-.069l-.863-.5a.132.132,0,0,0-.119,0l-.746.431c-.032.019-.03.049,0,.069l.863.5a.132.132,0,0,0,.119,0m-4.877-.032.746-.431c.032-.018.03-.049,0-.068l-.863-.5a.132.132,0,0,0-.119,0l-.747.431c-.032.018-.03.049,0,.068l.863.5a.133.133,0,0,0,.12,0m-2.472,4.274,2.182-1.26c.032-.018.03-.049,0-.068l-.863-.5a.132.132,0,0,0-.119,0l-2.182,1.26c-.032.019-.03.049,0,.069l.863.5a.129.129,0,0,0,.119,0m6.14-3.615a.132.132,0,0,0,.119,0l.746-.431c.032-.018.03-.049,0-.068l-.863-.5a.132.132,0,0,0-.119,0l-.746.431c-.032.018-.03.049,0,.068Zm-1.114-.71.746-.431c.032-.018.03-.049,0-.068l-.864-.5a.132.132,0,0,0-.119,0l-.746.431c-.032.019-.03.049,0,.068l.864.5a.132.132,0,0,0,.119,0m-6.117,4.955.747-.431c.032-.019.03-.049,0-.068l-.863-.5a.131.131,0,0,0-.12,0l-.746.431c-.032.018-.03.049,0,.068l.863.5a.132.132,0,0,0,.119,0m4.819-2.854a.132.132,0,0,0,.119,0l.746-.431c.032-.019.03-.049,0-.069l-.864-.5a.132.132,0,0,0-.119,0l-.746.431c-.032.019-.03.049,0,.069Zm-10.274,6,.747-.431c.031-.019.03-.049,0-.069l-.863-.5a.133.133,0,0,0-.12,0l-.746.431c-.032.019-.03.049,0,.069l.863.5a.132.132,0,0,0,.119,0m1.091-.63.747-.431c.031-.019.03-.049,0-.068l-.863-.5a.132.132,0,0,0-.119,0l-.747.431c-.032.018-.03.049,0,.068l.863.5a.132.132,0,0,0,.119,0m-2.182,1.26.747-.431c.031-.018.03-.049,0-.068l-.863-.5a.133.133,0,0,0-.12,0l-.746.431c-.032.019-.03.049,0,.068l.863.5a.132.132,0,0,0,.119,0m4.364-2.519.747-.431c.031-.018.03-.049,0-.068l-.863-.5a.133.133,0,0,0-.12,0l-.746.431c-.032.018-.03.049,0,.068l.863.5a.132.132,0,0,0,.119,0m-1.091.629.747-.43c.031-.019.03-.049,0-.069l-.863-.5a.133.133,0,0,0-.12,0l-.746.431c-.032.019-.03.049,0,.069l.863.5a.129.129,0,0,0,.119,0m2.182-1.26.747-.43c.031-.019.03-.05,0-.069l-.863-.5a.133.133,0,0,0-.12,0l-.746.431c-.032.019-.03.049,0,.069l.863.5a.129.129,0,0,0,.119,0m4.991-9.317a.133.133,0,0,0,.12,0l.746-.431c.032-.019.03-.049,0-.069l-.23-.132a.132.132,0,0,0-.119,0l-.747.431c-.031.019-.03.049,0,.069Zm-5.367,3.464a.132.132,0,0,0,.119,0l.746-.431c.032-.019.03-.049,0-.069l-.863-.5a.132.132,0,0,0-.119,0l-.747.431c-.031.019-.03.05,0,.069Zm2.182-1.26a.132.132,0,0,0,.119,0l.746-.431c.032-.019.03-.049,0-.069l-.863-.5a.132.132,0,0,0-.119,0l-.747.431c-.031.019-.03.049,0,.069Zm-3.514,2.029a.132.132,0,0,0,.119,0l.747-.431c.031-.019.03-.049,0-.069l-.863-.5a.129.129,0,0,0-.119,0l-.746.43c-.032.019-.03.049,0,.069Zm2.423-1.4a.133.133,0,0,0,.12,0l.746-.431c.032-.018.03-.049,0-.068l-.863-.5a.132.132,0,0,0-.119,0l-.747.431c-.031.019-.03.049,0,.068Zm-4.6,2.658a.132.132,0,0,0,.119,0l.747-.431c.031-.019.03-.049,0-.069l-.863-.5a.129.129,0,0,0-.119,0l-.746.43c-.032.019-.03.05,0,.069Zm1.091-.629a.132.132,0,0,0,.119,0l.747-.431c.031-.018.03-.049,0-.068l-.863-.5a.133.133,0,0,0-.12,0l-.746.431c-.032.018-.03.049,0,.068Zm5.608-3.6a.133.133,0,0,0,.12,0l.746-.431c.032-.019.03-.049,0-.069l-.23-.132a.132.132,0,0,0-.119,0l-.746.431c-.032.019-.03.049,0,.069Zm3.273-1.889a.133.133,0,0,0,.12,0l.746-.431c.032-.019.03-.049,0-.068l-.23-.133a.132.132,0,0,0-.119,0l-.746.431c-.032.018-.03.049,0,.068Zm1.813,1.046a.132.132,0,0,0,.119,0l.747-.431c.032-.019.03-.049,0-.069l-.863-.5a.133.133,0,0,0-.12,0l-.746.431c-.032.019-.03.049,0,.069Zm2.727,2.768.746-.431c.032-.019.03-.049,0-.068l-.864-.5a.132.132,0,0,0-.119,0l-.746.431c-.032.018-.03.049,0,.068l.864.5a.132.132,0,0,0,.119,0m-6.722-2.555a.133.133,0,0,0,.12,0l.746-.431c.032-.018.03-.049,0-.068l-.23-.133a.132.132,0,0,0-.119,0l-.746.431c-.032.018-.03.049,0,.068Zm-8.881,5.493a.129.129,0,0,0,.119,0l.747-.43c.031-.019.03-.05,0-.069l-.863-.5a.132.132,0,0,0-.119,0l-.746.431c-.032.019-.03.049,0,.068Z" transform="translate(-79.984 -55.617)" fill="#6e40fc"/>
            <path id="Trazado_820365" data-name="Trazado 820365" d="M322.652,213.5l-8.919,5.151-.045-.023-3.366-1.947a1.829,1.829,0,0,1-.825-1.8l1.263-6.539,7.431-6.012,1.486.862-1.256,6.539a1.824,1.824,0,0,0,.817,1.8Z" transform="translate(-79.498 -51.976)" fill="#455a64"/>
            <path id="Trazado_820366" data-name="Trazado 820366" d="M313.153,220.437v1.716l-4.659-2.69a2.74,2.74,0,0,1-1.241-2.712l1.434-7.476,1.494.855-1.263,6.539a1.829,1.829,0,0,0,.825,1.8l3.366,1.947Z" transform="translate(-78.918 -53.759)" fill="#263238"/>
            <path id="Trazado_820367" data-name="Trazado 820367" d="M324.125,217.363l-8.919,5.151v1.72l8.92-5.154Z" transform="translate(-80.971 -55.837)" fill="#37474f"/>
            <path id="Trazado_820368" data-name="Trazado 820368" d="M325.63,158.931a1.7,1.7,0,0,1,.744,1.345V187.65a1.753,1.753,0,0,1-.793,1.373l-34.12,19.7a1.49,1.49,0,0,1-2.281-1.317V180.033a1.755,1.755,0,0,1,.793-1.374l34.12-19.7a1.7,1.7,0,0,1,1.537-.028" transform="translate(-74.285 -40.783)" fill="#455a64"/>
            <path id="Trazado_820369" data-name="Trazado 820369" d="M291.461,215.805a1.49,1.49,0,0,1-2.281-1.317V187.115a1.619,1.619,0,0,1,.232-.781l26.548,15.327Z" transform="translate(-74.285 -47.866)" fill="#263238"/>
            <path id="Trazado_820370" data-name="Trazado 820370" d="M326.888,187.978V160.6c0-.505-.355-.71-.793-.458l-34.12,19.7a1.754,1.754,0,0,0-.793,1.374v27.373c0,.506.354.711.793.458l34.12-19.7a1.753,1.753,0,0,0,.793-1.373" transform="translate(-74.8 -41.111)" fill="#37474f"/>
            <path id="Trazado_820371" data-name="Trazado 820371" d="M325.2,162.212,292.818,180.9a1.4,1.4,0,0,0-.635,1.1v24.3c0,.4.285.568.635.366L325.2,187.98a1.4,1.4,0,0,0,.635-1.1v-24.3c0-.4-.285-.568-.635-.366" transform="translate(-75.057 -41.647)" fill="#fff"/>
            <path id="Trazado_820372" data-name="Trazado 820372" d="M268.716,269.811,249.509,258.73a2.134,2.134,0,0,1-.966-1.671l0-11.715a2.134,2.134,0,0,1,.965-1.671l13.165-7.6a2.135,2.135,0,0,1,1.931,0L283.8,247.156a2.133,2.133,0,0,1,.967,1.672l.007,11.713a2.134,2.134,0,0,1-.965,1.672l-13.158,7.6a2.132,2.132,0,0,1-1.931,0" transform="translate(-63.846 -60.584)" fill="#263238"/>
            <path id="Trazado_820373" data-name="Trazado 820373" d="M270.836,255.87l13.156-7.6a.588.588,0,0,0,0-1.115L264.8,236.074a2.135,2.135,0,0,0-1.931,0l-13.165,7.6a.588.588,0,0,0,0,1.114l19.2,11.084a2.132,2.132,0,0,0,1.931,0" transform="translate(-64.041 -60.584)" fill="#455a64"/>
            <path id="Trazado_820374" data-name="Trazado 820374" d="M269.678,258.873v13.941a2.039,2.039,0,0,1-.966-.23l-19.2-11.08a2.134,2.134,0,0,1-.966-1.672l-.007-11.719a2.163,2.163,0,0,1,.733-1.481c-.27.3-.2.676.233.924l19.21,11.087a2.018,2.018,0,0,0,.966.23" transform="translate(-63.845 -63.355)" fill="#37474f"/>
            <path id="Trazado_820375" data-name="Trazado 820375" d="M256.225,247.279a1.39,1.39,0,0,1,1.268,0l13.806,7.971c.355.205.364.537.019.739a1.39,1.39,0,0,1-1.268,0l-13.806-7.971c-.355-.205-.364-.537-.019-.739" transform="translate(-65.755 -63.483)" fill="#37474f"/>
            <path id="Trazado_820376" data-name="Trazado 820376" d="M256.225,247.279a1.39,1.39,0,0,1,1.268,0l8.405,4.853-1.249.736-8.4-4.853c-.355-.205-.364-.537-.019-.739" transform="translate(-65.755 -63.483)" fill="#6e40fc"/>
            <path id="Trazado_820377" data-name="Trazado 820377" d="M259.447,245.419a1.39,1.39,0,0,1,1.268,0l13.806,7.971c.355.205.364.537.019.739a1.389,1.389,0,0,1-1.269,0l-13.806-7.971c-.355-.205-.364-.537-.019-.739" transform="translate(-66.582 -63.005)" fill="#37474f"/>
            <path id="Trazado_820378" data-name="Trazado 820378" d="M259.447,245.419a1.394,1.394,0,0,1,1.269,0l1.126.648-1.248.736-1.126-.648c-.356-.205-.365-.536-.02-.739" transform="translate(-66.582 -63.005)" fill="#6e40fc"/>
            <path id="Trazado_820379" data-name="Trazado 820379" d="M262.669,243.559a1.39,1.39,0,0,1,1.268,0l13.806,7.971c.355.205.364.537.019.739a1.39,1.39,0,0,1-1.268,0L262.688,244.3c-.355-.205-.364-.537-.019-.739" transform="translate(-67.41 -62.527)" fill="#37474f"/>
            <path id="Trazado_820380" data-name="Trazado 820380" d="M262.669,243.559a1.39,1.39,0,0,1,1.268,0l4.882,2.819-1.248.736-4.882-2.819c-.355-.205-.364-.537-.019-.739" transform="translate(-67.41 -62.527)" fill="#6e40fc"/>
            <path id="Trazado_820381" data-name="Trazado 820381" d="M265.892,241.7a1.39,1.39,0,0,1,1.268,0l13.806,7.971c.355.206.363.537.019.739a1.387,1.387,0,0,1-1.268,0l-13.806-7.971c-.355-.205-.364-.537-.019-.739" transform="translate(-68.238 -62.049)" fill="#37474f"/>
            <path id="Trazado_820382" data-name="Trazado 820382" d="M265.892,241.7a1.39,1.39,0,0,1,1.268,0l9.887,5.708-1.248.736-9.887-5.708c-.355-.205-.364-.537-.019-.739" transform="translate(-68.238 -62.049)" fill="#6e40fc"/>
            <path id="Trazado_820383" data-name="Trazado 820383" d="M269.114,239.837a1.39,1.39,0,0,1,1.268,0l13.806,7.971c.355.205.364.537.019.739a1.39,1.39,0,0,1-1.268,0l-13.806-7.971c-.355-.205-.364-.537-.019-.739" transform="translate(-69.066 -61.571)" fill="#37474f"/>
            <path id="Trazado_820384" data-name="Trazado 820384" d="M269.114,239.837a1.39,1.39,0,0,1,1.268,0l12.435,7.176-1.248.736-12.435-7.176c-.355-.205-.364-.537-.019-.739" transform="translate(-69.066 -61.571)" fill="#6e40fc"/>
            <path id="Trazado_820385" data-name="Trazado 820385" d="M279.012,275.039v-2.374a1.932,1.932,0,0,1,.755-1.55c.416-.241.754.063.754.678v2.374a1.935,1.935,0,0,1-.754,1.551c-.417.241-.755-.063-.755-.679" transform="translate(-71.673 -69.624)" fill="#37474f"/>
            <path id="Trazado_820386" data-name="Trazado 820386" d="M279.9,271.6a1.1,1.1,0,0,0-.5.866c0,.319.224.448.5.288a1.1,1.1,0,0,0,.5-.866c0-.32-.224-.449-.5-.289" transform="translate(-71.774 -69.752)" fill="#27debf"/>
            <path id="Trazado_820387" data-name="Trazado 820387" d="M282.217,273.2v-2.374a1.932,1.932,0,0,1,.754-1.55c.417-.241.755.063.755.678v2.374a1.933,1.933,0,0,1-.755,1.551c-.416.24-.754-.064-.754-.679" transform="translate(-72.497 -69.151)" fill="#37474f"/>
            <path id="Trazado_820388" data-name="Trazado 820388" d="M283.06,273.439a1.1,1.1,0,0,0-.5.866c0,.319.224.448.5.288a1.1,1.1,0,0,0,.5-.866c0-.32-.224-.449-.5-.289" transform="translate(-72.585 -70.224)" fill="#27debf"/>
            <path id="Trazado_820389" data-name="Trazado 820389" d="M335.211,312.985a10.1,10.1,0,0,1,.62,2.413,5.346,5.346,0,0,1,.192,2.653,5.279,5.279,0,0,1-3,2.342,6.707,6.707,0,0,1-5.284-1.023c-1.838-1.1-3.227-2.436-5.846-3.181a13.312,13.312,0,0,1-5.171-2.347c-1.452-1.166-2.389-2.912.389-3.658,2.8-.751,7.819.411,13.315.65Z" transform="translate(-81.002 -79.617)" fill="#263238"/>
            <path id="Trazado_820390" data-name="Trazado 820390" d="M340,309.416v4.117s-.566,1.369-2.913,1.456a3.544,3.544,0,0,1-3.114-1.491v-4.082Z" transform="translate(-85.792 -79.484)" fill="#ffa8a7"/>
            <path id="Trazado_820391" data-name="Trazado 820391" d="M331.5,273.169c-.03,5.122,1.438,28.74,1.438,28.74s2.095,2.65,6.644,0L341.13,275.7Z" transform="translate(-85.157 -70.172)" fill="#37474f"/>
            <path id="Trazado_820392" data-name="Trazado 820392" d="M318.582,323.819a10.135,10.135,0,0,1,.62,2.413,5.346,5.346,0,0,1,.192,2.653,5.279,5.279,0,0,1-3,2.342,6.709,6.709,0,0,1-5.284-1.022c-1.838-1.1-3.227-2.437-5.846-3.182a13.312,13.312,0,0,1-5.171-2.347c-1.452-1.166-2.389-2.912.389-3.657,2.8-.752,7.819.41,13.315.65Z" transform="translate(-76.731 -82.4)" fill="#263238"/>
            <path id="Trazado_820393" data-name="Trazado 820393" d="M323.371,320.249v4.117s-.566,1.369-2.913,1.456a3.546,3.546,0,0,1-3.114-1.491v-4.082Z" transform="translate(-81.52 -82.266)" fill="#ffa8a7"/>
            <path id="Trazado_820394" data-name="Trazado 820394" d="M314.874,284c-.03,5.122,1.438,28.739,1.438,28.739s2.095,2.651,6.644,0l1.545-26.207Z" transform="translate(-80.885 -72.955)" fill="#37474f"/>
            <path id="Trazado_820395" data-name="Trazado 820395" d="M336.3,348a2.715,2.715,0,0,0,.062.574,1.324,1.324,0,0,0,.519.8l.019.013a1.515,1.515,0,0,0,1.594-.123,4.845,4.845,0,0,0,2.194-3.8,1.555,1.555,0,0,0-.618-1.39l.007-.006-.106-.062h-.006a1.353,1.353,0,0,0-.933-.037,2.464,2.464,0,0,0-.538.235A4.84,4.84,0,0,0,336.3,348" transform="translate(-86.39 -88.343)" fill="#455a64"/>
            <path id="Trazado_820396" data-name="Trazado 820396" d="M336.351,342.964a2.008,2.008,0,0,1,.976-.3,1.16,1.16,0,0,1,.618.173l.056.031,1.415.816a1.361,1.361,0,0,0-.933-.037,2.516,2.516,0,0,0-.537.235,4.844,4.844,0,0,0-2.194,3.8,2.725,2.725,0,0,0,.062.574,1.32,1.32,0,0,0,.519.8l-1.452-.84-.025-.013-.123-.074a.15.15,0,0,1-.037-.025,1.615,1.615,0,0,1-.537-1.347,4.842,4.842,0,0,1,2.194-3.794" transform="translate(-85.839 -88.025)" fill="#263238"/>
            <path id="Trazado_820397" data-name="Trazado 820397" d="M368.241,330.822a2.716,2.716,0,0,0,.062.574,1.328,1.328,0,0,0,.519.8l.019.012a1.515,1.515,0,0,0,1.594-.123,4.845,4.845,0,0,0,2.194-3.8,1.556,1.556,0,0,0-.618-1.39l.006-.006-.1-.062h-.006a1.357,1.357,0,0,0-.933-.037,2.463,2.463,0,0,0-.538.235,4.841,4.841,0,0,0-2.194,3.794" transform="translate(-94.595 -83.931)" fill="#455a64"/>
            <path id="Trazado_820398" data-name="Trazado 820398" d="M368.29,325.789a2.009,2.009,0,0,1,.977-.3,1.16,1.16,0,0,1,.618.173l.055.031,1.416.816a1.361,1.361,0,0,0-.933-.037,2.516,2.516,0,0,0-.537.235,4.841,4.841,0,0,0-2.194,3.794,2.778,2.778,0,0,0,.062.575,1.324,1.324,0,0,0,.519.8l-1.452-.84-.025-.013-.123-.074a.138.138,0,0,1-.037-.025,1.615,1.615,0,0,1-.537-1.347,4.843,4.843,0,0,1,2.194-3.794" transform="translate(-94.044 -83.613)" fill="#263238"/>
            <path id="Trazado_820399" data-name="Trazado 820399" d="M361.027,354.7a2.726,2.726,0,0,1-.062.574,1.324,1.324,0,0,1-.519.8l-.019.013a1.516,1.516,0,0,1-1.594-.123,4.845,4.845,0,0,1-2.194-3.8,1.555,1.555,0,0,1,.618-1.39l-.006-.006.1-.062h.006a1.357,1.357,0,0,1,.933-.036,2.494,2.494,0,0,1,.538.234,4.843,4.843,0,0,1,2.194,3.8" transform="translate(-91.614 -90.065)" fill="#455a64"/>
            <path id="Trazado_820400" data-name="Trazado 820400" d="M360.677,349.67a2.008,2.008,0,0,0-.976-.3,1.16,1.16,0,0,0-.618.173l-.055.03-1.416.816a1.361,1.361,0,0,1,.933-.037,2.516,2.516,0,0,1,.537.235,4.844,4.844,0,0,1,2.194,3.8,2.776,2.776,0,0,1-.062.574,1.324,1.324,0,0,1-.519.8l1.452-.84.025-.012.123-.074a.137.137,0,0,0,.037-.025,1.615,1.615,0,0,0,.537-1.347,4.843,4.843,0,0,0-2.194-3.794" transform="translate(-91.864 -89.748)" fill="#263238"/>
            <path id="Trazado_820401" data-name="Trazado 820401" d="M381.759,344.547a2.716,2.716,0,0,1-.062.574,1.328,1.328,0,0,1-.519.8l-.019.012a1.515,1.515,0,0,1-1.594-.123,4.845,4.845,0,0,1-2.194-3.8,1.555,1.555,0,0,1,.618-1.39l-.006-.006.1-.062h.006a1.353,1.353,0,0,1,.933-.037,2.463,2.463,0,0,1,.538.235,4.841,4.841,0,0,1,2.194,3.794" transform="translate(-96.94 -87.456)" fill="#455a64"/>
            <path id="Trazado_820402" data-name="Trazado 820402" d="M381.41,339.515a2.009,2.009,0,0,0-.977-.3,1.164,1.164,0,0,0-.618.173l-.055.03-1.415.816a1.359,1.359,0,0,1,.933-.037,2.514,2.514,0,0,1,.537.235,4.844,4.844,0,0,1,2.194,3.8,2.778,2.778,0,0,1-.062.574,1.323,1.323,0,0,1-.519.8l1.451-.84.025-.012.123-.074a.15.15,0,0,0,.037-.025,1.615,1.615,0,0,0,.538-1.347,4.845,4.845,0,0,0-2.194-3.8" transform="translate(-97.19 -87.139)" fill="#263238"/>
            <path id="Trazado_820403" data-name="Trazado 820403" d="M341.684,332.092a2.718,2.718,0,0,1-.062.574,1.328,1.328,0,0,1-.519.8l-.019.012a1.515,1.515,0,0,1-1.594-.123,4.845,4.845,0,0,1-2.194-3.8,1.555,1.555,0,0,1,.618-1.39l-.007-.006.106-.062h.006a1.357,1.357,0,0,1,.933-.036,2.463,2.463,0,0,1,.538.235,4.84,4.84,0,0,1,2.194,3.794" transform="translate(-86.645 -84.257)" fill="#455a64"/>
            <path id="Trazado_820404" data-name="Trazado 820404" d="M341.334,327.059a2.008,2.008,0,0,0-.977-.3,1.166,1.166,0,0,0-.618.172l-.055.031-1.416.816a1.361,1.361,0,0,1,.933-.037,2.515,2.515,0,0,1,.537.235,4.844,4.844,0,0,1,2.194,3.8,2.778,2.778,0,0,1-.062.574,1.328,1.328,0,0,1-.519.8l1.452-.84.025-.013.123-.074a.118.118,0,0,0,.037-.025,1.615,1.615,0,0,0,.537-1.347,4.843,4.843,0,0,0-2.194-3.794" transform="translate(-86.895 -83.939)" fill="#263238"/>
            <path id="Trazado_820405" data-name="Trazado 820405" d="M360.825,326.49l7.833-2.246v1.672l-7.833,4.519Z" transform="translate(-92.69 -83.293)" fill="#f5f5f5"/>
            <path id="Trazado_820406" data-name="Trazado 820406" d="M360.558,326.361l-.773-.473,7.857-2.147.749.375Z" transform="translate(-92.422 -83.163)" fill="#fafafa"/>
            <path id="Trazado_820407" data-name="Trazado 820407" d="M352.426,331.961,341.321,327.8v-1.694l11.105.993Z" transform="translate(-87.679 -83.771)" fill="#f5f5f5"/>
            <path id="Trazado_820408" data-name="Trazado 820408" d="M341.321,326.032l.816-.215,10.949.707-.66.5Z" transform="translate(-87.679 -83.697)" fill="#fafafa"/>
            <path id="Trazado_820409" data-name="Trazado 820409" d="M355.865,329.469c0,1.258,3.863,1.258,3.863,0V318.487h-3.863Z" transform="translate(-91.415 -81.814)" fill="#fafafa"/>
            <path id="Trazado_820410" data-name="Trazado 820410" d="M359.306,329.419l2.125,13.79h-1.452l-1.987-13.79a2.387,2.387,0,0,0,1.315,0" transform="translate(-91.962 -84.622)" fill="#fafafa"/>
            <path id="Trazado_820411" data-name="Trazado 820411" d="M357.991,329.419v3.787l1.986,12.337v-2.334Z" transform="translate(-91.962 -84.622)" fill="#f5f5f5"/>
            <rect id="Rectángulo_382114" data-name="Rectángulo 382114" width="1.452" height="2.334" transform="translate(268.016 258.587)" fill="#ebebeb"/>
            <path id="Trazado_820412" data-name="Trazado 820412" d="M352.152,333.1l-14.32,7.507v-2.313l14.32-8.858Z" transform="translate(-86.783 -84.626)" fill="#f5f5f5"/>
            <path id="Trazado_820413" data-name="Trazado 820413" d="M351.843,329.29a1.59,1.59,0,0,1-.919-.417l-14.3,8.672.894.6Z" transform="translate(-86.474 -84.482)" fill="#fafafa"/>
            <path id="Trazado_820414" data-name="Trazado 820414" d="M337.522,343.458v-2.312l-.894-.6v2.24Z" transform="translate(-86.474 -87.48)" fill="#ebebeb"/>
            <path id="Trazado_820415" data-name="Trazado 820415" d="M376.108,337.9l-15.3-5.238v-3.436l15.3,6.363Z" transform="translate(-92.686 -84.572)" fill="#f5f5f5"/>
            <path id="Trazado_820416" data-name="Trazado 820416" d="M360.809,329.02c.125-.033.178-.256.188-.594L376.56,335.2l-.453.187Z" transform="translate(-92.685 -84.367)" fill="#fafafa"/>
            <path id="Trazado_820417" data-name="Trazado 820417" d="M381.849,337.537v2.237l-.453.261v-2.311Z" transform="translate(-97.974 -86.707)" fill="#ebebeb"/>
            <path id="Trazado_820418" data-name="Trazado 820418" d="M360.6,292.742h-6.542v22.649c0,1.88,6.542,1.88,6.542,0Z" transform="translate(-90.952 -75.2)" fill="#f0f0f0"/>
            <path id="Trazado_820419" data-name="Trazado 820419" d="M324.568,289.778h0a3.267,3.267,0,0,1,1.634-2.831l22.884-13.212a3.271,3.271,0,0,1,3.268,0l22.884,13.213a3.269,3.269,0,0,1,1.633,2.831l-26.151,15.1Z" transform="translate(-83.376 -70.205)" fill="#6e40fc"/>
            <path id="Trazado_820420" data-name="Trazado 820420" d="M324.568,295.473v1.891L349.1,311.529a3.235,3.235,0,0,0,3.232,0l24.536-14.165v-1.891l-24.536,14.165a3.192,3.192,0,0,1-3.232,0Z" transform="translate(-83.376 -75.902)" fill="#fafafa"/>
            <path id="Trazado_820421" data-name="Trazado 820421" d="M324.568,295.473v1.891L349.1,311.529a3.2,3.2,0,0,0,1.613.432v-1.885a3.211,3.211,0,0,1-1.613-.439Z" transform="translate(-83.376 -75.902)" fill="#f5f5f5"/>
            <g id="Grupo_1073477" data-name="Grupo 1073477" transform="translate(241.192 218.115)" opacity="0.1">
              <g id="Grupo_1073476" data-name="Grupo 1073476">
                <g id="Grupo_1073475" data-name="Grupo 1073475" clip-path="url(#clip-path-3)">
                  <path id="Trazado_820422" data-name="Trazado 820422" d="M324.568,294.97a3.268,3.268,0,0,1,.35-1.457l24.722,14.273a2.153,2.153,0,0,0,2.153,0l24.732-14.267a3.26,3.26,0,0,1,.347,1.451l-26.151,15.1-26.153-15.1Z" transform="translate(-324.568 -293.513)"/>
                </g>
              </g>
            </g>
            <path id="Trazado_820423" data-name="Trazado 820423" d="M370.1,278.34s-21.228-6.406-24.918-7.416-10.769-2.712-12.837-1.785-3.119,2-3.309,4.986c-.039.561,0,3.291,0,3.291s10.26,3.176,18.666,3.176,22.4-2.252,22.4-2.252" transform="translate(-84.518 -69.069)" fill="#263238"/>
            <path id="Trazado_820424" data-name="Trazado 820424" d="M359.884,232.374l1.411,7.612,7.8.9-1.126-10.5Z" transform="translate(-92.448 -59.181)" fill="#ffa8a7"/>
            <path id="Trazado_820425" data-name="Trazado 820425" d="M349.815,224.885s-1.024,3.14-.711,3.333a5.526,5.526,0,0,0,1.707.1Z" transform="translate(-89.663 -57.769)" fill="#f28f8f"/>
            <path id="Trazado_820426" data-name="Trazado 820426" d="M352.027,210.486c-1.344,1.414-2.621,3.782-2.058,9.779.617,6.572,2.582,8.324,3.409,8.71,1.237.576,5.444-.432,6.813-1.44,1.712-1.262,4.937-4.4,5.778-8.275.988-4.555-.276-9.731-3.6-10.777-4.683-1.473-9.2.806-10.337,2" transform="translate(-89.866 -53.432)" fill="#ffa8a7"/>
            <path id="Trazado_820427" data-name="Trazado 820427" d="M348.393,212.867c.8,1.506,2.306,5.248,6.577,6.31,0,0,.236-2.551,2.35-2.576s2.836,2.579,1.786,4.4-2.371,1.4-2.371,1.4.212,3.583,2.8,4.864a6.7,6.7,0,0,0,5.941-.394c1.275-.814,2.75-4.341,3.51-7.174,1.609-5.993,1.323-10.581-2.488-11.513-.8-2.513-2.092-3.32-4.488-3.479-5.159-.34-8.495,3.479-12.784,3.479-2.238,0-1.745,2.965-.834,4.684" transform="translate(-89.299 -52.58)" fill="#263238"/>
            <path id="Trazado_820428" data-name="Trazado 820428" d="M372.857,209.29l2.582-1.106a1.4,1.4,0,1,0-2.582,1.106" transform="translate(-95.751 -53.26)" fill="#263238"/>
            <path id="Trazado_820429" data-name="Trazado 820429" d="M366.409,277.68c-.007,4.077.383,8.321-1.317,11.309-1.643,2.888-9.4,9.137-18.078,7.677-5.667-.953-23.98-7.933-23.98-7.933s-8.105-3-8.142-5.13c-.009-.521-.056-1.063-.022-1.628.171-2.836,1.318-5.894,7.25-5.736,6.479.172,25.7,3.32,25.7,3.32Z" transform="translate(-80.881 -70.959)" fill="#37474f"/>
            <path id="Trazado_820430" data-name="Trazado 820430" d="M374.02,241.319c-.7-2.13-3.4-4.448-6.107-3.946-4.968.923-10.4,2.532-11.842,2.958h0s.646,10.946-4.97,14.26l-.741,13.94a11.941,11.941,0,0,0,3.535,4.14c2.32,1.475,5.55,3.687,11.382,3.2a14.357,14.357,0,0,0,10.3-5.642s-.063-13.172-.286-19.068a41.234,41.234,0,0,0-1.274-9.843" transform="translate(-90.001 -60.959)" fill="#455a64"/>
            <path id="Trazado_820431" data-name="Trazado 820431" d="M351.142,261.925a18.608,18.608,0,0,0,3.968-6.577s0,5.169-4.025,7.962Z" transform="translate(-90.188 -65.594)" fill="#37474f"/>
            <path id="Trazado_820432" data-name="Trazado 820432" d="M350.812,241.376c-3.066.92-4.934,1.086-8.321,6.3s-10.809,15.55-11.544,16.792c-1.023,1.728-1.462,3.785-.58,5.373.824,1.482,3.223.833,6.585-2.116,3.251-2.852,9.692-10.92,9.692-10.92a55.546,55.546,0,0,0,4.168-15.426" transform="translate(-84.744 -62.005)" fill="#ffa8a7"/>
            <path id="Trazado_820433" data-name="Trazado 820433" d="M353.356,241.376a23.467,23.467,0,0,0-4.433,1.4,7.079,7.079,0,0,0-3.351,2.752c-2.37,3.939-5.759,9.544-5.759,9.544s-.579,4.882,5.35,6.583l3.153-3.4a17.664,17.664,0,0,0,3.143-4.679c1.335-2.935,2.858-7.595,1.9-12.2" transform="translate(-87.288 -62.005)" fill="#455a64"/>
            <path id="Trazado_820434" data-name="Trazado 820434" d="M324.573,271.375c-2.836-.344-9.192-9.055-11.312-11.824a18.961,18.961,0,0,0-5.8-5.46,7.65,7.65,0,0,1-4.085-6.039c-.485-3.106,2.41-5.087,4.777-1.963,1.5,1.983,3.019,3.236,3.1,2.9s-.467-1.711-.454-3.149c.016-1.731,1.228-.593,1.59.013a21.528,21.528,0,0,1,1.279,2.859c.6,1.549.354,3.117,1.091,4.173s10.618,10.524,10.618,10.524Z" transform="translate(-77.917 -62.811)" fill="#ffa8a7"/>
            <path id="Trazado_820435" data-name="Trazado 820435" d="M388.64,244.663V273.89l-23.2,13.447V258.124Z" transform="translate(-93.874 -62.85)" fill="#27debf"/>
            <path id="Trazado_820436" data-name="Trazado 820436" d="M388.64,244.663V273.89l-23.2,13.447V258.124Z" transform="translate(-93.874 -62.85)" fill="#583cce"/>
            <path id="Trazado_820437" data-name="Trazado 820437" d="M362.6,285.716l2.11,1.218V260.142c0-1.268.385-1.9.893-2.18,1.768-1.089,4.106,1.224,4.106,1.224l.007-1.946,22.415-12.979c-2.109-1.218-3.493-2.017-7.748.4s-16.745,9.635-18.72,10.854c-1.584.976-3.063,2.115-3.063,4.769v25.435" transform="translate(-93.145 -62.446)" fill="#6e40fc"/>
            <g id="Grupo_1073480" data-name="Grupo 1073480" transform="translate(272.516 180.646)" opacity="0.4">
              <g id="Grupo_1073479" data-name="Grupo 1073479">
                <g id="Grupo_1073478" data-name="Grupo 1073478" clip-path="url(#clip-path-4)">
                  <path id="Trazado_820438" data-name="Trazado 820438" d="M366.72,255.512c1.946-1.264,14.465-8.44,18.72-10.854s5.639-1.616,7.748-.4l-22.415,12.98a5.619,5.619,0,0,0-4.053-1.729" transform="translate(-366.72 -243.092)" fill="#fff"/>
                </g>
              </g>
            </g>
            <path id="Trazado_820439" data-name="Trazado 820439" d="M372.165,259.589l22.422-13.03v-1.9l-22.415,12.98Z" transform="translate(-95.603 -62.85)" fill="#27debf"/>
            <path id="Trazado_820440" data-name="Trazado 820440" d="M372.165,259.589l22.422-13.03v-1.9l-22.415,12.98Z" transform="translate(-95.603 -62.85)" fill="#4f3cbc"/>
            <path id="Trazado_820441" data-name="Trazado 820441" d="M371.492,308.24a2.038,2.038,0,0,0,2.03-2.033V290.875a1.039,1.039,0,0,0-2.077,0v15.25l-1.651-.953a1.039,1.039,0,1,0-1.039,1.8l1.722.994a2.033,2.033,0,0,0,1.015.275" transform="translate(-94.593 -74.454)" fill="#e6e6e6"/>
            <path id="Trazado_820442" data-name="Trazado 820442" d="M388.562,298.292a2.037,2.037,0,0,0,2.031-2.033V280.927a1.039,1.039,0,0,0-2.078,0v15.25l-1.651-.953a1.039,1.039,0,1,0-1.039,1.8l1.723.994a2.023,2.023,0,0,0,1.014.275" transform="translate(-98.978 -71.899)" fill="#e6e6e6"/>
          </g>
        </g>
      </g>
    </g>
  </g>
</svg>
