<svg xmlns="http://www.w3.org/2000/svg" width="60" height="60" viewBox="0 0 60 60">
  <g id="Grupo_1074049" data-name="Grupo 1074049" transform="translate(-600 -465)">
    <path id="Trazado_820810" data-name="Trazado 820810" d="M10,0H50A10,10,0,0,1,60,10V50A10,10,0,0,1,50,60H10A10,10,0,0,1,0,50V10A10,10,0,0,1,10,0Z" transform="translate(600 465)" fill="#f9305f"/>
    <path id="Trazado_820811" data-name="Trazado 820811" d="M1.074,19V4.781H6.182a7.232,7.232,0,0,1,4.175,1.006,3.347,3.347,0,0,1,1.431,2.92,3.383,3.383,0,0,1-.508,1.885,2.959,2.959,0,0,1-1.494,1.152,3,3,0,0,1,1.709,1.094,3.18,3.18,0,0,1,.6,1.953,3.765,3.765,0,0,1-1.323,3.14A6.3,6.3,0,0,1,6.846,19ZM4.5,12.955v3.408H6.748a2.136,2.136,0,0,0,1.426-.425,1.487,1.487,0,0,0,.5-1.2A1.576,1.576,0,0,0,6.9,12.955Zm0-2.246H6.289a2.539,2.539,0,0,0,1.6-.411,1.46,1.46,0,0,0,.479-1.185,1.533,1.533,0,0,0-.518-1.3,2.77,2.77,0,0,0-1.67-.4H4.5Zm11.357,5.1a1.874,1.874,0,0,1,1.3.464,1.619,1.619,0,0,1,0,2.373,2.049,2.049,0,0,1-2.6,0,1.618,1.618,0,0,1,0-2.363A1.858,1.858,0,0,1,15.859,15.807Z" transform="translate(620 483)" fill="#fff"/>
  </g>
</svg>
