<svg xmlns="http://www.w3.org/2000/svg" width="100" height="100" viewBox="0 0 100 100">
  <g id="Grupo_1072672" data-name="Grupo 1072672" transform="translate(-426 -8003)">
    <circle id="Elipse_8595" data-name="Elipse 8595" cx="50" cy="50" r="50" transform="translate(426 8003)" fill="#01c3fd"/>
    <g id="inventory" transform="translate(413.714 7913.772)">
      <g id="Grupo_1072685" data-name="Grupo 1072685" transform="translate(32 130.3)">
        <g id="Grupo_1072681" data-name="Grupo 1072681" transform="translate(0 17.083)">
          <g id="Grupo_1072678" data-name="Grupo 1072678">
            <path id="Trazado_819176" data-name="Trazado 819176" d="M52.507,1025.772H32.946a.944.944,0,0,1-.946-.946v-17.079a.944.944,0,0,1,.946-.946h19.56a.944.944,0,0,1,.946.946v17.079A.947.947,0,0,1,52.507,1025.772Zm-18.614-1.893H51.56v-15.187H33.893Z" transform="translate(-32 -1006.8)"/>
            <path id="Trazado_819177" data-name="Trazado 819177" d="M221.442,1013.788h-5.1a.944.944,0,0,1-.946-.946v-5.1a.944.944,0,0,1,.946-.946h5.1a.944.944,0,0,1,.946.946v5.1A.947.947,0,0,1,221.442,1013.788Zm-4.149-1.893h3.2v-3.2h-3.2Z" transform="translate(-208.167 -1006.8)"/>
          </g>
          <g id="Grupo_1072679" data-name="Grupo 1072679" transform="translate(19.56)">
            <path id="Trazado_819178" data-name="Trazado 819178" d="M548.507,1025.772h-19.56a.944.944,0,0,1-.946-.946v-17.079a.944.944,0,0,1,.946-.946h19.56a.944.944,0,0,1,.946.946v17.079A.947.947,0,0,1,548.507,1025.772Zm-18.614-1.893H547.56v-15.187H529.893Z" transform="translate(-528 -1006.8)"/>
            <path id="Trazado_819179" data-name="Trazado 819179" d="M717.442,1013.788h-5.1a.944.944,0,0,1-.947-.946v-5.1a.944.944,0,0,1,.947-.946h5.1a.944.944,0,0,1,.946.946v5.1A.947.947,0,0,1,717.442,1013.788Zm-4.149-1.893h3.2v-3.2h-3.2Z" transform="translate(-704.167 -1006.8)"/>
          </g>
          <g id="Grupo_1072680" data-name="Grupo 1072680" transform="translate(39.12)">
            <path id="Trazado_819180" data-name="Trazado 819180" d="M1044.506,1025.772h-19.56a.944.944,0,0,1-.946-.946v-17.079a.944.944,0,0,1,.946-.946h19.56a.944.944,0,0,1,.946.946v17.079A.947.947,0,0,1,1044.506,1025.772Zm-18.614-1.893h17.667v-15.187h-17.667Z" transform="translate(-1024 -1006.8)"/>
            <path id="Trazado_819181" data-name="Trazado 819181" d="M1213.442,1013.788h-5.1a.944.944,0,0,1-.947-.946v-5.1a.944.944,0,0,1,.947-.946h5.1a.944.944,0,0,1,.946.946v5.1A.947.947,0,0,1,1213.442,1013.788Zm-4.149-1.893h3.2v-3.2h-3.2Z" transform="translate(-1200.168 -1006.8)"/>
          </g>
        </g>
        <g id="Grupo_1072684" data-name="Grupo 1072684" transform="translate(9.78)">
          <g id="Grupo_1072682" data-name="Grupo 1072682">
            <path id="Trazado_819182" data-name="Trazado 819182" d="M300.507,592.572h-19.56a.944.944,0,0,1-.946-.946v-5.174a.946.946,0,1,1,1.893,0v4.227H299.56V575.493h-3.494a.946.946,0,0,1,0-1.893h4.44a.944.944,0,0,1,.946.947v17.08A.944.944,0,0,1,300.507,592.572Z" transform="translate(-280 -573.6)"/>
          </g>
          <g id="Grupo_1072683" data-name="Grupo 1072683" transform="translate(19.56)">
            <path id="Trazado_819183" data-name="Trazado 819183" d="M796.506,592.572h-19.56a.944.944,0,0,1-.947-.946v-17.08a.944.944,0,0,1,.947-.947h19.56a.944.944,0,0,1,.947.947v17.08A.944.944,0,0,1,796.506,592.572Zm-18.614-1.893H795.56V575.493H777.893Z" transform="translate(-776 -573.6)"/>
            <path id="Trazado_819184" data-name="Trazado 819184" d="M965.441,580.588h-5.1a.944.944,0,0,1-.946-.946v-5.1a.944.944,0,0,1,.946-.947h5.1a.944.944,0,0,1,.946.947v5.1A.944.944,0,0,1,965.441,580.588Zm-4.149-1.893h3.2v-3.2h-3.2Z" transform="translate(-952.167 -573.6)"/>
          </g>
        </g>
      </g>
      <g id="Grupo_1072691" data-name="Grupo 1072691" transform="translate(35.817 112.1)">
        <path id="Trazado_819185" data-name="Trazado 819185" d="M275.089,168.854H264.646a.944.944,0,0,1-.946-.946v-3.439a1.873,1.873,0,0,1,1.869-1.869h1.518a.946.946,0,1,1,0,1.893h-1.495v2.465h8.55v-2.465h-1.495a.946.946,0,0,1,0-1.893h1.518a1.873,1.873,0,0,1,1.869,1.869V167.9A.948.948,0,0,1,275.089,168.854Z" transform="translate(-258.38 -160.609)"/>
        <path id="Trazado_819186" data-name="Trazado 819186" d="M150.829,233.623H129.747a.944.944,0,0,1-.946-.946v-26.43a.944.944,0,0,1,.946-.946h5.32a.946.946,0,0,1,0,1.893h-4.373V231.73h19.189V207.193h-4.373a.946.946,0,1,1,0-1.893h5.32a.944.944,0,0,1,.946.946v26.43A.944.944,0,0,1,150.829,233.623Z" transform="translate(-128.8 -201.625)"/>
        <path id="Trazado_819187" data-name="Trazado 819187" d="M332.107,117.321h-5.56a.944.944,0,0,1-.946-.946v-3.328a.944.944,0,0,1,.946-.946h5.56a.944.944,0,0,1,.946.946v3.328A.944.944,0,0,1,332.107,117.321Zm-4.614-1.893h3.668v-1.435h-3.668Z" transform="translate(-317.839 -112.1)"/>
        <g id="Grupo_1072690" data-name="Grupo 1072690" transform="translate(4.048 9.825)">
          <g id="Grupo_1072686" data-name="Grupo 1072686">
            <path id="Trazado_819188" data-name="Trazado 819188" d="M369.538,392.093h-7.891a.946.946,0,0,1,0-1.893h7.891a.946.946,0,0,1,0,1.893Z" transform="translate(-355.603 -389.058)"/>
            <path id="Trazado_819189" data-name="Trazado 819189" d="M233.057,364.667a.947.947,0,0,1-.67-.276l-.659-.659a.945.945,0,0,1,1.325-1.349l.856-.856a.945.945,0,1,1,1.337,1.337l-1.522,1.522A.935.935,0,0,1,233.057,364.667Z" transform="translate(-231.45 -361.25)"/>
          </g>
          <g id="Grupo_1072687" data-name="Grupo 1072687" transform="translate(0 5.095)">
            <path id="Trazado_819190" data-name="Trazado 819190" d="M369.538,521.293h-7.891a.946.946,0,1,1,0-1.893h7.891a.946.946,0,1,1,0,1.893Z" transform="translate(-355.603 -518.258)"/>
            <path id="Trazado_819191" data-name="Trazado 819191" d="M233.057,493.867a.946.946,0,0,1-.67-.276l-.659-.659a.945.945,0,0,1,1.325-1.349l.856-.856a.945.945,0,0,1,1.337,1.337l-1.522,1.522A.947.947,0,0,1,233.057,493.867Z" transform="translate(-231.45 -490.45)"/>
          </g>
          <g id="Grupo_1072688" data-name="Grupo 1072688" transform="translate(0 10.19)">
            <path id="Trazado_819192" data-name="Trazado 819192" d="M369.538,650.493h-7.891a.946.946,0,0,1,0-1.893h7.891a.946.946,0,0,1,0,1.893Z" transform="translate(-355.603 -647.458)"/>
            <path id="Trazado_819193" data-name="Trazado 819193" d="M233.057,623.067a.946.946,0,0,1-.67-.276l-.659-.659a.945.945,0,0,1,1.325-1.349l.856-.856a.945.945,0,0,1,1.337,1.337l-1.522,1.522A.947.947,0,0,1,233.057,623.067Z" transform="translate(-231.45 -619.65)"/>
          </g>
          <g id="Grupo_1072689" data-name="Grupo 1072689" transform="translate(0 15.281)">
            <path id="Trazado_819194" data-name="Trazado 819194" d="M369.538,779.693h-7.891a.946.946,0,0,1,0-1.893h7.891a.946.946,0,0,1,0,1.893Z" transform="translate(-355.603 -776.654)"/>
            <path id="Trazado_819195" data-name="Trazado 819195" d="M233.057,752.167a.947.947,0,0,1-.67-.276l-.659-.659a.945.945,0,0,1,1.325-1.349l.856-.856a.945.945,0,0,1,1.337,1.337l-1.522,1.522A.919.919,0,0,1,233.057,752.167Z" transform="translate(-231.45 -748.75)"/>
          </g>
        </g>
      </g>
    </g>
  </g>
</svg>
