<svg xmlns="http://www.w3.org/2000/svg" width="100" height="100" viewBox="0 0 100 100">
  <g id="Grupo_1072674" data-name="Grupo 1072674" transform="translate(-426 -8003)">
    <circle id="Elipse_8595" data-name="Elipse 8595" cx="50" cy="50" r="50" transform="translate(426 8003)" fill="#01c3fd"/>
    <g id="automation" transform="translate(443.354 8020.354)">
      <path id="Trazado_819203" data-name="Trazado 819203" d="M62.4,39.936l-2.555-.6a17.313,17.313,0,0,0-.517-1.932l1.9-1.785a1.023,1.023,0,0,0,.233-1.167,20.484,20.484,0,0,0-2.036-3.515,1.02,1.02,0,0,0-1.127-.38l-2.476.752a17.332,17.332,0,0,0-1.424-1.423l.754-2.475a1.022,1.022,0,0,0-.38-1.126q-.824-.595-1.7-1.1V7.108A5.113,5.113,0,0,0,47.969,2H7.108A5.113,5.113,0,0,0,2,7.108v26.56a5.113,5.113,0,0,0,5.108,5.108h10.8l-3.343,9.194H9.151A1.021,1.021,0,0,0,8.129,48.99,5.113,5.113,0,0,0,13.237,54.1H25.848c.149.226.283.462.441.681a1.019,1.019,0,0,0,1.127.38l2.476-.752a17.331,17.331,0,0,0,1.424,1.423l-.754,2.475a1.022,1.022,0,0,0,.38,1.126,20.344,20.344,0,0,0,3.516,2.037,1.018,1.018,0,0,0,1.167-.233l1.784-1.9a17.1,17.1,0,0,0,1.933.517l.6,2.556a1.022,1.022,0,0,0,.895.785c.689.068,1.372.1,2.029.1s1.34-.035,2.03-.1a1.022,1.022,0,0,0,.895-.785l.6-2.556a17.153,17.153,0,0,0,1.933-.517l1.784,1.9a1.021,1.021,0,0,0,1.167.233,20.425,20.425,0,0,0,3.514-2.037,1.022,1.022,0,0,0,.381-1.127l-.753-2.476a17.493,17.493,0,0,0,1.424-1.423l2.476.753a1.023,1.023,0,0,0,1.127-.38,20.473,20.473,0,0,0,2.036-3.515,1.02,1.02,0,0,0-.233-1.167l-1.9-1.785a17.269,17.269,0,0,0,.517-1.933l2.555-.6a1.021,1.021,0,0,0,.785-.894c.066-.686.1-1.37.1-2.029s-.035-1.342-.1-2.031a1.02,1.02,0,0,0-.784-.894ZM7.108,4.043H47.969a3.068,3.068,0,0,1,3.065,3.065V24.189a1.015,1.015,0,0,0-.935.3l-1.784,1.9a17.1,17.1,0,0,0-1.933-.517l-.6-2.556a1.022,1.022,0,0,0-.895-.785,20.278,20.278,0,0,0-4.061,0,1.022,1.022,0,0,0-.895.785l-.6,2.556a17.154,17.154,0,0,0-1.933.517l-1.784-1.9a1.023,1.023,0,0,0-1.167-.233,20.425,20.425,0,0,0-3.514,2.037,1.022,1.022,0,0,0-.381,1.127l.349,1.144H10.172V16.3H20.387V14.258H10.172V8.129H44.9V20.387h2.043V7.108a1.021,1.021,0,0,0-1.022-1.022H9.151A1.021,1.021,0,0,0,8.129,7.108V28.56H4.043V7.108A3.068,3.068,0,0,1,7.108,4.043ZM30.6,30.6c-.237.237-.489.461-.712.711L27.55,30.6ZM4.043,33.667V30.6H26.73a1.007,1.007,0,0,0-.441.339,20.473,20.473,0,0,0-2.036,3.515,1.02,1.02,0,0,0,.233,1.167l1.183,1.108H7.108a3.068,3.068,0,0,1-3.065-3.065Zm16.038,5.108h5.925c-.046.188-.1.375-.134.565l-2.555.6a1.021,1.021,0,0,0-.785.894c-.067.689-.1,1.372-.1,2.031s.035,1.341.1,2.031a1.021,1.021,0,0,0,.785.894l2.555.6c.11.536.264,1.062.424,1.586H16.739Zm-6.844,13.28a3.07,3.07,0,0,1-2.89-2.043H24.578l-.093.087a1.023,1.023,0,0,0-.233,1.167c.122.269.273.526.407.79Zm47.977-8.088-2.479.579a1.021,1.021,0,0,0-.775.828,15.255,15.255,0,0,1-.768,2.872,1.021,1.021,0,0,0,.258,1.1l1.845,1.729a18.361,18.361,0,0,1-1.106,1.91l-2.4-.73a1.018,1.018,0,0,0-1.086.328A15.421,15.421,0,0,1,52.587,54.7a1.022,1.022,0,0,0-.328,1.086l.73,2.4a18.694,18.694,0,0,1-1.91,1.107l-1.728-1.846a1.02,1.02,0,0,0-1.1-.257,15.275,15.275,0,0,1-2.873.768,1.021,1.021,0,0,0-.828.775l-.578,2.479a17.735,17.735,0,0,1-2.211,0l-.578-2.479a1.02,1.02,0,0,0-.828-.775,15.374,15.374,0,0,1-2.873-.768,1.021,1.021,0,0,0-1.1.257L34.645,59.3a18.279,18.279,0,0,1-1.911-1.107l.731-2.4a1.024,1.024,0,0,0-.328-1.086,15.42,15.42,0,0,1-2.114-2.114,1.021,1.021,0,0,0-1.086-.328l-2.4.729a18.477,18.477,0,0,1-1.107-1.91l1.846-1.729a1.021,1.021,0,0,0,.258-1.1,15.286,15.286,0,0,1-.768-2.873,1.02,1.02,0,0,0-.775-.828l-2.479-.579c-.025-.374-.037-.744-.037-1.1s.012-.73.035-1.105l2.479-.579a1.021,1.021,0,0,0,.775-.828,15.214,15.214,0,0,1,.768-2.872,1.021,1.021,0,0,0-.257-1.105l-1.846-1.729a18.468,18.468,0,0,1,1.106-1.91l2.4.729a1.024,1.024,0,0,0,1.086-.328,15.477,15.477,0,0,1,2.114-2.114,1.022,1.022,0,0,0,.328-1.086l-.73-2.4a18.7,18.7,0,0,1,1.91-1.107l1.728,1.846a1.021,1.021,0,0,0,1.1.257,15.275,15.275,0,0,1,2.873-.768,1.021,1.021,0,0,0,.828-.775l.578-2.479a17.735,17.735,0,0,1,2.211,0l.578,2.479a1.02,1.02,0,0,0,.828.775,15.374,15.374,0,0,1,2.873.768,1.024,1.024,0,0,0,1.1-.257l1.728-1.846a18.279,18.279,0,0,1,1.911,1.107l-.731,2.4a1.024,1.024,0,0,0,.328,1.086A15.419,15.419,0,0,1,54.7,33.132a1.019,1.019,0,0,0,1.086.328l2.4-.729a18.478,18.478,0,0,1,1.107,1.91L57.447,36.37a1.021,1.021,0,0,0-.258,1.1,15.286,15.286,0,0,1,.768,2.873,1.02,1.02,0,0,0,.775.828l2.479.579c.025.376.037.746.037,1.106s-.012.73-.035,1.105Z" transform="translate(0)"/>
      <path id="Trazado_819204" data-name="Trazado 819204" d="M49.3,42.151A7.151,7.151,0,1,0,42.151,49.3,7.159,7.159,0,0,0,49.3,42.151Zm-7.151,5.108a5.108,5.108,0,1,1,5.108-5.108A5.113,5.113,0,0,1,42.151,47.258Z" transform="translate(0.71 0.71)"/>
      <path id="Trazado_819205" data-name="Trazado 819205" d="M33.954,36.167l-1.654-1.2a12.226,12.226,0,0,0-1.125,1.888l1.842.884A10.226,10.226,0,0,1,33.954,36.167Z" transform="translate(0.628 0.71)"/>
      <path id="Trazado_819206" data-name="Trazado 819206" d="M41.569,32.055l-.1-2.041a12.376,12.376,0,0,0-2.177.3l.459,1.991A10.336,10.336,0,0,1,41.569,32.055Z" transform="translate(0.803 0.603)"/>
      <path id="Trazado_819207" data-name="Trazado 819207" d="M49.478,32.593l-1.271,1.6a10.36,10.36,0,0,1,1.33,1.263l1.532-1.35a12.51,12.51,0,0,0-1.592-1.512Z" transform="translate(0.995 0.659)"/>
      <path id="Trazado_819208" data-name="Trazado 819208" d="M32.406,44.681l-1.97.543a12.048,12.048,0,0,0,.775,2.056l1.84-.89a10.125,10.125,0,0,1-.646-1.71Z" transform="translate(0.612 0.919)"/>
      <path id="Trazado_819209" data-name="Trazado 819209" d="M37.3,33.242l-.976-1.8a12.427,12.427,0,0,0-1.828,1.216l1.279,1.594A10.23,10.23,0,0,1,37.3,33.242Z" transform="translate(0.699 0.634)"/>
      <path id="Trazado_819210" data-name="Trazado 819210" d="M51.841,43.825l2.011.363A12.376,12.376,0,0,0,54.046,42v-.044L52,42A10.322,10.322,0,0,1,51.841,43.825Z" transform="translate(1.073 0.86)"/>
      <path id="Trazado_819211" data-name="Trazado 819211" d="M42.459,52l.092,2.041a12.368,12.368,0,0,0,2.178-.294l-.455-1.992A10.3,10.3,0,0,1,42.459,52Z" transform="translate(0.871 1.071)"/>
      <path id="Trazado_819212" data-name="Trazado 819212" d="M50.094,47.908l1.652,1.2a12.257,12.257,0,0,0,1.128-1.886l-1.84-.887a10.38,10.38,0,0,1-.94,1.57Z" transform="translate(1.035 0.954)"/>
      <path id="Trazado_819213" data-name="Trazado 819213" d="M51.645,39.356l1.97-.547a12.009,12.009,0,0,0-.781-2.056L51,37.648A9.982,9.982,0,0,1,51.645,39.356Z" transform="translate(1.055 0.748)"/>
      <path id="Trazado_819214" data-name="Trazado 819214" d="M46.745,50.826l.969,1.8a12.205,12.205,0,0,0,1.832-1.213l-1.275-1.6a10.336,10.336,0,0,1-1.526,1.01Z" transform="translate(0.963 1.029)"/>
      <path id="Trazado_819215" data-name="Trazado 819215" d="M37.3,53.083a12.171,12.171,0,0,0,2.093.676l.448-1.993A10.048,10.048,0,0,1,38.1,51.2Z" transform="translate(0.76 1.059)"/>
      <path id="Trazado_819216" data-name="Trazado 819216" d="M34.511,48.59l-1.536,1.346a12.329,12.329,0,0,0,1.591,1.516l1.271-1.6a10.127,10.127,0,0,1-1.325-1.264Z" transform="translate(0.667 1.003)"/>
      <path id="Trazado_819217" data-name="Trazado 819217" d="M46.737,30.962a12.114,12.114,0,0,0-2.094-.672L44.2,32.283a10.054,10.054,0,0,1,1.741.56Z" transform="translate(0.908 0.609)"/>
      <path id="Trazado_819218" data-name="Trazado 819218" d="M32.2,40.242l-2.011-.359A12.325,12.325,0,0,0,30,42.046v.022l2.043-.022A10.417,10.417,0,0,1,32.2,40.242Z" transform="translate(0.603 0.815)"/>
      <path id="Trazado_819219" data-name="Trazado 819219" d="M38.067,11.293l-1.444,1.444,2.342,2.342H26.108A5.113,5.113,0,0,0,21,20.187v6.129h2.043V20.187a3.068,3.068,0,0,1,3.065-3.065H38.965l-2.342,2.342,1.444,1.444,4.086-4.086a1.02,1.02,0,0,0,0-1.444Z" transform="translate(0.409 0.2)"/>
      <path id="Trazado_819220" data-name="Trazado 819220" d="M12,10h2.043v2.043H12Z" transform="translate(0.215 0.172)"/>
      <path id="Trazado_819221" data-name="Trazado 819221" d="M16,10h2.043v2.043H16Z" transform="translate(0.301 0.172)"/>
      <path id="Trazado_819222" data-name="Trazado 819222" d="M20,10h2.043v2.043H20Z" transform="translate(0.387 0.172)"/>
    </g>
  </g>
</svg>
