<svg xmlns="http://www.w3.org/2000/svg" width="85" height="85" viewBox="0 0 85 85">
  <g id="Grupo_1073369" data-name="Grupo 1073369" transform="translate(-305 -982)">
    <circle id="Elipse_9690" data-name="Elipse 9690" cx="42.5" cy="42.5" r="42.5" transform="translate(305 982)" fill="#fff" opacity="0.6"/>
    <g id="motherboard" transform="translate(289.882 998)">
      <g id="Grupo_1072809" data-name="Grupo 1072809" transform="translate(35.865 45.78)">
        <path id="Trazado_819463" data-name="Trazado 819463" d="M46.5,450.652H42.919a.513.513,0,0,1-.513-.513v-3.065a.513.513,0,0,1,.513-.513H46.5Z" transform="translate(-42.406 -446.562)" fill="#75cef9"/>
      </g>
      <g id="Grupo_1072810" data-name="Grupo 1072810" transform="translate(35.865 45.78)">
        <path id="Trazado_819464" data-name="Trazado 819464" d="M43.919,446.562v2.315a.677.677,0,0,1-.677.677h-.836v.585a.513.513,0,0,0,.513.513H46.5v-4.09H43.919Z" transform="translate(-42.406 -446.562)" fill="#5ea5ec"/>
      </g>
      <g id="Grupo_1072811" data-name="Grupo 1072811" transform="translate(42.17 4.046)">
        <path id="Trazado_819465" data-name="Trazado 819465" d="M139.138,87.158H106.159A2.255,2.255,0,0,1,103.9,84.9V41.615a2.153,2.153,0,0,1,2.153-2.153H139.24a2.153,2.153,0,0,1,2.153,2.153V84.9A2.255,2.255,0,0,1,139.138,87.158Z" transform="translate(-103.904 -39.462)" fill="#78d0b1"/>
      </g>
      <g id="Grupo_1072812" data-name="Grupo 1072812" transform="translate(42.17 4.046)">
        <path id="Trazado_819466" data-name="Trazado 819466" d="M139.241,39.462h-2.422v40.9a2.223,2.223,0,0,1-2.223,2.223H103.905V84.9a2.255,2.255,0,0,0,2.255,2.255h32.978a2.255,2.255,0,0,0,2.255-2.255V41.615A2.153,2.153,0,0,0,139.241,39.462Z" transform="translate(-103.905 -39.462)" fill="#66b49d"/>
      </g>
      <g id="Grupo_1072813" data-name="Grupo 1072813" transform="translate(38.707 0.747)">
        <path id="Trazado_819467" data-name="Trazado 819467" d="M80.174,15.12H70.945a.82.82,0,0,1-.82-.82V8.107a.82.82,0,0,1,.82-.82h9.229a.82.82,0,0,1,.82.82V14.3A.82.82,0,0,1,80.174,15.12Z" transform="translate(-70.125 -7.287)" fill="#efecef"/>
      </g>
      <g id="Grupo_1072814" data-name="Grupo 1072814" transform="translate(38.707 31.795)">
        <path id="Trazado_819468" data-name="Trazado 819468" d="M80.174,317.974H70.945a.82.82,0,0,1-.82-.82v-6.193a.82.82,0,0,1,.82-.82h9.229a.82.82,0,0,1,.82.82v6.193A.82.82,0,0,1,80.174,317.974Z" transform="translate(-70.125 -310.141)" fill="#efecef"/>
      </g>
      <g id="Grupo_1072815" data-name="Grupo 1072815" transform="translate(38.707 43.908)">
        <path id="Trazado_819469" data-name="Trazado 819469" d="M80.174,436.137H70.945a.82.82,0,0,1-.82-.82v-6.193a.82.82,0,0,1,.82-.82h9.229a.82.82,0,0,1,.82.82v6.193A.82.82,0,0,1,80.174,436.137Z" transform="translate(-70.125 -428.304)" fill="#efecef"/>
      </g>
      <g id="Grupo_1072816" data-name="Grupo 1072816" transform="translate(41.396 11.379)">
        <path id="Trazado_819470" data-name="Trazado 819470" d="M96.357,115.09v-3.577A.513.513,0,0,1,96.87,111h4.465a.513.513,0,0,1,.513.513v3.577Z" transform="translate(-96.357 -111)" fill="#efecef"/>
      </g>
      <g id="Grupo_1072817" data-name="Grupo 1072817" transform="translate(41.396 25.037)">
        <path id="Trazado_819471" data-name="Trazado 819471" d="M101.848,244.227V247.8a.513.513,0,0,1-.513.513H96.87a.513.513,0,0,1-.513-.513v-3.577Z" transform="translate(-96.357 -244.227)" fill="#efecef"/>
      </g>
      <g id="Grupo_1072818" data-name="Grupo 1072818" transform="translate(44.915 11.379)">
        <path id="Trazado_819472" data-name="Trazado 819472" d="M132.157,111h-1.474a.5.5,0,0,1,.5.5v3.592h1.474V111.5A.5.5,0,0,0,132.157,111Z" transform="translate(-130.683 -111)" fill="#dddaec"/>
      </g>
      <g id="Grupo_1072819" data-name="Grupo 1072819" transform="translate(41.396 25.037)">
        <path id="Trazado_819473" data-name="Trazado 819473" d="M100.374,244.226v2.208a.5.5,0,0,1-.5.5H96.357v.886a.5.5,0,0,0,.5.5h4.495a.5.5,0,0,0,.5-.5v-3.592h-1.474Z" transform="translate(-96.357 -244.226)" fill="#dddaec"/>
      </g>
      <g id="Grupo_1072820" data-name="Grupo 1072820" transform="translate(38.707 13.998)">
        <path id="Trazado_819474" data-name="Trazado 819474" d="M80.174,149.056H70.945a.82.82,0,0,1-.82-.82v-10.87a.82.82,0,0,1,.82-.82h9.229a.82.82,0,0,1,.82.82v10.87A.82.82,0,0,1,80.174,149.056Z" transform="translate(-70.125 -136.546)" fill="#407093"/>
      </g>
      <g id="Grupo_1072821" data-name="Grupo 1072821" transform="translate(38.707 0.747)">
        <path id="Trazado_819475" data-name="Trazado 819475" d="M80.174,7.287H79.2v5.238a.9.9,0,0,1-.9.9H70.125V14.3a.82.82,0,0,0,.82.82h9.229a.82.82,0,0,0,.82-.82V8.107A.82.82,0,0,0,80.174,7.287Z" transform="translate(-70.125 -7.287)" fill="#dddaec"/>
      </g>
      <g id="Grupo_1072822" data-name="Grupo 1072822" transform="translate(38.707 31.795)">
        <path id="Trazado_819476" data-name="Trazado 819476" d="M80.174,310.141H79.2v5.238a.9.9,0,0,1-.9.9H70.125v.879a.82.82,0,0,0,.82.82h9.229a.82.82,0,0,0,.82-.82v-6.193A.82.82,0,0,0,80.174,310.141Z" transform="translate(-70.125 -310.141)" fill="#dddaec"/>
      </g>
      <g id="Grupo_1072823" data-name="Grupo 1072823" transform="translate(38.707 43.908)">
        <path id="Trazado_819477" data-name="Trazado 819477" d="M80.174,428.3H79.2v5.238a.9.9,0,0,1-.9.9H70.125v.879a.82.82,0,0,0,.82.82h9.229a.82.82,0,0,0,.82-.82v-6.193A.82.82,0,0,0,80.174,428.3Z" transform="translate(-70.125 -428.304)" fill="#dddaec"/>
      </g>
      <g id="Grupo_1072824" data-name="Grupo 1072824" transform="translate(38.707 13.998)">
        <path id="Trazado_819478" data-name="Trazado 819478" d="M80.174,136.546H79.2v9.914a.9.9,0,0,1-.9.9H70.125v.879a.82.82,0,0,0,.82.82h9.229a.82.82,0,0,0,.82-.82v-10.87A.82.82,0,0,0,80.174,136.546Z" transform="translate(-70.125 -136.546)" fill="#365e7d"/>
      </g>
      <g id="Grupo_1072825" data-name="Grupo 1072825" transform="translate(52.769 13.998)">
        <path id="Trazado_819479" data-name="Trazado 819479" d="M227.4,154.316H208.118a.82.82,0,0,1-.82-.82v-16.13a.82.82,0,0,1,.82-.82H227.4a.82.82,0,0,1,.82.82V153.5A.82.82,0,0,1,227.4,154.316Z" transform="translate(-207.298 -136.546)" fill="#efecef"/>
      </g>
      <g id="Grupo_1072826" data-name="Grupo 1072826" transform="translate(52.769 13.998)">
        <path id="Trazado_819480" data-name="Trazado 819480" d="M227.4,136.546h-1.155v14.9a.9.9,0,0,1-.9.9H207.3V153.5a.82.82,0,0,0,.82.82H227.4a.82.82,0,0,0,.82-.82v-16.13A.82.82,0,0,0,227.4,136.546Z" transform="translate(-207.298 -136.546)" fill="#dddaec"/>
      </g>
      <g id="Grupo_1072827" data-name="Grupo 1072827" transform="translate(57.459 17.11)">
        <path id="Trazado_819481" data-name="Trazado 819481" d="M263.669,178.449h-9.7a.923.923,0,0,1-.923-.923v-9.7a.923.923,0,0,1,.923-.923h9.7a.923.923,0,0,1,.923.923v9.7A.923.923,0,0,1,263.669,178.449Z" transform="translate(-253.046 -166.903)" fill="#f4dd45"/>
      </g>
      <g id="Grupo_1072828" data-name="Grupo 1072828" transform="translate(57.459 17.11)">
        <path id="Trazado_819482" data-name="Trazado 819482" d="M263.669,166.9h-1.007v8.792a.824.824,0,0,1-.824.824h-8.792v1.007a.923.923,0,0,0,.923.923h9.7a.923.923,0,0,0,.923-.923v-9.7A.923.923,0,0,0,263.669,166.9Z" transform="translate(-253.046 -166.903)" fill="#ecc32e"/>
      </g>
      <g id="Grupo_1072829" data-name="Grupo 1072829" transform="translate(57.459 34.202)">
        <path id="Trazado_819483" data-name="Trazado 819483" d="M263.669,343.333h-9.7a.923.923,0,0,1-.923-.923V334.55a.923.923,0,0,1,.923-.923h9.7a.923.923,0,0,1,.923.923v7.861A.923.923,0,0,1,263.669,343.333Z" transform="translate(-253.046 -333.627)" fill="#ecb780"/>
      </g>
      <g id="Grupo_1072830" data-name="Grupo 1072830" transform="translate(57.459 34.202)">
        <path id="Trazado_819484" data-name="Trazado 819484" d="M263.669,333.627h-.8v7.161a.824.824,0,0,1-.824.824h-9v.8a.923.923,0,0,0,.923.923h9.7a.923.923,0,0,0,.923-.923v-7.861a.923.923,0,0,0-.923-.923Z" transform="translate(-253.046 -333.627)" fill="#e7a561"/>
      </g>
      <g id="Grupo_1072831" data-name="Grupo 1072831" transform="translate(60.602 20.253)">
        <path id="Trazado_819485" data-name="Trazado 819485" d="M288.142,202.82h-3.62a.82.82,0,0,1-.82-.82v-3.62a.82.82,0,0,1,.82-.82h3.62a.82.82,0,0,1,.82.82V202A.82.82,0,0,1,288.142,202.82Z" transform="translate(-283.702 -197.56)" fill="#78d0b1"/>
      </g>
      <g id="Grupo_1072832" data-name="Grupo 1072832" transform="translate(60.602 20.253)">
        <path id="Trazado_819486" data-name="Trazado 819486" d="M288.142,197.56h-.706v2.911a.824.824,0,0,1-.824.824H283.7V202a.82.82,0,0,0,.82.82h3.62a.82.82,0,0,0,.82-.82v-3.62A.82.82,0,0,0,288.142,197.56Z" transform="translate(-283.702 -197.56)" fill="#66b49d"/>
      </g>
      <g id="Grupo_1072833" data-name="Grupo 1072833" transform="translate(74.399 3.32)">
        <path id="Trazado_819487" data-name="Trazado 819487" d="M422.723,37.644H419.1a.82.82,0,0,1-.82-.82V33.2a.82.82,0,0,1,.82-.82h3.62a.82.82,0,0,1,.82.82v3.62A.82.82,0,0,1,422.723,37.644Z" transform="translate(-418.283 -32.384)" fill="#efecef"/>
      </g>
      <g id="Grupo_1072834" data-name="Grupo 1072834" transform="translate(74.399 38.665)">
        <path id="Trazado_819488" data-name="Trazado 819488" d="M422.723,382.419H419.1a.82.82,0,0,1-.82-.82v-3.62a.82.82,0,0,1,.82-.82h3.62a.82.82,0,0,1,.82.82v3.62A.82.82,0,0,1,422.723,382.419Z" transform="translate(-418.283 -377.159)" fill="#efecef"/>
      </g>
      <g id="Grupo_1072835" data-name="Grupo 1072835" transform="translate(74.399 3.32)">
        <path id="Trazado_819489" data-name="Trazado 819489" d="M422.723,32.384H421.8v2.7a.824.824,0,0,1-.824.824h-2.7v.919a.82.82,0,0,0,.82.82h3.62a.82.82,0,0,0,.82-.82V33.2A.82.82,0,0,0,422.723,32.384Z" transform="translate(-418.283 -32.384)" fill="#dddaec"/>
      </g>
      <g id="Grupo_1072836" data-name="Grupo 1072836" transform="translate(74.399 38.665)">
        <path id="Trazado_819490" data-name="Trazado 819490" d="M422.723,377.158H421.8v2.7a.824.824,0,0,1-.824.824h-2.7v.919a.82.82,0,0,0,.82.82h3.62a.82.82,0,0,0,.82-.82v-3.62A.82.82,0,0,0,422.723,377.158Z" transform="translate(-418.283 -377.158)" fill="#dddaec"/>
      </g>
      <g id="Grupo_1072837" data-name="Grupo 1072837" transform="translate(52.12 38.374)">
        <path id="Trazado_819491" data-name="Trazado 819491" d="M203.251,384.622h-1.769a.513.513,0,0,1-.513-.513v-9.273a.513.513,0,0,1,.513-.513h1.769a.513.513,0,0,1,.513.513v9.273A.513.513,0,0,1,203.251,384.622Z" transform="translate(-200.969 -374.324)" fill="#efecef"/>
      </g>
      <g id="Grupo_1072838" data-name="Grupo 1072838" transform="translate(52.12 38.374)">
        <path id="Trazado_819492" data-name="Trazado 819492" d="M203.265,374.324h-.915v8.387a.5.5,0,0,1-.5.5h-.883v.915a.5.5,0,0,0,.5.5h1.8a.5.5,0,0,0,.5-.5v-9.3A.5.5,0,0,0,203.265,374.324Z" transform="translate(-200.969 -374.324)" fill="#dddaec"/>
      </g>
      <g id="Grupo_1072839" data-name="Grupo 1072839" transform="translate(67.056 6.337)">
        <path id="Trazado_819493" data-name="Trazado 819493" d="M349.826,67.041H347.17a.513.513,0,0,1-.513-.513v-4.2a.513.513,0,0,1,.513-.513h2.656a.513.513,0,0,1,.513.513v4.2A.513.513,0,0,1,349.826,67.041Z" transform="translate(-346.657 -61.814)" fill="#efecef"/>
      </g>
      <g id="Grupo_1072840" data-name="Grupo 1072840" transform="translate(67.056 6.337)">
        <path id="Trazado_819494" data-name="Trazado 819494" d="M349.826,61.814h-1.238v2.979a.5.5,0,0,1-.5.5h-1.433v1.238a.513.513,0,0,0,.513.513h2.656a.513.513,0,0,0,.513-.513v-4.2A.513.513,0,0,0,349.826,61.814Z" transform="translate(-346.657 -61.814)" fill="#dddaec"/>
      </g>
      <g id="Grupo_1072841" data-name="Grupo 1072841" transform="translate(56.758 6.337)">
        <path id="Trazado_819495" data-name="Trazado 819495" d="M249.38,67.041h-2.656a.513.513,0,0,1-.513-.513v-4.2a.513.513,0,0,1,.513-.513h2.656a.513.513,0,0,1,.513.513v4.2A.513.513,0,0,1,249.38,67.041Z" transform="translate(-246.211 -61.814)" fill="#407093"/>
      </g>
      <g id="Grupo_1072842" data-name="Grupo 1072842" transform="translate(56.758 6.337)">
        <path id="Trazado_819496" data-name="Trazado 819496" d="M249.38,61.814h-1.238v2.979a.5.5,0,0,1-.5.5h-1.433v1.238a.513.513,0,0,0,.513.513h2.671a.5.5,0,0,0,.5-.5V62.327A.513.513,0,0,0,249.38,61.814Z" transform="translate(-246.211 -61.814)" fill="#365e7d"/>
      </g>
      <g id="Grupo_1072845" data-name="Grupo 1072845" transform="translate(35.118)">
        <circle id="Elipse_9680" data-name="Elipse 9680" cx="0.953" cy="0.953" r="0.953" transform="translate(17.165 36.236) rotate(-67.486)"/>
        <circle id="Elipse_9681" data-name="Elipse 9681" cx="0.953" cy="0.953" r="0.953" transform="translate(39.088 48.503) rotate(-13.3)"/>
        <circle id="Elipse_9682" data-name="Elipse 9682" cx="0.953" cy="0.953" r="0.953" transform="translate(35.428 48.503) rotate(-13.3)"/>
        <circle id="Elipse_9683" data-name="Elipse 9683" cx="0.953" cy="0.953" r="0.953" transform="translate(31.98 48.281)"/>
        <circle id="Elipse_9684" data-name="Elipse 9684" cx="0.953" cy="0.953" r="0.953" transform="translate(35.619 34.758)"/>
        <circle id="Elipse_9685" data-name="Elipse 9685" cx="0.953" cy="0.953" r="0.953" transform="translate(17.25 9.894) rotate(-13.3)"/>
        <circle id="Elipse_9686" data-name="Elipse 9686" cx="0.953" cy="0.953" r="0.953" transform="translate(36.914 10.614) rotate(-45)"/>
        <circle id="Elipse_9687" data-name="Elipse 9687" cx="0.953" cy="0.953" r="0.953" transform="translate(17.161 7.806) rotate(-67.486)"/>
        <circle id="Elipse_9688" data-name="Elipse 9688" cx="0.953" cy="0.953" r="0.953" transform="translate(27.328 7.805) rotate(-67.486)"/>
        <circle id="Elipse_9689" data-name="Elipse 9689" cx="0.953" cy="0.953" r="0.953" transform="translate(22.066 48.507) rotate(-13.3)"/>
        <path id="Trazado_819497" data-name="Trazado 819497" d="M94.427,326.34H92.416a.747.747,0,1,0,0,1.494h2.011a.747.747,0,1,0,0-1.494Z" transform="translate(-85.872 -292.885)"/>
        <path id="Trazado_819498" data-name="Trazado 819498" d="M94.427,355.778H92.416a.747.747,0,0,0,0,1.494h2.011a.747.747,0,1,0,0-1.494Z" transform="translate(-85.872 -319.305)"/>
        <path id="Trazado_819499" data-name="Trazado 819499" d="M94.427,444.5H92.416a.747.747,0,1,0,0,1.494h2.011a.747.747,0,1,0,0-1.494Z" transform="translate(-85.872 -398.934)"/>
        <path id="Trazado_819500" data-name="Trazado 819500" d="M94.427,473.941H92.416a.747.747,0,1,0,0,1.494h2.011a.747.747,0,1,0,0-1.494Z" transform="translate(-85.872 -425.354)"/>
        <path id="Trazado_819501" data-name="Trazado 819501" d="M220.787,129.259H201.654a1.645,1.645,0,0,0-1.643,1.643V146.88a1.645,1.645,0,0,0,1.643,1.643h19.133a1.645,1.645,0,0,0,1.643-1.643V130.9A1.645,1.645,0,0,0,220.787,129.259Zm.149,17.621a.15.15,0,0,1-.149.149H201.654a.15.15,0,0,1-.149-.149V130.9a.15.15,0,0,1,.149-.149h19.133a.15.15,0,0,1,.149.149Z" transform="translate(-183.107 -116.008)"/>
        <path id="Trazado_819502" data-name="Trazado 819502" d="M257.228,159.616h-9.9a1.573,1.573,0,0,0-1.571,1.571v9.9a1.573,1.573,0,0,0,1.571,1.571h9.9a1.573,1.573,0,0,0,1.571-1.571v-9.9A1.573,1.573,0,0,0,257.228,159.616Zm.077,11.469a.077.077,0,0,1-.077.077h-9.9a.077.077,0,0,1-.077-.077v-9.9a.077.077,0,0,1,.077-.077h9.9a.077.077,0,0,1,.077.077Z" transform="translate(-224.165 -143.253)"/>
        <path id="Trazado_819503" data-name="Trazado 819503" d="M247.33,337.54h9.9a1.573,1.573,0,0,0,1.571-1.571v-8.058a1.573,1.573,0,0,0-1.571-1.571h-9.9a1.573,1.573,0,0,0-1.571,1.571v8.058A1.573,1.573,0,0,0,247.33,337.54Zm9.975-4.107H247.253v-2.782H257.3Zm-.077,2.613h-9.9a.077.077,0,0,1-.077-.077v-1.042H257.3v1.042A.077.077,0,0,1,257.228,336.046Zm-9.9-8.212h9.9a.077.077,0,0,1,.077.077v1.246H247.253v-1.246A.077.077,0,0,1,247.33,327.834Z" transform="translate(-224.165 -292.885)"/>
        <path id="Trazado_819504" data-name="Trazado 819504" d="M281.6,190.273h-3.612a1.573,1.573,0,0,0-1.571,1.571v3.612a1.573,1.573,0,0,0,1.571,1.571H281.6a1.573,1.573,0,0,0,1.571-1.571v-3.612a1.573,1.573,0,0,0-1.571-1.571Zm.077,5.183a.077.077,0,0,1-.077.077h-3.612a.077.077,0,0,1-.077-.077v-3.612a.077.077,0,0,1,.077-.077H281.6a.077.077,0,0,1,.077.077v3.612Z" transform="translate(-251.678 -170.767)"/>
        <path id="Trazado_819505" data-name="Trazado 819505" d="M78.835,2.573H75.223A1.57,1.57,0,0,0,73.9,3.3H50.323V1.643A1.645,1.645,0,0,0,48.679,0H46.613a.747.747,0,0,0,0,1.494h2.067a.15.15,0,0,1,.149.149v6.04a.15.15,0,0,1-.149.149H39.6a.15.15,0,0,1-.149-.149V1.643a.15.15,0,0,1,.149-.149h3.472a.747.747,0,1,0,0-1.494H39.6A1.645,1.645,0,0,0,37.96,1.643v6.04A1.645,1.645,0,0,0,39.6,9.327h1.819v1.4a1.247,1.247,0,0,0-.774,1.152v1.374H39.6a1.645,1.645,0,0,0-1.643,1.643v4.687a.747.747,0,1,0,1.494,0V14.895a.15.15,0,0,1,.149-.149h9.076a.15.15,0,0,1,.149.149V25.612a.15.15,0,0,1-.149.149H39.6a.15.15,0,0,1-.149-.149V23.19a.747.747,0,1,0-1.494,0v2.421A1.645,1.645,0,0,0,39.6,27.255h1.046v1.374a1.246,1.246,0,0,0,.774,1.152v1.267H39.6a1.645,1.645,0,0,0-1.643,1.643v6.04A1.645,1.645,0,0,0,39.6,40.375h1.819v2.786H39.6A1.645,1.645,0,0,0,37.96,44.8v.228h-1.6a1.246,1.246,0,0,0-1.245,1.245v3.094a1.246,1.246,0,0,0,1.245,1.245h1.6v.228A1.645,1.645,0,0,0,39.6,52.488H77.436a2.974,2.974,0,0,0,2.97-2.97V30.2a.747.747,0,1,0-1.494,0v7.723c-.026,0-.051,0-.077,0H77.776V9.327h1.059c.026,0,.051,0,.077,0V26.532a.747.747,0,1,0,1.494,0V4.144a1.573,1.573,0,0,0-1.571-1.571ZM42.143,12.126h4v1.125h-4Zm4,15.129V28.38h-4V27.255ZM39.454,38.731v-6.04a.15.15,0,0,1,.149-.149h9.076a.15.15,0,0,1,.149.149v6.04a.15.15,0,0,1-.149.149H39.6A.15.15,0,0,1,39.454,38.731ZM36.612,49.123v-2.6H37.96v2.6ZM39.6,50.994a.15.15,0,0,1-.149-.149V44.8a.15.15,0,0,1,.149-.149h9.076a.15.15,0,0,1,.149.149v6.04a.15.15,0,0,1-.149.149ZM78.912,39.489V43.1a.077.077,0,0,1-.077.077H75.223a.077.077,0,0,1-.077-.077V39.489a.077.077,0,0,1,.077-.077h3.612a.077.077,0,0,1,.077.077Zm-2.63-1.571H75.223a1.573,1.573,0,0,0-1.571,1.571V43.1a1.573,1.573,0,0,0,1.571,1.571h3.612c.026,0,.051,0,.077,0v4.85a1.478,1.478,0,0,1-1.476,1.476H50.315c0-.049.008-.1.008-.149V44.8a1.645,1.645,0,0,0-1.643-1.643H42.917V40.375h5.763a1.645,1.645,0,0,0,1.643-1.643v-6.04a1.645,1.645,0,0,0-1.643-1.643H42.917V29.874h3.472a1.246,1.246,0,0,0,1.245-1.245V27.255h1.046a1.645,1.645,0,0,0,1.643-1.643V14.895a1.645,1.645,0,0,0-1.643-1.643H47.634V11.877a1.246,1.246,0,0,0-1.245-1.245H42.917V9.327h5.763a1.645,1.645,0,0,0,1.643-1.643V4.793H73.652V7.756a1.573,1.573,0,0,0,1.571,1.571h1.059V37.918ZM78.835,7.833H75.223a.077.077,0,0,1-.077-.077V4.144a.077.077,0,0,1,.077-.077h3.612a.077.077,0,0,1,.077.077V7.756A.077.077,0,0,1,78.835,7.833Z" transform="translate(-35.118)"/>
        <path id="Trazado_819506" data-name="Trazado 819506" d="M196.725,367.037h-1.8a1.246,1.246,0,0,0-1.245,1.245v9.3a1.246,1.246,0,0,0,1.245,1.245h1.8a1.246,1.246,0,0,0,1.245-1.245v-9.3A1.246,1.246,0,0,0,196.725,367.037Zm-.249,10.3h-1.3v-8.8h1.3Z" transform="translate(-177.427 -329.41)"/>
        <path id="Trazado_819507" data-name="Trazado 819507" d="M261.69,444.5H246.505a.747.747,0,1,0,0,1.494H261.69a.747.747,0,1,0,0-1.494Z" transform="translate(-224.164 -398.934)"/>
        <path id="Trazado_819508" data-name="Trazado 819508" d="M340.615,61.247H343.3A1.246,1.246,0,0,0,344.545,60V55.771a1.246,1.246,0,0,0-1.245-1.245h-2.685a1.246,1.246,0,0,0-1.245,1.245V60A1.246,1.246,0,0,0,340.615,61.247Zm.249-5.227h2.187v3.733h-2.187Z" transform="translate(-308.179 -48.936)"/>
        <g id="Grupo_1072844" data-name="Grupo 1072844" transform="translate(20.893 5.59)">
          <g id="Grupo_1072843" data-name="Grupo 1072843">
            <path id="Trazado_819509" data-name="Trazado 819509" d="M242.853,61.247h-2.685A1.246,1.246,0,0,1,238.923,60V55.771a1.246,1.246,0,0,1,1.245-1.245h2.685a1.246,1.246,0,0,1,1.245,1.245V60A1.246,1.246,0,0,1,242.853,61.247Zm-2.436-1.494H242.6V56.02h-2.187Z" transform="translate(-238.923 -54.526)"/>
          </g>
        </g>
      </g>
    </g>
  </g>
</svg>
