<svg xmlns="http://www.w3.org/2000/svg" width="85" height="85" viewBox="0 0 85 85">
  <g id="Grupo_1073373" data-name="Grupo 1073373" transform="translate(-515 -982)">
    <circle id="Elipse_9691" data-name="Elipse 9691" cx="42.5" cy="42.5" r="42.5" transform="translate(515 982)" fill="#fff" opacity="0.6"/>
    <g id="solar-energy" transform="translate(526.807 993.807)">
      <g id="Grupo_1073371" data-name="Grupo 1073371" transform="translate(5.727 7.487)">
        <g id="Grupo_1073370" data-name="Grupo 1073370" transform="translate(2.612 35.247)">
          <path id="Trazado_819510" data-name="Trazado 819510" d="M34.822,91.5h2.627v4.762H34.822Z" transform="translate(-25.244 -91.5)" fill="#ff9800"/>
          <path id="Trazado_819511" data-name="Trazado 819511" d="M12.947,91.5h2.627v4.762H12.947Z" transform="translate(-12.947 -91.5)" fill="#ff9800"/>
        </g>
        <path id="Trazado_819512" data-name="Trazado 819512" d="M39.5,112.5h5.818v2.627H39.5Z" transform="translate(-25.261 -68.058)" fill="#ff9800"/>
        <path id="Trazado_819513" data-name="Trazado 819513" d="M0,0H32.511V3.941H0Z" transform="translate(41.218 15.872) rotate(90)" fill="#eaeaf0"/>
        <path id="Trazado_819514" data-name="Trazado 819514" d="M84.146,109.5h10.92V113H84.146Z" transform="translate(-50.359 -66.371)" fill="#0e8bce"/>
        <path id="Trazado_819515" data-name="Trazado 819515" d="M90.616,50.1H95.87v12.3H90.616Z" transform="translate(-53.996 -32.978)" fill="#0e8bce"/>
        <path id="Trazado_819516" data-name="Trazado 819516" d="M68.31,24.19l-2.623,4.379-.849,1.423-2.163,3.617-.854,1.419-2.163,3.612-.849,1.423-2.163,3.617L55.8,45.1l-2.557,4.269H26.88L29.5,44.984l.849-1.419,2.167-3.612.849-1.423,2.163-3.617.854-1.419,2.163-3.612.849-1.423,2.557-4.269Z" transform="translate(-18.167 -18.415)" fill="#3ba9fd"/>
        <circle id="Elipse_9695" data-name="Elipse 9695" cx="5.254" cy="5.254" r="5.254" transform="translate(1.76)" fill="#fdd82e"/>
        <path id="Trazado_819517" data-name="Trazado 819517" d="M6.981,97.5h17.43v10.509H6.981Z" transform="translate(-6.981 -59.625)" fill="#fdd82e"/>
        <path id="Trazado_819518" data-name="Trazado 819518" d="M76.712,115.5h17.43v2.627H76.712Z" transform="translate(-46.18 -69.744)" fill="#eaeaf0"/>
      </g>
      <g id="Grupo_1073372" data-name="Grupo 1073372" transform="translate(4.75 4.75)">
        <path id="Trazado_819519" data-name="Trazado 819519" d="M47.982,47.6a.764.764,0,0,0,.657-.755V37.228L56.8,23.6a.766.766,0,0,0-.657-1.16H35.56a.766.766,0,1,0,0,1.532h1.587l-2.1,3.5h-6.93l2.1-3.5h1.766a.766.766,0,1,0,0-1.532h-2.2a.767.767,0,0,0-.657.373L14.055,47.992a.766.766,0,0,0,.657,1.159H41.067a.766.766,0,0,0,.657-.373l.711-1.189c.024.006.048.009.073.013v9.508H30.963a.766.766,0,0,0-.766.766v4.6H26.821v-.6a.766.766,0,0,0-.766-.766H24.193v-5.8a.766.766,0,0,0-.766-.766H21.58V52.679a.766.766,0,0,0-.766-.766H18.186a.766.766,0,0,0-.766.766V54.54H12V52.679a.766.766,0,0,0-.766-.766H8.61a.766.766,0,0,0-.766.766V54.54H6a.766.766,0,0,0-.766.766V65.815A.766.766,0,0,0,6,66.581h17.43a.766.766,0,0,0,.766-.766v-.547h1.862a.766.766,0,0,0,.766-.766v-.495h4.142a.766.766,0,0,0,.766-.766v-4.6h10.78v1.152H39.784a.766.766,0,0,0-.766.766v1.861H36.529a.766.766,0,0,0-.766.766v2.627a.766.766,0,0,0,.766.766h3.255a.766.766,0,0,0,0-1.533H37.3V63.954h15.9v1.095H43.661a.766.766,0,1,0,0,1.533h10.3a.766.766,0,0,0,.766-.766V63.188a.766.766,0,0,0-.766-.766H51.47V60.561a.766.766,0,0,0-.766-.766H47.982V57a.766.766,0,0,0-1.532,0v2.791H44.042V47.613H46.45v1.738a.766.766,0,0,0,1.532,0Zm-29.03,5.845h1.095V54.54H18.952Zm-9.576,0h1.095V54.54H9.376Zm13.284,11.6H6.762V56.073h15.9Zm2.627-1.314H24.193V62.641h1.095Zm24.649-1.314H40.552V61.327h9.387Zm-2.83-16.341H43.385v-.076l3.722-6.218ZM24.779,47.619l2.1-3.5H33.8l-2.1,3.5Zm-3.6-8.538H28.1l-2.1,3.5h-6.93Zm3.014-5.035h6.93l-2.1,3.5H22.092Zm25.487-1.532h-7.14l2.1-3.5h7.139Zm-.919,1.532-2.1,3.5H39.523l2.1-3.5Zm-11.022,3.5H30.807l2.1-3.5h6.929Zm-9.944,5.035,2.1-3.5h6.931l-2.1,3.5Zm10.812-3.5h7.141l-2.1,3.5H36.51Zm14.086-11.6H45.551l2.1-3.5h7.14Zm-13.757-3.5h6.931l-2.1,3.5H36.836ZM35.917,29.01h6.931l-2.1,3.5H33.822Zm-1.786,0-2.1,3.5H25.107l2.1-3.5ZM18.159,44.116h6.931l-2.1,3.5H16.063Zm22.472,3.5H33.493l2.1-3.5h7.137Z" transform="translate(-5.02 -14.695)" fill="#051720"/>
        <path id="Trazado_819520" data-name="Trazado 819520" d="M100.136,88.125a.766.766,0,0,0-.766.766v1.916a.766.766,0,0,0,1.533,0V88.891A.766.766,0,0,0,100.136,88.125Z" transform="translate(-57.94 -51.619)" fill="#051720"/>
        <path id="Trazado_819521" data-name="Trazado 819521" d="M5.516,13.507H6.775a5.977,5.977,0,0,0,1.207,2.907l-.894.894a.768.768,0,1,0,1.086,1.086l.894-.894a5.977,5.977,0,0,0,2.907,1.207v1.258a.766.766,0,1,0,1.532,0V18.707A5.977,5.977,0,0,0,16.414,17.5l.894.894a.768.768,0,1,0,1.086-1.086l-.894-.894a5.977,5.977,0,0,0,1.207-2.907h1.258a.766.766,0,1,0,0-1.532H18.707A5.977,5.977,0,0,0,17.5,9.068l.894-.894a.768.768,0,1,0-1.086-1.086l-.894.893a5.981,5.981,0,0,0-2.907-1.207V5.516a.766.766,0,1,0-1.532,0V6.775A5.981,5.981,0,0,0,9.068,7.981l-.894-.893A.768.768,0,1,0,7.088,8.174l.894.894a5.977,5.977,0,0,0-1.207,2.907H5.516a.766.766,0,1,0,0,1.532Zm7.225-5.254a4.488,4.488,0,1,1-4.488,4.488A4.488,4.488,0,0,1,12.741,8.253Z" transform="translate(-4.75 -4.75)" fill="#051720"/>
        <path id="Trazado_819522" data-name="Trazado 819522" d="M12,106a.766.766,0,0,0-.766.766V109.5a.766.766,0,0,0,1.532,0v-2.737A.766.766,0,0,0,12,106Z" transform="translate(-8.393 -61.667)" fill="#051720"/>
        <path id="Trazado_819523" data-name="Trazado 819523" d="M25.637,104.308h-.783l.577-1.664a.766.766,0,1,0-1.448-.5l-.93,2.682a.766.766,0,0,0,.724,1.017h.783l-.577,1.664a.766.766,0,0,0,.473.975.751.751,0,0,0,.251.044.767.767,0,0,0,.724-.515l.93-2.682a.766.766,0,0,0-.724-1.017Z" transform="translate(-15.015 -59.209)" fill="#051720"/>
      </g>
    </g>
  </g>
</svg>
