<svg xmlns="http://www.w3.org/2000/svg" xmlns:xlink="http://www.w3.org/1999/xlink" width="85" height="85" viewBox="0 0 85 85">
  <defs>
    <clipPath id="clip-path">
      <path id="path3095" d="M0-682.665H52.665V-630H0Z" transform="translate(0 682.665)"/>
    </clipPath>
  </defs>
  <g id="Grupo_1073375" data-name="Grupo 1073375" transform="translate(-935 -982)">
    <circle id="Elipse_9693" data-name="Elipse 9693" cx="42.5" cy="42.5" r="42.5" transform="translate(935 982)" fill="#fff" opacity="0.6"/>
    <g id="g3087" transform="translate(951.167 1680.832)">
      <path id="path3089" d="M114.729-488.92H73.386V-520h41.342Z" transform="translate(-67.725 -150.117)" fill="#465a61"/>
      <g id="g3091" transform="translate(0 -682.665)">
        <g id="g3093" transform="translate(0 0)" clip-path="url(#clip-path)">
          <g id="g3099" transform="translate(2.433 36.987)">
            <path id="path3101" d="M-556.825-178.322h-45.3a1.25,1.25,0,0,1-1.25-1.25v-12.407a1.25,1.25,0,0,1,1.25-1.25h45.3a1.25,1.25,0,0,1,1.25,1.25v12.407a1.25,1.25,0,0,1-1.25,1.25" transform="translate(603.373 193.229)" fill="#7a8d98"/>
          </g>
          <g id="g3103" transform="translate(5.662 42.228)">
            <path id="path3105" d="M-278.8-52.922H-299.89a2.212,2.212,0,0,1-2.212-2.212,2.212,2.212,0,0,1,2.212-2.212H-278.8a2.212,2.212,0,0,1,2.212,2.212,2.212,2.212,0,0,1-2.212,2.212" transform="translate(302.102 57.347)" fill="#9facba"/>
          </g>
          <g id="g3107" transform="translate(36.677 40.689)">
            <path id="path3109" d="M-20.64-89.737h0a1.725,1.725,0,0,1-1.725-1.725v-4.051a1.725,1.725,0,0,1,1.725-1.726,1.725,1.725,0,0,1,1.725,1.726v4.051a1.725,1.725,0,0,1-1.725,1.725" transform="translate(22.365 97.238)" fill="#ffd15c"/>
          </g>
          <g id="g3111" transform="translate(2.433 18.95)">
            <path id="path3113" d="M-556.825-178.322h-45.3a1.25,1.25,0,0,1-1.25-1.25v-12.407a1.25,1.25,0,0,1,1.25-1.25h45.3a1.25,1.25,0,0,1,1.25,1.25v12.407a1.25,1.25,0,0,1-1.25,1.25" transform="translate(603.373 193.229)" fill="#7a8d98"/>
          </g>
          <g id="g3115" transform="translate(5.662 24.191)">
            <path id="path3117" d="M-278.8-52.922H-299.89a2.212,2.212,0,0,1-2.212-2.212,2.212,2.212,0,0,1,2.212-2.212H-278.8a2.212,2.212,0,0,1,2.212,2.212,2.212,2.212,0,0,1-2.212,2.212" transform="translate(302.102 57.347)" fill="#9facba"/>
          </g>
          <g id="g3119" transform="translate(36.677 22.652)">
            <path id="path3121" d="M-20.64-89.737h0a1.725,1.725,0,0,1-1.725-1.725v-4.051a1.725,1.725,0,0,1,1.725-1.726,1.725,1.725,0,0,1,1.725,1.726v4.051a1.725,1.725,0,0,1-1.725,1.725" transform="translate(22.365 97.238)" fill="#60b8fe"/>
          </g>
          <g id="g3123" transform="translate(2.433 0.771)">
            <path id="path3125" d="M-556.825-178.322h-45.3a1.25,1.25,0,0,1-1.25-1.25v-12.407a1.25,1.25,0,0,1,1.25-1.25h45.3a1.25,1.25,0,0,1,1.25,1.25v12.407a1.25,1.25,0,0,1-1.25,1.25" transform="translate(603.373 193.229)" fill="#7a8d98"/>
          </g>
          <g id="g3127" transform="translate(5.662 6.013)">
            <path id="path3129" d="M-278.8-52.922H-299.89a2.212,2.212,0,0,1-2.212-2.212,2.212,2.212,0,0,1,2.212-2.212H-278.8a2.212,2.212,0,0,1,2.212,2.212,2.212,2.212,0,0,1-2.212,2.212" transform="translate(302.102 57.347)" fill="#9facba"/>
          </g>
          <g id="g3131" transform="translate(36.677 4.474)">
            <path id="path3133" d="M-20.64-89.737h0a1.725,1.725,0,0,1-1.725-1.725v-4.051a1.725,1.725,0,0,1,1.725-1.725,1.725,1.725,0,0,1,1.725,1.725v4.051a1.725,1.725,0,0,1-1.725,1.725" transform="translate(22.365 97.238)" fill="#60b8fe"/>
          </g>
          <g id="g3135" transform="translate(45.019 36.987)">
            <path id="path3137" d="M-47.4,0h-3.962a1.25,1.25,0,0,1,1.25,1.25V13.657a1.25,1.25,0,0,1-1.25,1.25H-47.4a1.25,1.25,0,0,0,1.25-1.25V1.25A1.25,1.25,0,0,0-47.4,0" transform="translate(51.363)" fill="#596c76"/>
          </g>
          <g id="g3139" transform="translate(45.019 18.95)">
            <path id="path3141" d="M-47.4,0h-3.962a1.25,1.25,0,0,1,1.25,1.25V13.657a1.25,1.25,0,0,1-1.25,1.25H-47.4a1.25,1.25,0,0,0,1.25-1.25V1.25A1.25,1.25,0,0,0-47.4,0" transform="translate(51.363)" fill="#596c76"/>
          </g>
          <g id="g3143" transform="translate(45.019 0.771)">
            <path id="path3145" d="M-47.4,0h-3.962a1.25,1.25,0,0,1,1.25,1.25V13.657a1.25,1.25,0,0,1-1.25,1.25H-47.4a1.25,1.25,0,0,0,1.25-1.25V1.25A1.25,1.25,0,0,0-47.4,0" transform="translate(51.363)" fill="#596c76"/>
          </g>
          <g id="g3147" transform="translate(43.553 4.474)">
            <path id="path3149" d="M-20.639,0h0c-.036,0-.071,0-.106.005a1.724,1.724,0,0,0-1.619,1.72V5.776A1.724,1.724,0,0,0-20.745,7.5c.035,0,.07.005.106.005a1.725,1.725,0,0,0,1.725-1.726V1.725A1.725,1.725,0,0,0-20.639,0" transform="translate(22.364)" fill="#ffd15c"/>
          </g>
          <g id="g3151" transform="translate(46.269 4.789)">
            <path id="path3153" d="M0,0V6.873A1.722,1.722,0,0,0,.734,5.462V1.411A1.722,1.722,0,0,0,0,0" fill="#ffc344"/>
          </g>
          <g id="g3155" transform="translate(43.553 22.653)">
            <path id="path3157" d="M-20.639,0h0c-.036,0-.071,0-.106.005a1.724,1.724,0,0,0-1.619,1.72V5.776A1.724,1.724,0,0,0-20.745,7.5c.035,0,.07.005.106.005a1.725,1.725,0,0,0,1.725-1.725V1.725A1.725,1.725,0,0,0-20.639,0" transform="translate(22.364)" fill="#fe646f"/>
          </g>
          <g id="g3159" transform="translate(46.269 22.967)">
            <path id="path3161" d="M0,0V6.873A1.722,1.722,0,0,0,.734,5.462V1.411A1.723,1.723,0,0,0,0,0" fill="#fd4755"/>
          </g>
          <g id="g3163" transform="translate(43.553 40.689)">
            <path id="path3165" d="M-20.639,0c-.036,0-.071,0-.106.005a1.724,1.724,0,0,0-1.619,1.72V5.776A1.724,1.724,0,0,0-20.745,7.5c.035,0,.07.005.106.005a1.725,1.725,0,0,0,1.725-1.725V1.725A1.725,1.725,0,0,0-20.639,0" transform="translate(22.364)" fill="#60b8fe"/>
          </g>
          <g id="g3167" transform="translate(46.269 41.004)">
            <path id="path3169" d="M0,0V6.873A1.722,1.722,0,0,0,.734,5.462V1.411A1.722,1.722,0,0,0,0,0" fill="#27a5fe"/>
          </g>
          <g id="g3171" transform="translate(2.433 36.987)">
            <path id="path3173" d="M-14.955-178.322h45.3a1.25,1.25,0,0,0,1.25-1.25v-12.407a1.25,1.25,0,0,0-1.25-1.25h-45.3a1.25,1.25,0,0,0-1.25,1.25v12.407A1.25,1.25,0,0,0-14.955-178.322Z" transform="translate(16.205 193.229)" fill="none" stroke="#000" stroke-linecap="round" stroke-linejoin="round" stroke-miterlimit="10" stroke-width="2" stroke-dasharray="503 35 288 0"/>
          </g>
          <g id="g3175" transform="translate(5.662 42.228)">
            <path id="path3177" d="M-278.8-52.922H-299.89a2.212,2.212,0,0,1-2.212-2.212,2.212,2.212,0,0,1,2.212-2.212H-278.8a2.212,2.212,0,0,1,2.212,2.212A2.212,2.212,0,0,1-278.8-52.922Z" transform="translate(302.102 57.347)" fill="none" stroke="#000" stroke-linecap="round" stroke-linejoin="round" stroke-miterlimit="10" stroke-width="2"/>
          </g>
          <g id="g3179" transform="translate(36.677 40.689)">
            <path id="path3181" d="M-20.64-89.737h0a1.725,1.725,0,0,1-1.725-1.725v-4.051a1.725,1.725,0,0,1,1.725-1.726,1.725,1.725,0,0,1,1.725,1.726v4.051A1.725,1.725,0,0,1-20.64-89.737Z" transform="translate(22.365 97.238)" fill="none" stroke="#000" stroke-linecap="round" stroke-linejoin="round" stroke-miterlimit="10" stroke-width="2"/>
          </g>
          <g id="g3183" transform="translate(43.553 40.689)">
            <path id="path3185" d="M-20.639-89.737h0a1.725,1.725,0,0,1-1.725-1.725v-4.051a1.725,1.725,0,0,1,1.725-1.726,1.725,1.725,0,0,1,1.725,1.726v4.051A1.725,1.725,0,0,1-20.639-89.737Z" transform="translate(22.364 97.238)" fill="none" stroke="#000" stroke-linecap="round" stroke-linejoin="round" stroke-miterlimit="10" stroke-width="2"/>
          </g>
          <g id="g3187" transform="translate(2.433 18.95)">
            <path id="path3189" d="M-556.825-178.322h-45.3a1.25,1.25,0,0,1-1.25-1.25v-12.407a1.25,1.25,0,0,1,1.25-1.25h45.3a1.25,1.25,0,0,1,1.25,1.25v12.407A1.25,1.25,0,0,1-556.825-178.322Z" transform="translate(603.373 193.229)" fill="none" stroke="#000" stroke-linecap="round" stroke-linejoin="round" stroke-miterlimit="10" stroke-width="2"/>
          </g>
          <g id="g3191" transform="translate(5.662 24.191)">
            <path id="path3193" d="M-278.8-52.922H-299.89a2.212,2.212,0,0,1-2.212-2.212,2.212,2.212,0,0,1,2.212-2.212H-278.8a2.212,2.212,0,0,1,2.212,2.212A2.212,2.212,0,0,1-278.8-52.922Z" transform="translate(302.102 57.347)" fill="none" stroke="#000" stroke-linecap="round" stroke-linejoin="round" stroke-miterlimit="10" stroke-width="2"/>
          </g>
          <g id="g3195" transform="translate(36.677 22.652)">
            <path id="path3197" d="M-20.64-89.737h0a1.725,1.725,0,0,1-1.725-1.725v-4.051a1.725,1.725,0,0,1,1.725-1.726,1.725,1.725,0,0,1,1.725,1.726v4.051A1.725,1.725,0,0,1-20.64-89.737Z" transform="translate(22.365 97.238)" fill="none" stroke="#000" stroke-linecap="round" stroke-linejoin="round" stroke-miterlimit="10" stroke-width="2"/>
          </g>
          <g id="g3199" transform="translate(43.553 22.652)">
            <path id="path3201" d="M-20.639-89.737h0a1.725,1.725,0,0,1-1.725-1.725v-4.051a1.725,1.725,0,0,1,1.725-1.726,1.725,1.725,0,0,1,1.725,1.726v4.051A1.725,1.725,0,0,1-20.639-89.737Z" transform="translate(22.364 97.238)" fill="none" stroke="#000" stroke-linecap="round" stroke-linejoin="round" stroke-miterlimit="10" stroke-width="2"/>
          </g>
          <g id="g3203" transform="translate(2.433 0.771)">
            <path id="path3205" d="M-556.825-178.322h-45.3a1.25,1.25,0,0,1-1.25-1.25v-12.407a1.25,1.25,0,0,1,1.25-1.25h45.3a1.25,1.25,0,0,1,1.25,1.25v12.407A1.25,1.25,0,0,1-556.825-178.322Z" transform="translate(603.373 193.229)" fill="none" stroke="#000" stroke-linecap="round" stroke-linejoin="round" stroke-miterlimit="10" stroke-width="2" stroke-dasharray="511 35 288 0"/>
          </g>
          <g id="g3207" transform="translate(5.662 6.013)">
            <path id="path3209" d="M-278.8-52.922H-299.89a2.212,2.212,0,0,1-2.212-2.212,2.212,2.212,0,0,1,2.212-2.212H-278.8a2.212,2.212,0,0,1,2.212,2.212A2.212,2.212,0,0,1-278.8-52.922Z" transform="translate(302.102 57.347)" fill="none" stroke="#000" stroke-linecap="round" stroke-linejoin="round" stroke-miterlimit="10" stroke-width="2"/>
          </g>
          <g id="g3211" transform="translate(36.677 4.474)">
            <path id="path3213" d="M-20.64-89.737h0a1.725,1.725,0,0,1-1.725-1.725v-4.051a1.725,1.725,0,0,1,1.725-1.725,1.725,1.725,0,0,1,1.725,1.725v4.051A1.725,1.725,0,0,1-20.64-89.737Z" transform="translate(22.365 97.238)" fill="none" stroke="#000" stroke-linecap="round" stroke-linejoin="round" stroke-miterlimit="10" stroke-width="2"/>
          </g>
          <g id="g3215" transform="translate(43.553 4.474)">
            <path id="path3217" d="M-20.639-89.737h0a1.725,1.725,0,0,1-1.725-1.725v-4.051a1.725,1.725,0,0,1,1.725-1.725,1.725,1.725,0,0,1,1.725,1.725v4.051A1.725,1.725,0,0,1-20.639-89.737Z" transform="translate(22.364 97.238)" fill="none" stroke="#000" stroke-linecap="round" stroke-linejoin="round" stroke-miterlimit="10" stroke-width="2"/>
          </g>
          <path id="path3219" d="M114.729-479.436H73.386v3.272h41.342Z" transform="translate(-67.725 495.115)" fill="none" stroke="#000" stroke-linecap="round" stroke-linejoin="round" stroke-miterlimit="10" stroke-width="2"/>
          <path id="path3221" d="M73.386-240.672h41.342v-3.13H73.386Z" transform="translate(-67.725 277.659)" fill="none" stroke="#000" stroke-linecap="round" stroke-linejoin="round" stroke-miterlimit="10" stroke-width="2"/>
        </g>
      </g>
    </g>
  </g>
</svg>
