<svg xmlns="http://www.w3.org/2000/svg" xmlns:xlink="http://www.w3.org/1999/xlink" width="85" height="85" viewBox="0 0 85 85">
  <defs>
    <clipPath id="clip-path">
      <path id="path7739" d="M0-682.665H62.105v62.105H0Z" transform="translate(0 682.665)"/>
    </clipPath>
  </defs>
  <g id="Grupo_1072666" data-name="Grupo 1072666" transform="translate(-180 -2973)">
    <rect id="Rectángulo_381928" data-name="Rectángulo 381928" width="85" height="85" rx="9" transform="translate(180 2973)" fill="#dde6fe"/>
    <g id="g7725" transform="translate(191 3666.665)">
      <g id="g7727" transform="translate(31.053 -663.567)">
        <path id="path7729" d="M0,0V10.157" transform="translate(0)" fill="none" stroke="#000" stroke-miterlimit="10" stroke-width="2"/>
      </g>
      <g id="g7731" transform="translate(13.586 -666.335)">
        <path id="path7733" d="M0,0H34.934" fill="none" stroke="#000" stroke-miterlimit="10" stroke-width="2"/>
      </g>
      <g id="g7735" transform="translate(0 -682.665)">
        <g id="g7737" transform="translate(0 0)" clip-path="url(#clip-path)">
          <g id="g7743" transform="translate(9.899 27.878)">
            <path id="path7745" d="M0,0V25.408A3.033,3.033,0,0,0,3.032,28.44H39.274a3.033,3.033,0,0,0,3.032-3.032V0" fill="none" stroke="#000" stroke-miterlimit="10" stroke-width="2"/>
          </g>
          <path id="path7747" d="M319.333-271.365h4v8.932h-4Z" transform="translate(-290.281 308.783)" fill="#596c76"/>
          <path id="path7749" d="M319.333-262.434h1.88v-8.932h-1.88Z" transform="translate(-290.281 308.784)" fill="#465a61"/>
          <path id="path7751" d="M319.333-271.365h4v8.932h-4Z" transform="translate(-290.281 308.783)" fill="none" stroke="#000" stroke-miterlimit="10" stroke-width="2"/>
          <g id="g7753" transform="translate(22.063 28.022)">
            <path id="path7755" d="M-173.591-126.335h-16.766a.607.607,0,0,1-.606-.606v-11.431a.607.607,0,0,1,.606-.607h16.766a.607.607,0,0,1,.606.607v11.431a.607.607,0,0,1-.606.606" transform="translate(190.964 138.978)" fill="#00c27a"/>
          </g>
          <g id="g7757" transform="translate(22.063 28.022)">
            <path id="path7759" d="M-55.888-120.275v-11.431a.607.607,0,0,1,.606-.607h-5.593a.606.606,0,0,0-.606.607v11.431a.606.606,0,0,0,.606.606h5.593a.607.607,0,0,1-.606-.606" transform="translate(61.481 132.312)" fill="#09a755"/>
          </g>
          <g id="g7761" transform="translate(22.063 28.022)">
            <path id="path7763" d="M-179.651-36.339v-3.03a.607.607,0,0,0-.606-.606h-16.766a.607.607,0,0,0-.607.606v11.431a.607.607,0,0,0,.607.606h16.766a.607.607,0,0,0,.606-.606v-4.155" transform="translate(197.63 39.976)" fill="none" stroke="#000" stroke-linecap="round" stroke-miterlimit="10" stroke-width="2"/>
          </g>
          <g id="g7765" transform="translate(31.053 46.52)">
            <path id="path7767" d="M0,0V10.157" transform="translate(0)" fill="none" stroke="#000" stroke-miterlimit="10" stroke-width="2"/>
          </g>
          <g id="g7769" transform="translate(24.847 44.427)">
            <path id="path7771" d="M-117.956-30.3h-11.2a.606.606,0,0,1-.606-.606v-1.819a.606.606,0,0,1,.606-.606h11.2a.607.607,0,0,1,.606.606v1.819a.606.606,0,0,1-.606.606" transform="translate(129.761 33.333)" fill="#8d9ca8"/>
          </g>
          <g id="g7773" transform="translate(24.847 44.427)">
            <path id="path7775" d="M-37.378-24.241V-26.06a.607.607,0,0,1,.606-.606h-3.741a.606.606,0,0,0-.606.606v1.819a.606.606,0,0,0,.606.606h3.741a.606.606,0,0,1-.606-.606" transform="translate(41.119 26.667)" fill="#7a8d98"/>
          </g>
          <g id="g7777" transform="translate(24.847 44.427)">
            <path id="path7779" d="M-117.956-30.3h-11.2a.606.606,0,0,1-.606-.606v-1.819a.606.606,0,0,1,.606-.606h11.2a.607.607,0,0,1,.606.606v1.819A.606.606,0,0,1-117.956-30.3Z" transform="translate(129.761 33.333)" fill="none" stroke="#000" stroke-miterlimit="10" stroke-width="2"/>
          </g>
          <g id="g7781" transform="translate(28.566 53.796)">
            <path id="path7783" d="M-49.693-24.847A2.487,2.487,0,0,1-52.18-22.36a2.487,2.487,0,0,1-2.487-2.487,2.487,2.487,0,0,1,2.487-2.487,2.487,2.487,0,0,1,2.487,2.487" transform="translate(54.667 27.333)" fill="#00c27a"/>
          </g>
          <g id="g7785" transform="translate(28.566 53.796)">
            <path id="path7787" d="M-18.786-24.847a2.486,2.486,0,0,1,1.547-2.3,2.478,2.478,0,0,0-.94-.185,2.487,2.487,0,0,0-2.487,2.487A2.487,2.487,0,0,0-18.18-22.36a2.478,2.478,0,0,0,.94-.185,2.486,2.486,0,0,1-1.547-2.3" transform="translate(20.667 27.333)" fill="#09a755"/>
          </g>
          <g id="g7789" transform="translate(28.566 53.796)">
            <path id="path7791" d="M-49.693-24.847A2.487,2.487,0,0,1-52.18-22.36a2.487,2.487,0,0,1-2.487-2.487,2.487,2.487,0,0,1,2.487-2.487A2.487,2.487,0,0,1-49.693-24.847Z" transform="translate(54.667 27.333)" fill="none" stroke="#000" stroke-miterlimit="10" stroke-width="2"/>
          </g>
          <path id="path7793" d="M551.851-467.719h4v8.932h-4Z" transform="translate(-501.646 487.274)" fill="#596c76"/>
          <path id="path7795" d="M551.851-458.787h1.833v-8.932h-1.833Z" transform="translate(-501.646 487.274)" fill="#465a61"/>
          <path id="path7797" d="M551.851-467.719h4v8.932h-4Z" transform="translate(-501.646 487.274)" fill="none" stroke="#000" stroke-miterlimit="10" stroke-width="2"/>
          <g id="g7799" transform="translate(43.216 10.159)">
            <path id="path7801" d="M-173.589-126.334h-16.766a.606.606,0,0,1-.606-.606v-11.43a.606.606,0,0,1,.606-.607h16.766a.606.606,0,0,1,.606.607v11.43a.606.606,0,0,1-.606.606" transform="translate(190.962 138.977)" fill="#01d0fb"/>
          </g>
          <g id="g7803" transform="translate(43.216 10.159)">
            <path id="path7805" d="M-56.359-120.273V-131.7a.606.606,0,0,1,.606-.606h-5.64A.606.606,0,0,0-62-131.7v11.43a.606.606,0,0,0,.606.606h5.64a.606.606,0,0,1-.606-.606" transform="translate(62 132.31)" fill="#01c1fa"/>
          </g>
          <g id="g7807" transform="translate(43.216 10.159)">
            <path id="path7809" d="M-100.262,0h-9.428a.606.606,0,0,0-.606.606v11.43a.606.606,0,0,0,.606.606h16.766a.606.606,0,0,0,.606-.606V.606A.606.606,0,0,0-92.923,0h-3.093" transform="translate(110.296)" fill="none" stroke="#000" stroke-linecap="round" stroke-linejoin="round" stroke-miterlimit="10" stroke-width="2"/>
          </g>
          <g id="g7811" transform="translate(49.719 35.48)">
            <path id="path7813" d="M-49.693-24.847A2.487,2.487,0,0,1-52.18-22.36a2.487,2.487,0,0,1-2.487-2.487,2.487,2.487,0,0,1,2.487-2.487,2.487,2.487,0,0,1,2.487,2.487" transform="translate(54.667 27.333)" fill="#01d0fb"/>
          </g>
          <g id="g7815" transform="translate(49.719 35.48)">
            <path id="path7817" d="M-18.315-24.847a2.486,2.486,0,0,1,1.57-2.31,2.475,2.475,0,0,0-.916-.177,2.487,2.487,0,0,0-2.487,2.487,2.487,2.487,0,0,0,2.487,2.487,2.475,2.475,0,0,0,.916-.177,2.486,2.486,0,0,1-1.57-2.31" transform="translate(20.148 27.333)" fill="#01c1fa"/>
          </g>
          <g id="g7819" transform="translate(49.719 35.48)">
            <path id="path7821" d="M-49.693-24.847A2.487,2.487,0,0,1-52.18-22.36a2.487,2.487,0,0,1-2.487-2.487,2.487,2.487,0,0,1,2.487-2.487A2.487,2.487,0,0,1-49.693-24.847Z" transform="translate(54.667 27.333)" fill="none" stroke="#000" stroke-miterlimit="10" stroke-width="2"/>
          </g>
          <g id="g7823" transform="translate(46 26.564)">
            <path id="path7825" d="M-117.956-30.3h-11.2a.606.606,0,0,1-.606-.606v-1.819a.606.606,0,0,1,.606-.606h11.2a.606.606,0,0,1,.606.606v1.819a.606.606,0,0,1-.606.606" transform="translate(129.761 33.333)" fill="#8d9ca8"/>
          </g>
          <g id="g7827" transform="translate(46 26.564)">
            <path id="path7829" d="M-37.3-24.241V-26.06a.606.606,0,0,1,.606-.606h-3.733a.606.606,0,0,0-.606.606v1.819a.606.606,0,0,0,.606.606h3.733a.606.606,0,0,1-.606-.606" transform="translate(41.028 26.667)" fill="#7a8d98"/>
          </g>
          <g id="g7831" transform="translate(46 26.564)">
            <path id="path7833" d="M-117.956-30.3h-11.2a.606.606,0,0,1-.606-.606v-1.819a.606.606,0,0,1,.606-.606h11.2a.606.606,0,0,1,.606.606v1.819A.606.606,0,0,1-117.956-30.3Z" transform="translate(129.761 33.333)" fill="none" stroke="#000" stroke-miterlimit="10" stroke-width="2"/>
          </g>
          <path id="path7835" d="M86.814-467.719h4v8.932h-4Z" transform="translate(-78.917 487.274)" fill="#596c76"/>
          <path id="path7837" d="M86.814-458.787h1.927v-8.932H86.814Z" transform="translate(-78.917 487.274)" fill="#465a61"/>
          <path id="path7839" d="M86.814-467.719h4v8.932h-4Z" transform="translate(-78.917 487.274)" fill="none" stroke="#000" stroke-miterlimit="10" stroke-width="2"/>
          <g id="g7841" transform="translate(0.91 10.159)">
            <path id="path7843" d="M-173.589-126.334h-16.766a.606.606,0,0,1-.606-.606v-11.43a.606.606,0,0,1,.606-.607h16.766a.606.606,0,0,1,.606.607v11.43a.606.606,0,0,1-.606.606" transform="translate(190.962 138.977)" fill="#fac600"/>
          </g>
          <g id="g7845" transform="translate(0.91 10.159)">
            <path id="path7847" d="M-56.09-120.273V-131.7a.606.606,0,0,1,.606-.606H-61.1a.606.606,0,0,0-.606.606v11.43a.606.606,0,0,0,.606.606h5.614a.606.606,0,0,1-.606-.606" transform="translate(61.704 132.31)" fill="#e8b801"/>
          </g>
          <g id="g7849" transform="translate(0.91 10.159)">
            <path id="path7851" d="M-99.993,0h-9.4A.606.606,0,0,0-110,.606v11.43a.606.606,0,0,0,.606.606h16.766a.606.606,0,0,0,.606-.606V.606A.606.606,0,0,0-92.627,0h-3.12" transform="translate(110)" fill="none" stroke="#000" stroke-linecap="round" stroke-linejoin="round" stroke-miterlimit="10" stroke-width="2"/>
          </g>
          <g id="g7853" transform="translate(7.413 35.48)">
            <path id="path7855" d="M-49.693-24.847A2.487,2.487,0,0,1-52.18-22.36a2.487,2.487,0,0,1-2.487-2.487,2.487,2.487,0,0,1,2.487-2.487,2.487,2.487,0,0,1,2.487,2.487" transform="translate(54.667 27.333)" fill="#fac600"/>
          </g>
          <g id="g7857" transform="translate(7.413 35.48)">
            <path id="path7859" d="M-19.258-24.847a2.487,2.487,0,0,1,1.523-2.293,2.48,2.48,0,0,0-.964-.194,2.487,2.487,0,0,0-2.487,2.487A2.487,2.487,0,0,0-18.7-22.36a2.48,2.48,0,0,0,.964-.194,2.487,2.487,0,0,1-1.523-2.293" transform="translate(21.185 27.333)" fill="#e8b801"/>
          </g>
          <g id="g7861" transform="translate(7.413 35.48)">
            <path id="path7863" d="M-49.693-24.847A2.487,2.487,0,0,1-52.18-22.36a2.487,2.487,0,0,1-2.487-2.487,2.487,2.487,0,0,1,2.487-2.487A2.487,2.487,0,0,1-49.693-24.847Z" transform="translate(54.667 27.333)" fill="none" stroke="#000" stroke-miterlimit="10" stroke-width="2"/>
          </g>
          <g id="g7865" transform="translate(3.694 26.564)">
            <path id="path7867" d="M-117.956-30.3h-11.2a.606.606,0,0,1-.606-.606v-1.819a.606.606,0,0,1,.606-.606h11.2a.606.606,0,0,1,.606.606v1.819a.606.606,0,0,1-.606.606" transform="translate(129.761 33.333)" fill="#8d9ca8"/>
          </g>
          <g id="g7869" transform="translate(3.694 26.564)">
            <path id="path7871" d="M-37.026-24.241V-26.06a.606.606,0,0,1,.606-.606h-3.706a.606.606,0,0,0-.606.606v1.819a.606.606,0,0,0,.606.606h3.706a.606.606,0,0,1-.606-.606" transform="translate(40.732 26.667)" fill="#7a8d98"/>
          </g>
          <g id="g7873" transform="translate(3.694 26.564)">
            <path id="path7875" d="M-117.956-30.3h-11.2a.606.606,0,0,1-.606-.606v-1.819a.606.606,0,0,1,.606-.606h11.2a.606.606,0,0,1,.606.606v1.819A.606.606,0,0,1-117.956-30.3Z" transform="translate(129.761 33.333)" fill="none" stroke="#000" stroke-miterlimit="10" stroke-width="2"/>
          </g>
          <g id="g7877" transform="translate(25.23 13.904)">
            <path id="path7879" d="M-110.295-48.481h-10.432a.606.606,0,0,1-.606-.606v-3.639a.606.606,0,0,1,.606-.606h10.432a.606.606,0,0,1,.606.606v3.639a.606.606,0,0,1-.606.606" transform="translate(121.333 53.333)" fill="#596c76"/>
          </g>
          <g id="g7881" transform="translate(25.23 13.904)">
            <path id="path7883" d="M-36.361-42.421V-46.06a.606.606,0,0,1,.606-.606h-3.639A.606.606,0,0,0-40-46.06v3.639a.606.606,0,0,0,.606.606h3.639a.606.606,0,0,1-.606-.606" transform="translate(40 46.667)" fill="#465a61"/>
          </g>
          <g id="g7885" transform="translate(25.23 13.904)">
            <path id="path7887" d="M-110.295-48.481h-10.432a.606.606,0,0,1-.606-.606v-3.639a.606.606,0,0,1,.606-.606h10.432a.606.606,0,0,1,.606.606v3.639A.606.606,0,0,1-110.295-48.481Z" transform="translate(121.333 53.333)" fill="none" stroke="#000" stroke-linecap="round" stroke-linejoin="round" stroke-miterlimit="10" stroke-width="2"/>
          </g>
          <g id="g7889" transform="translate(25.12 3.336)">
            <path id="path7891" d="M-118.558-24.515a8.4,8.4,0,0,0-11.865,0" transform="translate(130.424 26.969)" fill="none" stroke="#000" stroke-linecap="round" stroke-linejoin="round" stroke-miterlimit="10" stroke-width="2"/>
          </g>
          <g id="g7893" transform="translate(27.972 6.88)">
            <path id="path7895" d="M-61.559-12.749a4.356,4.356,0,0,0-6.161,0" transform="translate(67.72 14.025)" fill="none" stroke="#000" stroke-linecap="round" stroke-linejoin="round" stroke-miterlimit="10" stroke-width="2"/>
          </g>
          <g id="g7897" transform="translate(30.143 9.745)">
            <path id="path7899" d="M-2.663-15.517a.91.91,0,0,1,0-1.287.91.91,0,0,1,1.287,0,.909.909,0,0,1,0,1.287.91.91,0,0,1-1.287,0" transform="translate(2.929 17.07)"/>
          </g>
        </g>
      </g>
    </g>
  </g>
</svg>
